<svg width="13" height="13" viewBox="0 0 13 13" fill="none" xmlns="http://www.w3.org/2000/svg">
<path d="M4 0.5C4 0.776142 4.22386 1 4.5 1C4.77614 1 5 0.776142 5 0.5C5 0.223858 4.77614 0 4.5 0C4.22386 0 4 0.223858 4 0.5Z" fill="#FF2900"/>
<circle cx="0.5" cy="0.5" r="0.5" transform="matrix(-1 0 0 1 11 2)" fill="#FF7A00" fill-opacity="0.7"/>
<circle cx="0.5" cy="0.5" r="0.5" transform="matrix(-1 0 0 1 13 8)" fill="#FF7A00"/>
<circle cx="0.5" cy="0.5" r="0.5" transform="matrix(-1 0 0 1 8 12)" fill="#FF7A00" fill-opacity="0.7"/>
<circle cx="0.5" cy="0.5" r="0.5" transform="matrix(-1 0 0 1 1 10)" fill="#FF7A00"/>
</svg>
