<svg width="94" height="94" viewBox="0 0 94 94" fill="none" xmlns="http://www.w3.org/2000/svg">
<g filter="url(#filter0_d_45_215)">
<g filter="url(#filter1_d_45_215)">
<rect x="17" y="13" width="60" height="60" rx="5" fill="url(#paint0_radial_45_215)"/>
<rect x="17.075" y="13.075" width="59.85" height="59.85" rx="4.925" stroke="#292929" stroke-opacity="0.6" stroke-width="0.15"/>
</g>
<g filter="url(#filter2_d_45_215)">
<rect x="19.7261" y="15.1821" width="54.5454" height="54.5454" rx="5" fill="url(#paint1_radial_45_215)"/>
<rect x="19.8011" y="15.2571" width="54.3954" height="54.3954" rx="4.925" stroke="#292929" stroke-width="0.15"/>
</g>
</g>
<g clip-path="url(#clip0_45_215)">
<path d="M62.9703 35.2218C62.4561 35.0448 61.9234 34.8773 61.3748 34.719C61.4649 34.351 61.5477 33.9878 61.6213 33.6307C62.8291 27.7679 62.0394 23.0447 59.3428 21.4897C56.757 19.9986 52.5283 21.5533 48.2575 25.27C47.8468 25.6274 47.435 26.0058 47.0233 26.4024C46.749 26.14 46.4752 25.8865 46.202 25.6439C41.7261 21.6697 37.2396 19.9949 34.5457 21.5545C31.9624 23.0499 31.1974 27.4901 32.2846 33.0464C32.3896 33.5831 32.5124 34.1311 32.6511 34.6884C32.0162 34.8686 31.4032 35.0608 30.8167 35.2652C25.5691 37.0947 22.2178 39.962 22.2178 42.9362C22.2178 46.0079 25.8154 49.0889 31.2812 50.9571C31.7125 51.1045 32.1601 51.2439 32.6213 51.3763C32.4716 51.9789 32.3414 52.5695 32.2321 53.1455C31.1954 58.6054 32.005 62.9407 34.5813 64.4267C37.2425 65.9613 41.7086 64.3839 46.0575 60.5824C46.4012 60.2819 46.7462 59.9633 47.0918 59.6292C47.5397 60.0606 47.9869 60.4688 48.4317 60.8517C52.6442 64.4766 56.8046 65.9403 59.3786 64.4502C62.0371 62.9112 62.9011 58.2541 61.7794 52.5879C61.6937 52.1551 61.594 51.713 61.482 51.2631C61.7957 51.1704 62.1036 51.0746 62.4038 50.9751C68.086 49.0925 71.783 46.049 71.783 42.9362C71.783 39.9513 68.3236 37.0646 62.9703 35.2218ZM61.7379 48.9653C61.4669 49.055 61.1888 49.1417 60.9054 49.2258C60.2781 47.2399 59.4315 45.1282 58.3955 42.9465C59.3841 40.8168 60.198 38.7321 60.8077 36.7591C61.3148 36.9058 61.8069 37.0606 62.2811 37.2239C66.8678 38.8028 69.6656 41.1374 69.6656 42.9362C69.6656 44.8523 66.644 47.3396 61.7379 48.9653ZM59.7022 52.9991C60.1982 55.5046 60.269 57.7699 59.9405 59.5407C59.6453 61.132 59.0516 62.1929 58.3176 62.6178C56.7555 63.5219 53.4152 62.3467 49.8127 59.2466C49.3997 58.8912 48.9837 58.5118 48.5664 58.1102C49.963 56.5827 51.3588 54.807 52.7211 52.8349C55.1172 52.6223 57.381 52.2747 59.4339 51.8001C59.535 52.208 59.6248 52.608 59.7022 52.9991ZM39.1157 62.4615C37.5895 63.0005 36.3741 63.0159 35.6393 62.5923C34.0759 61.6905 33.4259 58.2097 34.3125 53.5404C34.4141 53.0057 34.5349 52.4564 34.6742 51.895C36.7046 52.3439 38.9518 52.667 41.3537 52.8617C42.7252 54.7915 44.1613 56.5653 45.6085 58.1184C45.2923 58.4236 44.9774 58.7142 44.6642 58.9881C42.7411 60.6691 40.814 61.8617 39.1157 62.4615ZM31.966 48.9535C29.5491 48.1275 27.5532 47.0538 26.1851 45.8823C24.9558 44.8295 24.3351 43.7843 24.3351 42.9362C24.3351 41.1314 27.0259 38.8293 31.5136 37.2646C32.0582 37.0748 32.6282 36.8958 33.2197 36.7278C33.84 38.7453 34.6536 40.8547 35.6354 42.9877C34.6409 45.1524 33.8157 47.2954 33.1894 49.3366C32.7677 49.2154 32.3591 49.0878 31.966 48.9535ZM34.3626 32.6398C33.4311 27.8793 34.0498 24.2882 35.6065 23.387C37.2647 22.4271 40.9314 23.7958 44.7961 27.2273C45.0431 27.4466 45.2911 27.6762 45.5398 27.9137C44.0997 29.46 42.6767 31.2205 41.3174 33.1389C38.9863 33.3549 36.7549 33.702 34.7033 34.1668C34.5744 33.6479 34.4601 33.1381 34.3626 32.6398ZM55.7428 37.9191C55.2524 37.0719 54.7489 36.2448 54.2356 35.4403C55.817 35.6402 57.3322 35.9056 58.7551 36.2304C58.3279 37.5994 57.7955 39.0309 57.1687 40.4983C56.7191 39.6448 56.2436 38.7841 55.7428 37.9191ZM47.024 29.4269C48.0007 30.485 48.9787 31.6664 49.9408 32.9481C48.9713 32.9023 47.9899 32.8785 47.0004 32.8785C46.0202 32.8785 45.046 32.9018 44.0826 32.9468C45.0456 31.677 46.0321 30.4972 47.024 29.4269ZM38.2494 37.9337C37.7595 38.7832 37.2928 39.6392 36.8502 40.4968C36.2336 39.0344 35.7061 37.5964 35.2752 36.2079C36.6894 35.8915 38.1974 35.6327 39.7688 35.4366C39.2483 36.2485 38.7406 37.0817 38.2494 37.9335V37.9337ZM39.8141 50.5868C38.1905 50.4057 36.6598 50.1603 35.246 49.8525C35.6838 48.4393 36.2229 46.9706 36.8526 45.4767C37.2963 46.3337 37.7649 47.19 38.2578 48.0414H38.2579C38.7599 48.9087 39.2801 49.7583 39.8141 50.5868ZM47.0826 56.5947C46.079 55.5119 45.078 54.3142 44.1004 53.0258C45.0494 53.0631 46.017 53.0821 47.0004 53.0821C48.0106 53.0821 49.0094 53.0594 49.9924 53.0156C49.0272 54.3272 48.0526 55.5268 47.0826 56.5947ZM57.1889 45.4006C57.8514 46.9106 58.4099 48.3716 58.8533 49.7608C57.4162 50.0886 55.8646 50.3527 54.2297 50.5489C54.7443 49.7335 55.2522 48.8922 55.7513 48.0268C56.2562 47.1512 56.7356 46.2744 57.1889 45.4006ZM53.9172 46.969C53.1424 48.3124 52.3469 49.5948 51.5394 50.8054C50.0686 50.9105 48.5491 50.9647 47.0004 50.9647C45.4579 50.9647 43.9576 50.9168 42.5128 50.823C41.6727 49.5966 40.86 48.3104 40.0901 46.9805H40.0903C39.3225 45.6543 38.6158 44.3169 37.9754 42.987C38.6156 41.654 39.3204 40.3151 40.0839 38.9913L40.0837 38.9915C40.8491 37.6642 41.6547 36.3842 42.487 35.1655C43.9611 35.054 45.4727 34.9959 47.0003 34.9959H47.0004C48.5349 34.9959 50.0484 35.0545 51.522 35.1669C52.3416 36.3767 53.1417 37.6525 53.9102 38.9801C54.6874 40.3225 55.4013 41.6525 56.0469 42.9569C55.4032 44.2837 54.6909 45.6272 53.9172 46.969ZM58.2851 23.324C59.9449 24.2812 60.5904 28.1414 59.5475 33.2033C59.481 33.5263 59.4061 33.8553 59.3248 34.1887C57.2684 33.7143 55.0354 33.3612 52.6975 33.1418C51.3356 31.2024 49.9243 29.4392 48.5076 27.9127C48.8885 27.5463 49.2688 27.197 49.6476 26.8673C53.3068 23.6828 56.7269 22.4255 58.2851 23.324ZM47.0004 38.5102C49.4448 38.5102 51.4264 40.4917 51.4264 42.9362C51.4264 45.3806 49.4448 47.3622 47.0004 47.3622C44.556 47.3622 42.5744 45.3806 42.5744 42.9362C42.5744 40.4917 44.556 38.5102 47.0004 38.5102Z" fill="#00D8FF"/>
</g>
<defs>
<filter id="filter0_d_45_215" x="9" y="7" width="76" height="76" filterUnits="userSpaceOnUse" color-interpolation-filters="sRGB">
<feFlood flood-opacity="0" result="BackgroundImageFix"/>
<feColorMatrix in="SourceAlpha" type="matrix" values="0 0 0 0 0 0 0 0 0 0 0 0 0 0 0 0 0 0 127 0" result="hardAlpha"/>
<feOffset dy="2"/>
<feGaussianBlur stdDeviation="4"/>
<feComposite in2="hardAlpha" operator="out"/>
<feColorMatrix type="matrix" values="0 0 0 0 1 0 0 0 0 0.478431 0 0 0 0 0 0 0 0 1 0"/>
<feBlend mode="normal" in2="BackgroundImageFix" result="effect1_dropShadow_45_215"/>
<feBlend mode="normal" in="SourceGraphic" in2="effect1_dropShadow_45_215" result="shape"/>
</filter>
<filter id="filter1_d_45_215" x="0" y="0" width="94" height="94" filterUnits="userSpaceOnUse" color-interpolation-filters="sRGB">
<feFlood flood-opacity="0" result="BackgroundImageFix"/>
<feColorMatrix in="SourceAlpha" type="matrix" values="0 0 0 0 0 0 0 0 0 0 0 0 0 0 0 0 0 0 127 0" result="hardAlpha"/>
<feMorphology radius="2" operator="dilate" in="SourceAlpha" result="effect1_dropShadow_45_215"/>
<feOffset dy="4"/>
<feGaussianBlur stdDeviation="7.5"/>
<feComposite in2="hardAlpha" operator="out"/>
<feColorMatrix type="matrix" values="0 0 0 0 0.105882 0 0 0 0 0.105882 0 0 0 0 0.105882 0 0 0 1 0"/>
<feBlend mode="normal" in2="BackgroundImageFix" result="effect1_dropShadow_45_215"/>
<feBlend mode="normal" in="SourceGraphic" in2="effect1_dropShadow_45_215" result="shape"/>
</filter>
<filter id="filter2_d_45_215" x="7.72607" y="7.18213" width="78.5454" height="78.5454" filterUnits="userSpaceOnUse" color-interpolation-filters="sRGB">
<feFlood flood-opacity="0" result="BackgroundImageFix"/>
<feColorMatrix in="SourceAlpha" type="matrix" values="0 0 0 0 0 0 0 0 0 0 0 0 0 0 0 0 0 0 127 0" result="hardAlpha"/>
<feMorphology radius="2" operator="dilate" in="SourceAlpha" result="effect1_dropShadow_45_215"/>
<feOffset dy="4"/>
<feGaussianBlur stdDeviation="5"/>
<feComposite in2="hardAlpha" operator="out"/>
<feColorMatrix type="matrix" values="0 0 0 0 0.075 0 0 0 0 0.075 0 0 0 0 0.075 0 0 0 1 0"/>
<feBlend mode="normal" in2="BackgroundImageFix" result="effect1_dropShadow_45_215"/>
<feBlend mode="normal" in="SourceGraphic" in2="effect1_dropShadow_45_215" result="shape"/>
</filter>
<radialGradient id="paint0_radial_45_215" cx="0" cy="0" r="1" gradientUnits="userSpaceOnUse" gradientTransform="translate(47 43) rotate(90) scale(30)">
<stop stop-color="#1B1B1B"/>
<stop offset="1" stop-color="#1D1D1D"/>
</radialGradient>
<radialGradient id="paint1_radial_45_215" cx="0" cy="0" r="1" gradientUnits="userSpaceOnUse" gradientTransform="translate(46.9988 42.4548) rotate(90) scale(27.2727)">
<stop stop-color="#1B1B1B"/>
<stop offset="1" stop-color="#1D1D1D"/>
</radialGradient>
<clipPath id="clip0_45_215">
<rect width="49.5652" height="49.5652" fill="white" transform="translate(22.2178 18.2178)"/>
</clipPath>
</defs>
</svg>
