<svg width="70" height="70" viewBox="0 0 70 70" fill="none" xmlns="http://www.w3.org/2000/svg">
<g filter="url(#filter0_i_51_84)">
<circle cx="35" cy="35" r="35" fill="url(#paint0_linear_51_84)"/>
</g>
<path d="M50.2901 26.3532C51.1712 25.4722 51.6664 24.2773 51.6665 23.0312C51.6667 21.7852 51.1718 20.5902 50.2909 19.709C49.4099 18.8278 48.215 18.3327 46.969 18.3325C45.723 18.3324 44.5279 18.8272 43.6467 19.7082L21.4034 41.9565C21.0164 42.3423 20.7302 42.8174 20.5701 43.3398L18.3684 50.5932C18.3253 50.7373 18.3221 50.8904 18.359 51.0362C18.3959 51.1821 18.4716 51.3152 18.578 51.4215C18.6845 51.5278 18.8178 51.6033 18.9637 51.6399C19.1095 51.6766 19.2627 51.6731 19.4067 51.6298L26.6617 49.4298C27.1837 49.2711 27.6587 48.9866 28.0451 48.6015L50.2901 26.3532Z" stroke="white" stroke-width="2" stroke-linecap="round" stroke-linejoin="round"/>
<path d="M40 23.3333L46.6667 29.9999" stroke="white" stroke-width="2" stroke-linecap="round" stroke-linejoin="round"/>
<defs>
<filter id="filter0_i_51_84" x="0" y="0" width="70" height="71" filterUnits="userSpaceOnUse" color-interpolation-filters="sRGB">
<feFlood flood-opacity="0" result="BackgroundImageFix"/>
<feBlend mode="normal" in="SourceGraphic" in2="BackgroundImageFix" result="shape"/>
<feColorMatrix in="SourceAlpha" type="matrix" values="0 0 0 0 0 0 0 0 0 0 0 0 0 0 0 0 0 0 127 0" result="hardAlpha"/>
<feMorphology radius="2" operator="erode" in="SourceAlpha" result="effect1_innerShadow_51_84"/>
<feOffset dy="1"/>
<feGaussianBlur stdDeviation="11"/>
<feComposite in2="hardAlpha" operator="arithmetic" k2="-1" k3="1"/>
<feColorMatrix type="matrix" values="0 0 0 0 1 0 0 0 0 1 0 0 0 0 1 0 0 0 0.3 0"/>
<feBlend mode="normal" in2="shape" result="effect1_innerShadow_51_84"/>
</filter>
<linearGradient id="paint0_linear_51_84" x1="35" y1="0" x2="35" y2="78.5" gradientUnits="userSpaceOnUse">
<stop stop-color="#FF7A00"/>
<stop offset="1" stop-color="#1D1D1D"/>
</linearGradient>
</defs>
</svg>
