<svg width="60" height="60" viewBox="0 0 60 60" fill="none" xmlns="http://www.w3.org/2000/svg">
<g filter="url(#filter0_i_37_284)">
<path d="M52.5 40V20C52.4991 19.1232 52.2676 18.262 51.8288 17.5029C51.3901 16.7438 50.7593 16.1134 50 15.675L32.5 5.675C31.7399 5.23616 30.8777 5.00513 30 5.00513C29.1223 5.00513 28.2601 5.23616 27.5 5.675L10 15.675C9.24066 16.1134 8.60995 16.7438 8.17115 17.5029C7.73236 18.262 7.5009 19.1232 7.5 20V40C7.5009 40.8768 7.73236 41.738 8.17115 42.4971C8.60995 43.2562 9.24066 43.8866 10 44.325L27.5 54.325C28.2601 54.7638 29.1223 54.9949 30 54.9949C30.8777 54.9949 31.7399 54.7638 32.5 54.325L50 44.325C50.7593 43.8866 51.3901 43.2562 51.8288 42.4971C52.2676 41.738 52.4991 40.8768 52.5 40Z" stroke="url(#paint0_linear_37_284)" stroke-width="3" stroke-linecap="round" stroke-linejoin="round"/>
</g>
<defs>
<filter id="filter0_i_37_284" x="0" y="0" width="60" height="60" filterUnits="userSpaceOnUse" color-interpolation-filters="sRGB">
<feFlood flood-opacity="0" result="BackgroundImageFix"/>
<feBlend mode="normal" in="SourceGraphic" in2="BackgroundImageFix" result="shape"/>
<feColorMatrix in="SourceAlpha" type="matrix" values="0 0 0 0 0 0 0 0 0 0 0 0 0 0 0 0 0 0 127 0" result="hardAlpha"/>
<feOffset/>
<feGaussianBlur stdDeviation="1.5"/>
<feComposite in2="hardAlpha" operator="arithmetic" k2="-1" k3="1"/>
<feColorMatrix type="matrix" values="0 0 0 0 0.113725 0 0 0 0 0.113725 0 0 0 0 0.113725 0 0 0 1 0"/>
<feBlend mode="normal" in2="shape" result="effect1_innerShadow_37_284"/>
</filter>
<linearGradient id="paint0_linear_37_284" x1="30" y1="5.00513" x2="30" y2="54.9949" gradientUnits="userSpaceOnUse">
<stop stop-color="white"/>
<stop offset="1" stop-color="#7E7F81"/>
</linearGradient>
</defs>
</svg>
