<svg width="141" height="40" viewBox="0 0 141 40" fill="none" xmlns="http://www.w3.org/2000/svg">
<path d="M13.3086 26.1111C18.5588 26.1111 22.8148 20.639 22.8148 13.8888C22.8148 7.1387 18.5588 1.66663 13.3086 1.66663H0V26.1111H13.3086Z" fill="white"/>
<path d="M0 1.66663L22.8148 38.3333H7.60494L0 26.1111V1.66663Z" fill="white"/>
<path d="M15.0783 25.8997C14.505 26.0385 13.9134 26.1111 13.3086 26.1111H0V1.66663L15.0783 25.8997Z" fill="#7E7F81"/>
<mask id="path-4-outside-1_37_88" maskUnits="userSpaceOnUse" x="31.0911" y="9.81665" width="110" height="19" fill="black">
<rect fill="white" x="31.0911" y="9.81665" width="110" height="19"/>
<path d="M38.4611 27.7333C37.1302 27.7333 35.9869 27.3911 35.0311 26.7066C34.0874 26.0066 33.3614 25.0266 32.8533 23.7666C32.3451 22.4911 32.0911 20.99 32.0911 19.2633C32.0911 17.5366 32.3451 16.0433 32.8533 14.7833C33.3614 13.5233 34.0874 12.5511 35.0311 11.8667C35.9869 11.1667 37.1302 10.8167 38.4611 10.8167C39.3201 10.8167 40.1307 10.9878 40.8929 11.33C41.6672 11.6722 42.3024 12.1622 42.7985 12.8L42.0363 15.18C41.4918 14.5889 40.9353 14.1611 40.3666 13.8967C39.798 13.6167 39.187 13.4767 38.5337 13.4767C37.2391 13.4767 36.253 13.9822 35.5755 14.9933C34.898 15.9889 34.5592 17.4122 34.5592 19.2633C34.5592 21.1144 34.898 22.5455 35.5755 23.5566C36.253 24.5678 37.2391 25.0733 38.5337 25.0733C39.187 25.0733 39.798 24.9411 40.3666 24.6766C40.9353 24.3966 41.4918 23.9611 42.0363 23.37L42.7985 25.75C42.3024 26.3722 41.6672 26.8622 40.8929 27.22C40.1307 27.5622 39.3201 27.7333 38.4611 27.7333Z"/>
<path d="M48.0171 27.7333C47.0976 27.7333 46.299 27.4922 45.6215 27.01C44.944 26.5278 44.4177 25.8433 44.0426 24.9566C43.6675 24.0544 43.48 22.9966 43.48 21.7833C43.48 20.57 43.6675 19.52 44.0426 18.6333C44.4177 17.7466 44.944 17.0622 45.6215 16.58C46.299 16.0978 47.0976 15.8566 48.0171 15.8566C48.9366 15.8566 49.7351 16.0978 50.4126 16.58C51.0901 17.0622 51.6164 17.7466 51.9915 18.6333C52.3666 19.52 52.5541 20.57 52.5541 21.7833C52.5541 22.9966 52.3666 24.0544 51.9915 24.9566C51.6164 25.8433 51.0901 26.5278 50.4126 27.01C49.7351 27.4922 48.9366 27.7333 48.0171 27.7333ZM48.0171 25.5166C48.6946 25.5166 49.239 25.2055 49.6504 24.5833C50.0617 23.9455 50.2674 23.0122 50.2674 21.7833C50.2674 20.5389 50.0617 19.6133 49.6504 19.0066C49.239 18.3844 48.6946 18.0733 48.0171 18.0733C47.3395 18.0733 46.7951 18.3844 46.3837 19.0066C45.9724 19.6133 45.7667 20.5389 45.7667 21.7833C45.7667 23.0122 45.9724 23.9455 46.3837 24.5833C46.7951 25.2055 47.3395 25.5166 48.0171 25.5166Z"/>
<path d="M54.4628 27.5V16.09H56.6768V17.84C56.943 17.2178 57.312 16.7355 57.7839 16.3933C58.2557 16.0355 58.8002 15.8566 59.4172 15.8566C60.7481 15.8566 61.6192 16.6033 62.0305 18.0966C62.3088 17.3966 62.7081 16.8522 63.2283 16.4633C63.7486 16.0589 64.3414 15.8566 65.0068 15.8566C67.0031 15.8566 68.0013 17.42 68.0013 20.5466V27.5H65.7328V20.6633C65.7328 19.7922 65.6178 19.1544 65.388 18.75C65.1702 18.3455 64.7951 18.1433 64.2628 18.1433C63.6699 18.1433 63.2041 18.4155 62.8654 18.96C62.5266 19.4889 62.3572 20.2278 62.3572 21.1766V27.5H60.0887V20.6633C60.0887 19.7922 59.9738 19.1544 59.7439 18.75C59.5261 18.3455 59.1571 18.1433 58.6368 18.1433C58.044 18.1433 57.5782 18.4155 57.2394 18.96C56.9007 19.4889 56.7313 20.2278 56.7313 21.1766V27.5H54.4628Z"/>
<path d="M70.3778 27.5V16.09H72.5919V17.84C72.8581 17.2178 73.2271 16.7355 73.699 16.3933C74.1708 16.0355 74.7152 15.8566 75.3323 15.8566C76.6631 15.8566 77.5343 16.6033 77.9456 18.0966C78.2239 17.3966 78.6231 16.8522 79.1434 16.4633C79.6636 16.0589 80.2565 15.8566 80.9219 15.8566C82.9182 15.8566 83.9164 17.42 83.9164 20.5466V27.5H81.6478V20.6633C81.6478 19.7922 81.5329 19.1544 81.303 18.75C81.0853 18.3455 80.7102 18.1433 80.1778 18.1433C79.585 18.1433 79.1192 18.4155 78.7804 18.96C78.4417 19.4889 78.2723 20.2278 78.2723 21.1766V27.5H76.0038V20.6633C76.0038 19.7922 75.8888 19.1544 75.659 18.75C75.4412 18.3455 75.0722 18.1433 74.5519 18.1433C73.9591 18.1433 73.4933 18.4155 73.1545 18.96C72.8157 19.4889 72.6464 20.2278 72.6464 21.1766V27.5H70.3778Z"/>
<path d="M89.1785 27.7333C88.5372 27.7333 87.9625 27.5778 87.4544 27.2666C86.9583 26.94 86.5651 26.5044 86.2748 25.96C85.9965 25.4155 85.8574 24.8011 85.8574 24.1166C85.8574 23.2766 86.0267 22.6155 86.3655 22.1333C86.7043 21.6355 87.2548 21.2778 88.017 21.06C88.7792 20.8422 89.8016 20.7333 91.084 20.7333H91.7192V20.2433C91.7192 19.4655 91.5861 18.9055 91.32 18.5633C91.0538 18.2211 90.6061 18.05 89.977 18.05C89.4809 18.05 88.9728 18.1511 88.4525 18.3533C87.9323 18.54 87.406 18.8355 86.8737 19.24L86.2203 17.2566C86.5349 16.9766 86.9039 16.7355 87.3274 16.5333C87.7629 16.3155 88.2166 16.1522 88.6885 16.0433C89.1724 15.9189 89.6261 15.8566 90.0496 15.8566C91.3441 15.8566 92.306 16.2455 92.9351 17.0233C93.5643 17.7855 93.8788 18.9755 93.8788 20.5933V27.5H91.7555V25.68C91.5498 26.3178 91.2232 26.8233 90.7755 27.1966C90.3279 27.5544 89.7955 27.7333 89.1785 27.7333ZM89.6503 25.7266C90.2432 25.7266 90.7332 25.4622 91.1203 24.9333C91.5196 24.4044 91.7192 23.7355 91.7192 22.9266V22.4133H91.1022C89.9649 22.4133 89.1724 22.53 88.7248 22.7633C88.2892 22.9811 88.0714 23.3855 88.0714 23.9766C88.0714 24.49 88.2106 24.91 88.4888 25.2366C88.7671 25.5633 89.1543 25.7266 89.6503 25.7266Z"/>
<path d="M96.1814 27.5V16.09H98.3955V17.8633C98.6979 17.21 99.1032 16.7122 99.6114 16.37C100.132 16.0278 100.712 15.8566 101.354 15.8566C103.447 15.8566 104.493 17.42 104.493 20.5466V27.5H102.225V20.6866C102.225 19.8 102.092 19.1544 101.825 18.75C101.571 18.3455 101.172 18.1433 100.628 18.1433C99.9622 18.1433 99.4299 18.4155 99.0306 18.96C98.6435 19.4889 98.4499 20.1966 98.4499 21.0833V27.5H96.1814Z"/>
<path d="M110.209 27.7333C109.435 27.7333 108.751 27.4922 108.158 27.01C107.578 26.5278 107.124 25.8433 106.797 24.9566C106.471 24.0544 106.307 22.9966 106.307 21.7833C106.307 20.5544 106.471 19.5044 106.797 18.6333C107.124 17.7466 107.578 17.0622 108.158 16.58C108.751 16.0978 109.435 15.8566 110.209 15.8566C110.838 15.8566 111.407 16.0355 111.915 16.3933C112.423 16.7511 112.804 17.2255 113.058 17.8166V11.05H115.327V27.5H113.113V25.61C112.871 26.2633 112.49 26.7844 111.97 27.1733C111.449 27.5466 110.863 27.7333 110.209 27.7333ZM110.844 25.5166C111.522 25.5166 112.066 25.2055 112.478 24.5833C112.889 23.9455 113.095 23.0122 113.095 21.7833C113.095 20.5389 112.889 19.6133 112.478 19.0066C112.066 18.3844 111.522 18.0733 110.844 18.0733C110.167 18.0733 109.622 18.3844 109.211 19.0066C108.8 19.6133 108.594 20.5389 108.594 21.7833C108.594 23.0122 108.8 23.9455 109.211 24.5833C109.622 25.2055 110.167 25.5166 110.844 25.5166Z"/>
<path d="M121.109 26.5666V21.83H117.516V19.7766H121.109V15.18H122.779V19.7766H126.372V21.83H122.779V26.5666H121.109Z"/>
<path d="M128.779 27.5V11.05H134.332C135.736 11.05 136.818 11.4855 137.581 12.3566C138.343 13.2122 138.724 14.4178 138.724 15.9733C138.724 17.2022 138.476 18.2211 137.98 19.03C137.484 19.8233 136.77 20.36 135.838 20.64C136.455 20.8889 136.964 21.4878 137.363 22.4366L139.504 27.5H136.945L134.731 22.25C134.514 21.7366 134.253 21.3866 133.951 21.2C133.661 21.0133 133.286 20.92 132.826 20.92H131.102V27.5H128.779ZM131.102 18.7033H133.933C135.627 18.7033 136.474 17.8166 136.474 16.0433C136.474 14.2855 135.627 13.4067 133.933 13.4067H131.102V18.7033Z"/>
</mask>
<path d="M38.4611 27.7333C37.1302 27.7333 35.9869 27.3911 35.0311 26.7066C34.0874 26.0066 33.3614 25.0266 32.8533 23.7666C32.3451 22.4911 32.0911 20.99 32.0911 19.2633C32.0911 17.5366 32.3451 16.0433 32.8533 14.7833C33.3614 13.5233 34.0874 12.5511 35.0311 11.8667C35.9869 11.1667 37.1302 10.8167 38.4611 10.8167C39.3201 10.8167 40.1307 10.9878 40.8929 11.33C41.6672 11.6722 42.3024 12.1622 42.7985 12.8L42.0363 15.18C41.4918 14.5889 40.9353 14.1611 40.3666 13.8967C39.798 13.6167 39.187 13.4767 38.5337 13.4767C37.2391 13.4767 36.253 13.9822 35.5755 14.9933C34.898 15.9889 34.5592 17.4122 34.5592 19.2633C34.5592 21.1144 34.898 22.5455 35.5755 23.5566C36.253 24.5678 37.2391 25.0733 38.5337 25.0733C39.187 25.0733 39.798 24.9411 40.3666 24.6766C40.9353 24.3966 41.4918 23.9611 42.0363 23.37L42.7985 25.75C42.3024 26.3722 41.6672 26.8622 40.8929 27.22C40.1307 27.5622 39.3201 27.7333 38.4611 27.7333Z" fill="url(#paint0_linear_37_88)"/>
<path d="M48.0171 27.7333C47.0976 27.7333 46.299 27.4922 45.6215 27.01C44.944 26.5278 44.4177 25.8433 44.0426 24.9566C43.6675 24.0544 43.48 22.9966 43.48 21.7833C43.48 20.57 43.6675 19.52 44.0426 18.6333C44.4177 17.7466 44.944 17.0622 45.6215 16.58C46.299 16.0978 47.0976 15.8566 48.0171 15.8566C48.9366 15.8566 49.7351 16.0978 50.4126 16.58C51.0901 17.0622 51.6164 17.7466 51.9915 18.6333C52.3666 19.52 52.5541 20.57 52.5541 21.7833C52.5541 22.9966 52.3666 24.0544 51.9915 24.9566C51.6164 25.8433 51.0901 26.5278 50.4126 27.01C49.7351 27.4922 48.9366 27.7333 48.0171 27.7333ZM48.0171 25.5166C48.6946 25.5166 49.239 25.2055 49.6504 24.5833C50.0617 23.9455 50.2674 23.0122 50.2674 21.7833C50.2674 20.5389 50.0617 19.6133 49.6504 19.0066C49.239 18.3844 48.6946 18.0733 48.0171 18.0733C47.3395 18.0733 46.7951 18.3844 46.3837 19.0066C45.9724 19.6133 45.7667 20.5389 45.7667 21.7833C45.7667 23.0122 45.9724 23.9455 46.3837 24.5833C46.7951 25.2055 47.3395 25.5166 48.0171 25.5166Z" fill="url(#paint1_linear_37_88)"/>
<path d="M54.4628 27.5V16.09H56.6768V17.84C56.943 17.2178 57.312 16.7355 57.7839 16.3933C58.2557 16.0355 58.8002 15.8566 59.4172 15.8566C60.7481 15.8566 61.6192 16.6033 62.0305 18.0966C62.3088 17.3966 62.7081 16.8522 63.2283 16.4633C63.7486 16.0589 64.3414 15.8566 65.0068 15.8566C67.0031 15.8566 68.0013 17.42 68.0013 20.5466V27.5H65.7328V20.6633C65.7328 19.7922 65.6178 19.1544 65.388 18.75C65.1702 18.3455 64.7951 18.1433 64.2628 18.1433C63.6699 18.1433 63.2041 18.4155 62.8654 18.96C62.5266 19.4889 62.3572 20.2278 62.3572 21.1766V27.5H60.0887V20.6633C60.0887 19.7922 59.9738 19.1544 59.7439 18.75C59.5261 18.3455 59.1571 18.1433 58.6368 18.1433C58.044 18.1433 57.5782 18.4155 57.2394 18.96C56.9007 19.4889 56.7313 20.2278 56.7313 21.1766V27.5H54.4628Z" fill="url(#paint2_linear_37_88)"/>
<path d="M70.3778 27.5V16.09H72.5919V17.84C72.8581 17.2178 73.2271 16.7355 73.699 16.3933C74.1708 16.0355 74.7152 15.8566 75.3323 15.8566C76.6631 15.8566 77.5343 16.6033 77.9456 18.0966C78.2239 17.3966 78.6231 16.8522 79.1434 16.4633C79.6636 16.0589 80.2565 15.8566 80.9219 15.8566C82.9182 15.8566 83.9164 17.42 83.9164 20.5466V27.5H81.6478V20.6633C81.6478 19.7922 81.5329 19.1544 81.303 18.75C81.0853 18.3455 80.7102 18.1433 80.1778 18.1433C79.585 18.1433 79.1192 18.4155 78.7804 18.96C78.4417 19.4889 78.2723 20.2278 78.2723 21.1766V27.5H76.0038V20.6633C76.0038 19.7922 75.8888 19.1544 75.659 18.75C75.4412 18.3455 75.0722 18.1433 74.5519 18.1433C73.9591 18.1433 73.4933 18.4155 73.1545 18.96C72.8157 19.4889 72.6464 20.2278 72.6464 21.1766V27.5H70.3778Z" fill="url(#paint3_linear_37_88)"/>
<path d="M89.1785 27.7333C88.5372 27.7333 87.9625 27.5778 87.4544 27.2666C86.9583 26.94 86.5651 26.5044 86.2748 25.96C85.9965 25.4155 85.8574 24.8011 85.8574 24.1166C85.8574 23.2766 86.0267 22.6155 86.3655 22.1333C86.7043 21.6355 87.2548 21.2778 88.017 21.06C88.7792 20.8422 89.8016 20.7333 91.084 20.7333H91.7192V20.2433C91.7192 19.4655 91.5861 18.9055 91.32 18.5633C91.0538 18.2211 90.6061 18.05 89.977 18.05C89.4809 18.05 88.9728 18.1511 88.4525 18.3533C87.9323 18.54 87.406 18.8355 86.8737 19.24L86.2203 17.2566C86.5349 16.9766 86.9039 16.7355 87.3274 16.5333C87.7629 16.3155 88.2166 16.1522 88.6885 16.0433C89.1724 15.9189 89.6261 15.8566 90.0496 15.8566C91.3441 15.8566 92.306 16.2455 92.9351 17.0233C93.5643 17.7855 93.8788 18.9755 93.8788 20.5933V27.5H91.7555V25.68C91.5498 26.3178 91.2232 26.8233 90.7755 27.1966C90.3279 27.5544 89.7955 27.7333 89.1785 27.7333ZM89.6503 25.7266C90.2432 25.7266 90.7332 25.4622 91.1203 24.9333C91.5196 24.4044 91.7192 23.7355 91.7192 22.9266V22.4133H91.1022C89.9649 22.4133 89.1724 22.53 88.7248 22.7633C88.2892 22.9811 88.0714 23.3855 88.0714 23.9766C88.0714 24.49 88.2106 24.91 88.4888 25.2366C88.7671 25.5633 89.1543 25.7266 89.6503 25.7266Z" fill="url(#paint4_linear_37_88)"/>
<path d="M96.1814 27.5V16.09H98.3955V17.8633C98.6979 17.21 99.1032 16.7122 99.6114 16.37C100.132 16.0278 100.712 15.8566 101.354 15.8566C103.447 15.8566 104.493 17.42 104.493 20.5466V27.5H102.225V20.6866C102.225 19.8 102.092 19.1544 101.825 18.75C101.571 18.3455 101.172 18.1433 100.628 18.1433C99.9622 18.1433 99.4299 18.4155 99.0306 18.96C98.6435 19.4889 98.4499 20.1966 98.4499 21.0833V27.5H96.1814Z" fill="url(#paint5_linear_37_88)"/>
<path d="M110.209 27.7333C109.435 27.7333 108.751 27.4922 108.158 27.01C107.578 26.5278 107.124 25.8433 106.797 24.9566C106.471 24.0544 106.307 22.9966 106.307 21.7833C106.307 20.5544 106.471 19.5044 106.797 18.6333C107.124 17.7466 107.578 17.0622 108.158 16.58C108.751 16.0978 109.435 15.8566 110.209 15.8566C110.838 15.8566 111.407 16.0355 111.915 16.3933C112.423 16.7511 112.804 17.2255 113.058 17.8166V11.05H115.327V27.5H113.113V25.61C112.871 26.2633 112.49 26.7844 111.97 27.1733C111.449 27.5466 110.863 27.7333 110.209 27.7333ZM110.844 25.5166C111.522 25.5166 112.066 25.2055 112.478 24.5833C112.889 23.9455 113.095 23.0122 113.095 21.7833C113.095 20.5389 112.889 19.6133 112.478 19.0066C112.066 18.3844 111.522 18.0733 110.844 18.0733C110.167 18.0733 109.622 18.3844 109.211 19.0066C108.8 19.6133 108.594 20.5389 108.594 21.7833C108.594 23.0122 108.8 23.9455 109.211 24.5833C109.622 25.2055 110.167 25.5166 110.844 25.5166Z" fill="url(#paint6_linear_37_88)"/>
<path d="M121.109 26.5666V21.83H117.516V19.7766H121.109V15.18H122.779V19.7766H126.372V21.83H122.779V26.5666H121.109Z" fill="url(#paint7_linear_37_88)"/>
<path d="M128.779 27.5V11.05H134.332C135.736 11.05 136.818 11.4855 137.581 12.3566C138.343 13.2122 138.724 14.4178 138.724 15.9733C138.724 17.2022 138.476 18.2211 137.98 19.03C137.484 19.8233 136.77 20.36 135.838 20.64C136.455 20.8889 136.964 21.4878 137.363 22.4366L139.504 27.5H136.945L134.731 22.25C134.514 21.7366 134.253 21.3866 133.951 21.2C133.661 21.0133 133.286 20.92 132.826 20.92H131.102V27.5H128.779ZM131.102 18.7033H133.933C135.627 18.7033 136.474 17.8166 136.474 16.0433C136.474 14.2855 135.627 13.4067 133.933 13.4067H131.102V18.7033Z" fill="url(#paint8_linear_37_88)"/>
<path d="M38.4611 27.7333C37.1302 27.7333 35.9869 27.3911 35.0311 26.7066C34.0874 26.0066 33.3614 25.0266 32.8533 23.7666C32.3451 22.4911 32.0911 20.99 32.0911 19.2633C32.0911 17.5366 32.3451 16.0433 32.8533 14.7833C33.3614 13.5233 34.0874 12.5511 35.0311 11.8667C35.9869 11.1667 37.1302 10.8167 38.4611 10.8167C39.3201 10.8167 40.1307 10.9878 40.8929 11.33C41.6672 11.6722 42.3024 12.1622 42.7985 12.8L42.0363 15.18C41.4918 14.5889 40.9353 14.1611 40.3666 13.8967C39.798 13.6167 39.187 13.4767 38.5337 13.4767C37.2391 13.4767 36.253 13.9822 35.5755 14.9933C34.898 15.9889 34.5592 17.4122 34.5592 19.2633C34.5592 21.1144 34.898 22.5455 35.5755 23.5566C36.253 24.5678 37.2391 25.0733 38.5337 25.0733C39.187 25.0733 39.798 24.9411 40.3666 24.6766C40.9353 24.3966 41.4918 23.9611 42.0363 23.37L42.7985 25.75C42.3024 26.3722 41.6672 26.8622 40.8929 27.22C40.1307 27.5622 39.3201 27.7333 38.4611 27.7333Z" stroke="url(#paint9_linear_37_88)" mask="url(#path-4-outside-1_37_88)"/>
<path d="M48.0171 27.7333C47.0976 27.7333 46.299 27.4922 45.6215 27.01C44.944 26.5278 44.4177 25.8433 44.0426 24.9566C43.6675 24.0544 43.48 22.9966 43.48 21.7833C43.48 20.57 43.6675 19.52 44.0426 18.6333C44.4177 17.7466 44.944 17.0622 45.6215 16.58C46.299 16.0978 47.0976 15.8566 48.0171 15.8566C48.9366 15.8566 49.7351 16.0978 50.4126 16.58C51.0901 17.0622 51.6164 17.7466 51.9915 18.6333C52.3666 19.52 52.5541 20.57 52.5541 21.7833C52.5541 22.9966 52.3666 24.0544 51.9915 24.9566C51.6164 25.8433 51.0901 26.5278 50.4126 27.01C49.7351 27.4922 48.9366 27.7333 48.0171 27.7333ZM48.0171 25.5166C48.6946 25.5166 49.239 25.2055 49.6504 24.5833C50.0617 23.9455 50.2674 23.0122 50.2674 21.7833C50.2674 20.5389 50.0617 19.6133 49.6504 19.0066C49.239 18.3844 48.6946 18.0733 48.0171 18.0733C47.3395 18.0733 46.7951 18.3844 46.3837 19.0066C45.9724 19.6133 45.7667 20.5389 45.7667 21.7833C45.7667 23.0122 45.9724 23.9455 46.3837 24.5833C46.7951 25.2055 47.3395 25.5166 48.0171 25.5166Z" stroke="url(#paint10_linear_37_88)" mask="url(#path-4-outside-1_37_88)"/>
<path d="M54.4628 27.5V16.09H56.6768V17.84C56.943 17.2178 57.312 16.7355 57.7839 16.3933C58.2557 16.0355 58.8002 15.8566 59.4172 15.8566C60.7481 15.8566 61.6192 16.6033 62.0305 18.0966C62.3088 17.3966 62.7081 16.8522 63.2283 16.4633C63.7486 16.0589 64.3414 15.8566 65.0068 15.8566C67.0031 15.8566 68.0013 17.42 68.0013 20.5466V27.5H65.7328V20.6633C65.7328 19.7922 65.6178 19.1544 65.388 18.75C65.1702 18.3455 64.7951 18.1433 64.2628 18.1433C63.6699 18.1433 63.2041 18.4155 62.8654 18.96C62.5266 19.4889 62.3572 20.2278 62.3572 21.1766V27.5H60.0887V20.6633C60.0887 19.7922 59.9738 19.1544 59.7439 18.75C59.5261 18.3455 59.1571 18.1433 58.6368 18.1433C58.044 18.1433 57.5782 18.4155 57.2394 18.96C56.9007 19.4889 56.7313 20.2278 56.7313 21.1766V27.5H54.4628Z" stroke="url(#paint11_linear_37_88)" mask="url(#path-4-outside-1_37_88)"/>
<path d="M70.3778 27.5V16.09H72.5919V17.84C72.8581 17.2178 73.2271 16.7355 73.699 16.3933C74.1708 16.0355 74.7152 15.8566 75.3323 15.8566C76.6631 15.8566 77.5343 16.6033 77.9456 18.0966C78.2239 17.3966 78.6231 16.8522 79.1434 16.4633C79.6636 16.0589 80.2565 15.8566 80.9219 15.8566C82.9182 15.8566 83.9164 17.42 83.9164 20.5466V27.5H81.6478V20.6633C81.6478 19.7922 81.5329 19.1544 81.303 18.75C81.0853 18.3455 80.7102 18.1433 80.1778 18.1433C79.585 18.1433 79.1192 18.4155 78.7804 18.96C78.4417 19.4889 78.2723 20.2278 78.2723 21.1766V27.5H76.0038V20.6633C76.0038 19.7922 75.8888 19.1544 75.659 18.75C75.4412 18.3455 75.0722 18.1433 74.5519 18.1433C73.9591 18.1433 73.4933 18.4155 73.1545 18.96C72.8157 19.4889 72.6464 20.2278 72.6464 21.1766V27.5H70.3778Z" stroke="url(#paint12_linear_37_88)" mask="url(#path-4-outside-1_37_88)"/>
<path d="M89.1785 27.7333C88.5372 27.7333 87.9625 27.5778 87.4544 27.2666C86.9583 26.94 86.5651 26.5044 86.2748 25.96C85.9965 25.4155 85.8574 24.8011 85.8574 24.1166C85.8574 23.2766 86.0267 22.6155 86.3655 22.1333C86.7043 21.6355 87.2548 21.2778 88.017 21.06C88.7792 20.8422 89.8016 20.7333 91.084 20.7333H91.7192V20.2433C91.7192 19.4655 91.5861 18.9055 91.32 18.5633C91.0538 18.2211 90.6061 18.05 89.977 18.05C89.4809 18.05 88.9728 18.1511 88.4525 18.3533C87.9323 18.54 87.406 18.8355 86.8737 19.24L86.2203 17.2566C86.5349 16.9766 86.9039 16.7355 87.3274 16.5333C87.7629 16.3155 88.2166 16.1522 88.6885 16.0433C89.1724 15.9189 89.6261 15.8566 90.0496 15.8566C91.3441 15.8566 92.306 16.2455 92.9351 17.0233C93.5643 17.7855 93.8788 18.9755 93.8788 20.5933V27.5H91.7555V25.68C91.5498 26.3178 91.2232 26.8233 90.7755 27.1966C90.3279 27.5544 89.7955 27.7333 89.1785 27.7333ZM89.6503 25.7266C90.2432 25.7266 90.7332 25.4622 91.1203 24.9333C91.5196 24.4044 91.7192 23.7355 91.7192 22.9266V22.4133H91.1022C89.9649 22.4133 89.1724 22.53 88.7248 22.7633C88.2892 22.9811 88.0714 23.3855 88.0714 23.9766C88.0714 24.49 88.2106 24.91 88.4888 25.2366C88.7671 25.5633 89.1543 25.7266 89.6503 25.7266Z" stroke="url(#paint13_linear_37_88)" mask="url(#path-4-outside-1_37_88)"/>
<path d="M96.1814 27.5V16.09H98.3955V17.8633C98.6979 17.21 99.1032 16.7122 99.6114 16.37C100.132 16.0278 100.712 15.8566 101.354 15.8566C103.447 15.8566 104.493 17.42 104.493 20.5466V27.5H102.225V20.6866C102.225 19.8 102.092 19.1544 101.825 18.75C101.571 18.3455 101.172 18.1433 100.628 18.1433C99.9622 18.1433 99.4299 18.4155 99.0306 18.96C98.6435 19.4889 98.4499 20.1966 98.4499 21.0833V27.5H96.1814Z" stroke="url(#paint14_linear_37_88)" mask="url(#path-4-outside-1_37_88)"/>
<path d="M110.209 27.7333C109.435 27.7333 108.751 27.4922 108.158 27.01C107.578 26.5278 107.124 25.8433 106.797 24.9566C106.471 24.0544 106.307 22.9966 106.307 21.7833C106.307 20.5544 106.471 19.5044 106.797 18.6333C107.124 17.7466 107.578 17.0622 108.158 16.58C108.751 16.0978 109.435 15.8566 110.209 15.8566C110.838 15.8566 111.407 16.0355 111.915 16.3933C112.423 16.7511 112.804 17.2255 113.058 17.8166V11.05H115.327V27.5H113.113V25.61C112.871 26.2633 112.49 26.7844 111.97 27.1733C111.449 27.5466 110.863 27.7333 110.209 27.7333ZM110.844 25.5166C111.522 25.5166 112.066 25.2055 112.478 24.5833C112.889 23.9455 113.095 23.0122 113.095 21.7833C113.095 20.5389 112.889 19.6133 112.478 19.0066C112.066 18.3844 111.522 18.0733 110.844 18.0733C110.167 18.0733 109.622 18.3844 109.211 19.0066C108.8 19.6133 108.594 20.5389 108.594 21.7833C108.594 23.0122 108.8 23.9455 109.211 24.5833C109.622 25.2055 110.167 25.5166 110.844 25.5166Z" stroke="url(#paint15_linear_37_88)" mask="url(#path-4-outside-1_37_88)"/>
<path d="M121.109 26.5666V21.83H117.516V19.7766H121.109V15.18H122.779V19.7766H126.372V21.83H122.779V26.5666H121.109Z" stroke="url(#paint16_linear_37_88)" mask="url(#path-4-outside-1_37_88)"/>
<path d="M128.779 27.5V11.05H134.332C135.736 11.05 136.818 11.4855 137.581 12.3566C138.343 13.2122 138.724 14.4178 138.724 15.9733C138.724 17.2022 138.476 18.2211 137.98 19.03C137.484 19.8233 136.77 20.36 135.838 20.64C136.455 20.8889 136.964 21.4878 137.363 22.4366L139.504 27.5H136.945L134.731 22.25C134.514 21.7366 134.253 21.3866 133.951 21.2C133.661 21.0133 133.286 20.92 132.826 20.92H131.102V27.5H128.779ZM131.102 18.7033H133.933C135.627 18.7033 136.474 17.8166 136.474 16.0433C136.474 14.2855 135.627 13.4067 133.933 13.4067H131.102V18.7033Z" stroke="url(#paint17_linear_37_88)" mask="url(#path-4-outside-1_37_88)"/>
<defs>
<linearGradient id="paint0_linear_37_88" x1="85.5555" y1="10.8333" x2="206.194" y2="40.3676" gradientUnits="userSpaceOnUse">
<stop stop-color="white"/>
<stop offset="1" stop-color="#999999"/>
</linearGradient>
<linearGradient id="paint1_linear_37_88" x1="85.5555" y1="10.8333" x2="206.194" y2="40.3676" gradientUnits="userSpaceOnUse">
<stop stop-color="white"/>
<stop offset="1" stop-color="#999999"/>
</linearGradient>
<linearGradient id="paint2_linear_37_88" x1="85.5555" y1="10.8333" x2="206.194" y2="40.3676" gradientUnits="userSpaceOnUse">
<stop stop-color="white"/>
<stop offset="1" stop-color="#999999"/>
</linearGradient>
<linearGradient id="paint3_linear_37_88" x1="85.5555" y1="10.8333" x2="206.194" y2="40.3676" gradientUnits="userSpaceOnUse">
<stop stop-color="white"/>
<stop offset="1" stop-color="#999999"/>
</linearGradient>
<linearGradient id="paint4_linear_37_88" x1="85.5555" y1="10.8333" x2="206.194" y2="40.3676" gradientUnits="userSpaceOnUse">
<stop stop-color="white"/>
<stop offset="1" stop-color="#999999"/>
</linearGradient>
<linearGradient id="paint5_linear_37_88" x1="85.5555" y1="10.8333" x2="206.194" y2="40.3676" gradientUnits="userSpaceOnUse">
<stop stop-color="white"/>
<stop offset="1" stop-color="#999999"/>
</linearGradient>
<linearGradient id="paint6_linear_37_88" x1="85.5555" y1="10.8333" x2="206.194" y2="40.3676" gradientUnits="userSpaceOnUse">
<stop stop-color="white"/>
<stop offset="1" stop-color="#999999"/>
</linearGradient>
<linearGradient id="paint7_linear_37_88" x1="85.5555" y1="10.8333" x2="206.194" y2="40.3676" gradientUnits="userSpaceOnUse">
<stop stop-color="white"/>
<stop offset="1" stop-color="#999999"/>
</linearGradient>
<linearGradient id="paint8_linear_37_88" x1="85.5555" y1="10.8333" x2="206.194" y2="40.3676" gradientUnits="userSpaceOnUse">
<stop stop-color="white"/>
<stop offset="1" stop-color="#999999"/>
</linearGradient>
<linearGradient id="paint9_linear_37_88" x1="85.5555" y1="10.8333" x2="171.433" y2="68.8225" gradientUnits="userSpaceOnUse">
<stop stop-color="white"/>
<stop offset="1" stop-color="#FF7A00"/>
</linearGradient>
<linearGradient id="paint10_linear_37_88" x1="85.5555" y1="10.8333" x2="171.433" y2="68.8225" gradientUnits="userSpaceOnUse">
<stop stop-color="white"/>
<stop offset="1" stop-color="#FF7A00"/>
</linearGradient>
<linearGradient id="paint11_linear_37_88" x1="85.5555" y1="10.8333" x2="171.433" y2="68.8225" gradientUnits="userSpaceOnUse">
<stop stop-color="white"/>
<stop offset="1" stop-color="#FF7A00"/>
</linearGradient>
<linearGradient id="paint12_linear_37_88" x1="85.5555" y1="10.8333" x2="171.433" y2="68.8225" gradientUnits="userSpaceOnUse">
<stop stop-color="white"/>
<stop offset="1" stop-color="#FF7A00"/>
</linearGradient>
<linearGradient id="paint13_linear_37_88" x1="85.5555" y1="10.8333" x2="171.433" y2="68.8225" gradientUnits="userSpaceOnUse">
<stop stop-color="white"/>
<stop offset="1" stop-color="#FF7A00"/>
</linearGradient>
<linearGradient id="paint14_linear_37_88" x1="85.5555" y1="10.8333" x2="171.433" y2="68.8225" gradientUnits="userSpaceOnUse">
<stop stop-color="white"/>
<stop offset="1" stop-color="#FF7A00"/>
</linearGradient>
<linearGradient id="paint15_linear_37_88" x1="85.5555" y1="10.8333" x2="171.433" y2="68.8225" gradientUnits="userSpaceOnUse">
<stop stop-color="white"/>
<stop offset="1" stop-color="#FF7A00"/>
</linearGradient>
<linearGradient id="paint16_linear_37_88" x1="85.5555" y1="10.8333" x2="171.433" y2="68.8225" gradientUnits="userSpaceOnUse">
<stop stop-color="white"/>
<stop offset="1" stop-color="#FF7A00"/>
</linearGradient>
<linearGradient id="paint17_linear_37_88" x1="85.5555" y1="10.8333" x2="171.433" y2="68.8225" gradientUnits="userSpaceOnUse">
<stop stop-color="white"/>
<stop offset="1" stop-color="#FF7A00"/>
</linearGradient>
</defs>
</svg>
