<svg width="249" height="198" viewBox="0 0 249 198" fill="none" xmlns="http://www.w3.org/2000/svg">
<g filter="url(#filter0_i_51_53)">
<rect x="101" width="45.0909" height="45.0286" rx="10" fill="url(#paint0_linear_51_53)"/>
</g>
<g filter="url(#filter1_i_51_53)">
<rect x="152.182" width="45.0909" height="45.0286" rx="10" fill="url(#paint1_linear_51_53)"/>
</g>
<g filter="url(#filter2_i_51_53)">
<rect x="202.909" width="45.0909" height="45.0286" rx="10" fill="url(#paint2_linear_51_53)"/>
</g>
<g filter="url(#filter3_i_51_53)">
<rect x="51" width="45.0909" height="45.0286" rx="10" fill="url(#paint3_linear_51_53)"/>
</g>
<g filter="url(#filter4_i_51_53)">
<rect width="45.0909" height="45.0286" rx="10" fill="url(#paint4_linear_51_53)"/>
</g>
<g filter="url(#filter5_i_51_53)">
<rect x="101" y="51" width="45.0909" height="45.0286" rx="10" fill="url(#paint5_linear_51_53)"/>
</g>
<g filter="url(#filter6_i_51_53)">
<rect x="152" y="51" width="45.0909" height="45.0286" rx="10" fill="url(#paint6_linear_51_53)"/>
</g>
<g filter="url(#filter7_i_51_53)">
<rect x="203" y="51" width="45.0909" height="45.0286" rx="10" fill="url(#paint7_linear_51_53)"/>
</g>
<g filter="url(#filter8_i_51_53)">
<rect x="51" y="51" width="45.0909" height="45.0286" rx="10" fill="url(#paint8_linear_51_53)"/>
</g>
<g filter="url(#filter9_i_51_53)">
<rect y="51" width="45.0909" height="45.0286" rx="10" fill="url(#paint9_linear_51_53)"/>
</g>
<g filter="url(#filter10_i_51_53)">
<rect x="101" y="101" width="45.0909" height="45.0286" rx="10" fill="url(#paint10_linear_51_53)"/>
</g>
<g filter="url(#filter11_i_51_53)">
<rect x="152" y="101" width="45.0909" height="45.0286" rx="10" fill="url(#paint11_linear_51_53)"/>
</g>
<g filter="url(#filter12_i_51_53)">
<rect x="203" y="101" width="45.0909" height="45.0286" rx="10" fill="url(#paint12_linear_51_53)"/>
</g>
<g filter="url(#filter13_i_51_53)">
<rect x="51" y="101" width="45.0909" height="45.0286" rx="10" fill="url(#paint13_linear_51_53)"/>
</g>
<g filter="url(#filter14_i_51_53)">
<rect y="101" width="45.0909" height="45.0286" rx="10" fill="url(#paint14_linear_51_53)"/>
</g>
<g filter="url(#filter15_i_51_53)">
<rect x="101" y="152" width="45.0909" height="45.0286" rx="10" fill="url(#paint15_linear_51_53)"/>
</g>
<g filter="url(#filter16_i_51_53)">
<rect x="152" y="152" width="45.0909" height="45.0286" rx="10" fill="url(#paint16_linear_51_53)"/>
</g>
<g filter="url(#filter17_i_51_53)">
<rect x="203" y="152" width="45.0909" height="45.0286" rx="10" fill="url(#paint17_linear_51_53)"/>
</g>
<g filter="url(#filter18_i_51_53)">
<rect x="51" y="152" width="45.0909" height="45.0286" rx="10" fill="url(#paint18_linear_51_53)"/>
</g>
<path d="M14 18V24H20" stroke="white" stroke-linecap="round" stroke-linejoin="round"/>
<path d="M32 28C32 25.6131 31.0518 23.3239 29.364 21.636C27.6761 19.9482 25.3869 19 23 19C20.7851 19.0023 18.6489 19.8212 17 21.3L14 24" stroke="white" stroke-linecap="round" stroke-linejoin="round"/>
<g filter="url(#filter19_i_51_53)">
<rect y="152" width="45.0909" height="45.0286" rx="10" fill="url(#paint19_linear_51_53)"/>
</g>
<path d="M184.42 71.9219C184.599 71.8429 184.751 71.7131 184.857 71.5487C184.963 71.3842 185.018 71.1923 185.016 70.9966C185.014 70.801 184.955 70.6102 184.845 70.448C184.736 70.2857 184.581 70.1591 184.401 70.0839L175.83 66.1799C175.569 66.061 175.286 65.9995 175 65.9995C174.713 65.9995 174.43 66.061 174.17 66.1799L165.6 70.0799C165.422 70.1578 165.27 70.286 165.164 70.4487C165.058 70.6114 165.001 70.8015 165.001 70.9959C165.001 71.1902 165.058 71.3804 165.164 71.5431C165.27 71.7057 165.422 71.8339 165.6 71.9119L174.17 75.8199C174.43 75.9387 174.713 76.0002 175 76.0002C175.286 76.0002 175.569 75.9387 175.83 75.8199L184.42 71.9219Z" stroke="white" stroke-linecap="round" stroke-linejoin="round"/>
<path d="M185 71V77" stroke="white" stroke-linecap="round" stroke-linejoin="round"/>
<path d="M169 73.5V77C169 77.7956 169.632 78.5587 170.757 79.1213C171.883 79.6839 173.409 80 175 80C176.591 80 178.117 79.6839 179.243 79.1213C180.368 78.5587 181 77.7956 181 77V73.5" stroke="white" stroke-linecap="round" stroke-linejoin="round"/>
<path d="M79 81V71" stroke="white" stroke-linecap="round" stroke-linejoin="round"/>
<path d="M73 81V65" stroke="white" stroke-linecap="round" stroke-linejoin="round"/>
<path d="M67 81V75" stroke="white" stroke-linecap="round" stroke-linejoin="round"/>
<path d="M115 165V181C115 181.53 115.211 182.039 115.586 182.414C115.961 182.789 116.47 183 117 183H133" stroke="white" stroke-linecap="round" stroke-linejoin="round"/>
<path d="M119 178C119.5 176 120.5 171 123 171C125 171 125 174 127 174C129.5 174 131.5 169 132 167" stroke="white" stroke-linecap="round" stroke-linejoin="round"/>
<path d="M227.536 133.686C227.574 133.781 227.64 133.862 227.725 133.918C227.81 133.974 227.911 134.002 228.013 134C228.115 133.997 228.213 133.963 228.296 133.903C228.378 133.843 228.44 133.759 228.473 133.662L234.973 114.662C235.005 114.573 235.011 114.478 234.99 114.386C234.97 114.294 234.924 114.209 234.857 114.143C234.79 114.076 234.706 114.03 234.614 114.009C234.522 113.989 234.426 113.995 234.338 114.027L215.338 120.527C215.241 120.56 215.157 120.622 215.097 120.704C215.037 120.786 215.003 120.885 215 120.987C214.998 121.089 215.026 121.19 215.082 121.275C215.138 121.36 215.219 121.426 215.314 121.464L223.244 124.644C223.494 124.744 223.722 124.895 223.913 125.085C224.104 125.276 224.255 125.504 224.356 125.754L227.536 133.686Z" stroke="white" stroke-linecap="round" stroke-linejoin="round"/>
<path d="M234.854 114.147L223.914 125.086" stroke="white" stroke-linecap="round" stroke-linejoin="round"/>
<path d="M81 116H65C63.8954 116 63 116.895 63 118V130C63 131.105 63.8954 132 65 132H81C82.1046 132 83 131.105 83 130V118C83 116.895 82.1046 116 81 116Z" stroke="white" stroke-linecap="round" stroke-linejoin="round"/>
<path d="M67 120H67.01" stroke="white" stroke-linecap="round" stroke-linejoin="round"/>
<path d="M71 120H71.01" stroke="white" stroke-linecap="round" stroke-linejoin="round"/>
<path d="M75 120H75.01" stroke="white" stroke-linecap="round" stroke-linejoin="round"/>
<path d="M17 114V128C17 128.53 17.2107 129.039 17.5858 129.414C17.9609 129.789 18.4696 130 19 130H33" stroke="white" stroke-linecap="round" stroke-linejoin="round"/>
<path d="M29 134V120C29 119.47 28.7893 118.961 28.4142 118.586C28.0391 118.211 27.5304 118 27 118H13" stroke="white" stroke-linecap="round" stroke-linejoin="round"/>
<path d="M115 69L120 74L115 79V69Z" stroke="white" stroke-linecap="round" stroke-linejoin="round"/>
<path d="M133 69L128 74L133 79V69Z" stroke="white" stroke-linecap="round" stroke-linejoin="round"/>
<path d="M124 82V84" stroke="white" stroke-linecap="round" stroke-linejoin="round"/>
<path d="M124 76V78" stroke="white" stroke-linecap="round" stroke-linejoin="round"/>
<path d="M124 70V72" stroke="white" stroke-linecap="round" stroke-linejoin="round"/>
<path d="M124 64V66" stroke="white" stroke-linecap="round" stroke-linejoin="round"/>
<path d="M23.83 63.1799C23.5694 63.061 23.2864 62.9995 23 62.9995C22.7136 62.9995 22.4305 63.061 22.17 63.1799L13.6 67.0799C13.4225 67.1581 13.2716 67.2863 13.1657 67.4487C13.0598 67.6112 13.0034 67.8009 13.0034 67.9949C13.0034 68.1888 13.0598 68.3786 13.1657 68.541C13.2716 68.7035 13.4225 68.8316 13.6 68.9099L22.18 72.8199C22.4405 72.9387 22.7236 73.0002 23.01 73.0002C23.2964 73.0002 23.5794 72.9387 23.84 72.8199L32.42 68.9199C32.5974 68.8416 32.7483 68.7135 32.8542 68.551C32.9601 68.3886 33.0165 68.1988 33.0165 68.0049C33.0165 67.8109 32.9601 67.6212 32.8542 67.4587C32.7483 67.2963 32.5974 67.1681 32.42 67.0899L23.83 63.1799Z" stroke="white" stroke-linecap="round" stroke-linejoin="round"/>
<path d="M33 78.6499L23.83 82.8099C23.5694 82.9288 23.2864 82.9903 23 82.9903C22.7136 82.9903 22.4306 82.9288 22.17 82.8099L13 78.6499" stroke="white" stroke-linecap="round" stroke-linejoin="round"/>
<path d="M33 73.6499L23.83 77.8099C23.5694 77.9288 23.2864 77.9903 23 77.9903C22.7136 77.9903 22.4306 77.9288 22.17 77.8099L13 73.6499" stroke="white" stroke-linecap="round" stroke-linejoin="round"/>
<path d="M176.5 19C176.776 19 177 18.7761 177 18.5C177 18.2239 176.776 18 176.5 18C176.224 18 176 18.2239 176 18.5C176 18.7761 176.224 19 176.5 19Z" stroke="white" stroke-linecap="round" stroke-linejoin="round"/>
<path d="M180.5 23C180.776 23 181 22.7761 181 22.5C181 22.2239 180.776 22 180.5 22C180.224 22 180 22.2239 180 22.5C180 22.7761 180.224 23 180.5 23Z" stroke="white" stroke-linecap="round" stroke-linejoin="round"/>
<path d="M171.5 20C171.776 20 172 19.7761 172 19.5C172 19.2239 171.776 19 171.5 19C171.224 19 171 19.2239 171 19.5C171 19.7761 171.224 20 171.5 20Z" stroke="white" stroke-linecap="round" stroke-linejoin="round"/>
<path d="M169.5 25C169.776 25 170 24.7761 170 24.5C170 24.2239 169.776 24 169.5 24C169.224 24 169 24.2239 169 24.5C169 24.7761 169.224 25 169.5 25Z" stroke="white" stroke-linecap="round" stroke-linejoin="round"/>
<path d="M175 14C169.5 14 165 18.5 165 24C165 29.5 169.5 34 175 34C175.926 34 176.648 33.254 176.648 32.312C176.648 31.875 176.468 31.477 176.211 31.187C175.921 30.898 175.773 30.535 175.773 30.062C175.769 29.8419 175.81 29.6233 175.892 29.4192C175.975 29.2151 176.097 29.0298 176.253 28.8741C176.409 28.7185 176.594 28.5957 176.798 28.5132C177.002 28.4308 177.221 28.3902 177.441 28.394H179.437C182.488 28.394 184.992 25.891 184.992 22.84C184.965 18.012 180.461 14 175 14Z" stroke="white" stroke-linecap="round" stroke-linejoin="round"/>
<path d="M84 23C84 24.3261 83.4732 25.5979 82.5355 26.5355C81.5979 27.4732 80.3261 28 79 28C77.6739 28 76.4021 27.4732 75.4645 26.5355C74.5268 25.5979 74 24.3261 74 23C74 21.6739 73.4732 20.4021 72.5355 19.4645C71.5979 18.5268 70.3261 18 69 18C67.6739 18 66.4021 18.5268 65.4645 19.4645C64.5268 20.4021 64 21.6739 64 23" stroke="white" stroke-linecap="round" stroke-linejoin="round"/>
<path d="M69.0001 31.6999C67.8465 31.0369 67.0034 29.9427 66.6565 28.6581C66.3095 27.3734 66.4871 26.0036 67.1501 24.8499C67.8132 23.6962 68.9074 22.8532 70.192 22.5062C71.4766 22.1593 72.8465 22.3369 74.0001 22.9999C74.5648 23.3282 75.1886 23.5421 75.836 23.6293C76.4833 23.7165 77.1415 23.6754 77.7729 23.5082C78.4044 23.3411 78.9967 23.0512 79.5161 22.6551C80.0355 22.2591 80.4718 21.7646 80.8001 21.1999C81.1284 20.6352 81.3423 20.0114 81.4295 19.3641C81.5168 18.7167 81.4756 18.0585 81.3085 17.4271C81.1413 16.7957 80.8514 16.2033 80.4554 15.6839C80.0593 15.1645 79.5648 14.7282 79.0001 14.3999" stroke="white" stroke-linecap="round" stroke-linejoin="round"/>
<path d="M69 14.2999C70.1404 13.6369 71.4975 13.454 72.7728 13.7916C74.048 14.1292 75.137 14.9595 75.8 16.0999C76.463 17.2404 76.6459 18.5975 76.3083 19.8727C75.9708 21.148 75.1404 22.2369 74 22.8999C72.8596 23.563 72.0292 24.6519 71.6917 25.9271C71.3541 27.2024 71.537 28.5595 72.2 29.6999C72.863 30.8404 73.952 31.6707 75.2272 32.0082C76.5025 32.3458 77.8596 32.163 79 31.4999" stroke="white" stroke-linecap="round" stroke-linejoin="round"/>
<path d="M74 33C79.5228 33 84 28.5228 84 23C84 17.4772 79.5228 13 74 13C68.4772 13 64 17.4772 64 23C64 28.5228 68.4772 33 74 33Z" stroke="white" stroke-linecap="round" stroke-linejoin="round"/>
<path d="M127.707 32.2928C127.519 32.4803 127.265 32.5856 127 32.5856C126.735 32.5856 126.48 32.4803 126.293 32.2928L124.707 30.7069C124.519 30.5193 124.414 30.265 124.414 29.9998C124.414 29.7347 124.519 29.4804 124.707 29.2928L130.293 23.7068C130.48 23.5194 130.735 23.4141 131 23.4141C131.265 23.4141 131.519 23.5194 131.707 23.7068L133.293 25.2928C133.48 25.4804 133.586 25.7347 133.586 25.9998C133.586 26.265 133.48 26.5193 133.293 26.7068L127.707 32.2928Z" stroke="white" stroke-linecap="round" stroke-linejoin="round"/>
<path d="M130 24L128.625 17.126C128.588 16.939 128.498 16.7666 128.365 16.6291C128.233 16.4916 128.064 16.3947 127.879 16.35L115.235 13.028C115.068 12.9877 114.894 12.9909 114.729 13.0373C114.564 13.0837 114.414 13.1717 114.293 13.2929C114.172 13.4141 114.084 13.5644 114.037 13.7293C113.991 13.8943 113.988 14.0684 114.028 14.235L117.35 26.879C117.395 27.0644 117.492 27.2331 117.629 27.3653C117.767 27.4975 117.939 27.5876 118.126 27.625L125 29" stroke="white" stroke-linecap="round" stroke-linejoin="round"/>
<path d="M114.3 13.3L121.586 20.586" stroke="white" stroke-linecap="round" stroke-linejoin="round"/>
<path d="M123 24C124.105 24 125 23.1046 125 22C125 20.8954 124.105 20 123 20C121.895 20 121 20.8954 121 22C121 23.1046 121.895 24 123 24Z" stroke="white" stroke-linecap="round" stroke-linejoin="round"/>
<path d="M168 115V131H184" stroke="white" stroke-linecap="round" stroke-linejoin="round"/>
<path d="M168 131L174 125" stroke="white" stroke-linecap="round" stroke-linejoin="round"/>
<path d="M165 118L168 115L171 118" stroke="white" stroke-linecap="round" stroke-linejoin="round"/>
<path d="M181 128L184 131L181 134" stroke="white" stroke-linecap="round" stroke-linejoin="round"/>
<path d="M225 65H218C217.47 65 216.961 65.2107 216.586 65.5858C216.211 65.9609 216 66.4696 216 67V81C216 81.5304 216.211 82.0391 216.586 82.4142C216.961 82.7893 217.47 83 218 83H232C232.53 83 233.039 82.7893 233.414 82.4142C233.789 82.0391 234 81.5304 234 81V74" stroke="white" stroke-linecap="round" stroke-linejoin="round"/>
<path d="M227 77H222V72" stroke="white" stroke-linecap="round" stroke-linejoin="round"/>
<path d="M229 65H234V70" stroke="white" stroke-linecap="round" stroke-linejoin="round"/>
<path d="M234 65L222 77" stroke="white" stroke-linecap="round" stroke-linejoin="round"/>
<path d="M234 29V31C234 31.5304 233.789 32.0391 233.414 32.4142C233.039 32.7893 232.53 33 232 33H218C217.47 33 216.961 32.7893 216.586 32.4142C216.211 32.0391 216 31.5304 216 31V29" stroke="white" stroke-linecap="round" stroke-linejoin="round"/>
<path d="M234 19V17C234 16.4696 233.789 15.9609 233.414 15.5858C233.039 15.2107 232.53 15 232 15H218C217.47 15 216.961 15.2107 216.586 15.5858C216.211 15.9609 216 16.4696 216 17V19" stroke="white" stroke-linecap="round" stroke-linejoin="round"/>
<path d="M225 25C225.552 25 226 24.5523 226 24C226 23.4477 225.552 23 225 23C224.448 23 224 23.4477 224 24C224 24.5523 224.448 25 225 25Z" stroke="white" stroke-linecap="round" stroke-linejoin="round"/>
<path d="M231.944 24.33C232.019 24.1164 232.019 23.8837 231.944 23.67C231.381 22.2905 230.42 21.1098 229.183 20.2788C227.946 19.4477 226.49 19.0039 225 19.0039C223.51 19.0039 222.054 19.4477 220.817 20.2788C219.58 21.1098 218.619 22.2905 218.056 23.67C217.981 23.8837 217.981 24.1164 218.056 24.33C218.619 25.7096 219.58 26.8902 220.817 27.7213C222.054 28.5523 223.51 28.9962 225 28.9962C226.49 28.9962 227.946 28.5523 229.183 27.7213C230.42 26.8902 231.381 25.7096 231.944 24.33Z" stroke="white" stroke-linecap="round" stroke-linejoin="round"/>
<path d="M73.9998 170L69.6998 165.7C69.2482 165.251 68.637 164.998 67.9998 164.998C67.3627 164.998 66.7514 165.251 66.2998 165.7L63.6998 168.3C63.2504 168.752 62.998 169.363 62.998 170C62.998 170.637 63.2504 171.248 63.6998 171.7L67.9998 176" stroke="white" stroke-linecap="round" stroke-linejoin="round"/>
<path d="M69 169L71 167" stroke="white" stroke-linecap="round" stroke-linejoin="round"/>
<path d="M79 179L81 177" stroke="white" stroke-linecap="round" stroke-linejoin="round"/>
<path d="M78 174L82.3 178.3C83.24 179.24 83.24 180.76 82.3 181.7L79.7 184.3C78.76 185.24 77.24 185.24 76.3 184.3L72 180" stroke="white" stroke-linecap="round" stroke-linejoin="round"/>
<path d="M82.1739 169.812C82.7026 169.283 82.9997 168.566 82.9998 167.819C82.9999 167.071 82.703 166.354 82.1744 165.825C81.6459 165.297 80.9289 165 80.1813 165C79.4337 164.999 78.7166 165.296 78.1879 165.825L64.8419 179.174C64.6098 179.405 64.438 179.69 64.3419 180.004L63.0209 184.356C62.9951 184.442 62.9931 184.534 63.0153 184.622C63.0374 184.709 63.0829 184.789 63.1467 184.853C63.2106 184.917 63.2906 184.962 63.3781 184.984C63.4656 185.006 63.5575 185.004 63.6439 184.978L67.9969 183.658C68.3101 183.563 68.5951 183.392 68.8269 183.161L82.1739 169.812Z" stroke="white" stroke-linecap="round" stroke-linejoin="round"/>
<path d="M76 168L80 172" stroke="white" stroke-linecap="round" stroke-linejoin="round"/>
<path d="M30 166H16C14.8954 166 14 166.895 14 168V182C14 183.105 14.8954 184 16 184H30C31.1046 184 32 183.105 32 182V168C32 166.895 31.1046 166 30 166Z" stroke="white" stroke-linecap="round" stroke-linejoin="round"/>
<path d="M20 171H27" stroke="white" stroke-linecap="round" stroke-linejoin="round"/>
<path d="M19 175H25" stroke="white" stroke-linecap="round" stroke-linejoin="round"/>
<path d="M22 179H27" stroke="white" stroke-linecap="round" stroke-linejoin="round"/>
<path d="M165 169H169" stroke="white" stroke-linecap="round" stroke-linejoin="round"/>
<path d="M165 173H169" stroke="white" stroke-linecap="round" stroke-linejoin="round"/>
<path d="M165 177H169" stroke="white" stroke-linecap="round" stroke-linejoin="round"/>
<path d="M165 181H169" stroke="white" stroke-linecap="round" stroke-linejoin="round"/>
<path d="M181 165H169C167.895 165 167 165.895 167 167V183C167 184.105 167.895 185 169 185H181C182.105 185 183 184.105 183 183V167C183 165.895 182.105 165 181 165Z" stroke="white" stroke-linecap="round" stroke-linejoin="round"/>
<path d="M179 165V185" stroke="white" stroke-linecap="round" stroke-linejoin="round"/>
<path d="M225 175V167C225 166.735 225.105 166.48 225.293 166.293C225.48 166.105 225.735 166 226 166H232.297C232.501 166 232.701 166.063 232.868 166.179C233.036 166.296 233.164 166.461 233.235 166.653C233.306 166.844 233.316 167.053 233.265 167.251C233.214 167.449 233.103 167.626 232.948 167.759L228.252 171.784" stroke="white" stroke-linecap="round" stroke-linejoin="round"/>
<path d="M225 184L217.586 176.586C217.211 176.211 217 175.702 217 175.172V169.415C217.001 169.218 217.06 169.025 217.17 168.861C217.28 168.697 217.436 168.57 217.619 168.494C217.801 168.419 218.001 168.399 218.195 168.437C218.389 168.475 218.567 168.569 218.707 168.708L233 183.009" stroke="white" stroke-linecap="round" stroke-linejoin="round"/>
<path d="M225.214 166.381L233.628 181.347C233.735 181.537 233.777 181.758 233.747 181.975C233.716 182.191 233.616 182.392 233.461 182.546L232.293 183.709C232.105 183.895 231.852 184 231.587 184H219.351C219.124 184 218.903 183.923 218.726 183.781L216.25 181.8C216.088 181.67 215.97 181.493 215.913 181.293C215.856 181.093 215.863 180.881 215.932 180.685C216.001 180.489 216.13 180.32 216.3 180.2C216.47 180.081 216.673 180.018 216.881 180.019L221.046 180.046" stroke="white" stroke-linecap="round" stroke-linejoin="round"/>
<path d="M133.44 123.05L124.25 132.24C123.124 133.366 121.597 133.998 120.005 133.998C118.413 133.998 116.886 133.366 115.76 132.24C114.634 131.114 114.001 129.587 114.001 127.995C114.001 126.403 114.634 124.876 115.76 123.75L124.33 115.18C125.08 114.428 126.099 114.005 127.161 114.004C128.224 114.003 129.243 114.425 129.995 115.175C130.747 115.926 131.17 116.944 131.171 118.007C131.171 119.069 130.75 120.088 130 120.84L121.41 129.41C121.035 129.785 120.526 129.996 119.995 129.996C119.464 129.996 118.955 129.785 118.58 129.41C118.205 129.035 117.994 128.526 117.994 127.995C117.994 127.464 118.205 126.955 118.58 126.58L127.07 118.1" stroke="white" stroke-linecap="round" stroke-linejoin="round"/>
<defs>
<filter id="filter0_i_51_53" x="101" y="0" width="45.0908" height="47.0286" filterUnits="userSpaceOnUse" color-interpolation-filters="sRGB">
<feFlood flood-opacity="0" result="BackgroundImageFix"/>
<feBlend mode="normal" in="SourceGraphic" in2="BackgroundImageFix" result="shape"/>
<feColorMatrix in="SourceAlpha" type="matrix" values="0 0 0 0 0 0 0 0 0 0 0 0 0 0 0 0 0 0 127 0" result="hardAlpha"/>
<feMorphology radius="5" operator="erode" in="SourceAlpha" result="effect1_innerShadow_51_53"/>
<feOffset dy="2"/>
<feGaussianBlur stdDeviation="3.5"/>
<feComposite in2="hardAlpha" operator="arithmetic" k2="-1" k3="1"/>
<feColorMatrix type="matrix" values="0 0 0 0 1 0 0 0 0 1 0 0 0 0 1 0 0 0 0.05 0"/>
<feBlend mode="normal" in2="shape" result="effect1_innerShadow_51_53"/>
</filter>
<filter id="filter1_i_51_53" x="152.182" y="0" width="45.0908" height="47.0286" filterUnits="userSpaceOnUse" color-interpolation-filters="sRGB">
<feFlood flood-opacity="0" result="BackgroundImageFix"/>
<feBlend mode="normal" in="SourceGraphic" in2="BackgroundImageFix" result="shape"/>
<feColorMatrix in="SourceAlpha" type="matrix" values="0 0 0 0 0 0 0 0 0 0 0 0 0 0 0 0 0 0 127 0" result="hardAlpha"/>
<feMorphology radius="5" operator="erode" in="SourceAlpha" result="effect1_innerShadow_51_53"/>
<feOffset dy="2"/>
<feGaussianBlur stdDeviation="3.5"/>
<feComposite in2="hardAlpha" operator="arithmetic" k2="-1" k3="1"/>
<feColorMatrix type="matrix" values="0 0 0 0 1 0 0 0 0 1 0 0 0 0 1 0 0 0 0.05 0"/>
<feBlend mode="normal" in2="shape" result="effect1_innerShadow_51_53"/>
</filter>
<filter id="filter2_i_51_53" x="202.909" y="0" width="45.0908" height="47.0286" filterUnits="userSpaceOnUse" color-interpolation-filters="sRGB">
<feFlood flood-opacity="0" result="BackgroundImageFix"/>
<feBlend mode="normal" in="SourceGraphic" in2="BackgroundImageFix" result="shape"/>
<feColorMatrix in="SourceAlpha" type="matrix" values="0 0 0 0 0 0 0 0 0 0 0 0 0 0 0 0 0 0 127 0" result="hardAlpha"/>
<feMorphology radius="5" operator="erode" in="SourceAlpha" result="effect1_innerShadow_51_53"/>
<feOffset dy="2"/>
<feGaussianBlur stdDeviation="3.5"/>
<feComposite in2="hardAlpha" operator="arithmetic" k2="-1" k3="1"/>
<feColorMatrix type="matrix" values="0 0 0 0 1 0 0 0 0 1 0 0 0 0 1 0 0 0 0.05 0"/>
<feBlend mode="normal" in2="shape" result="effect1_innerShadow_51_53"/>
</filter>
<filter id="filter3_i_51_53" x="51" y="0" width="45.0908" height="47.0286" filterUnits="userSpaceOnUse" color-interpolation-filters="sRGB">
<feFlood flood-opacity="0" result="BackgroundImageFix"/>
<feBlend mode="normal" in="SourceGraphic" in2="BackgroundImageFix" result="shape"/>
<feColorMatrix in="SourceAlpha" type="matrix" values="0 0 0 0 0 0 0 0 0 0 0 0 0 0 0 0 0 0 127 0" result="hardAlpha"/>
<feMorphology radius="5" operator="erode" in="SourceAlpha" result="effect1_innerShadow_51_53"/>
<feOffset dy="2"/>
<feGaussianBlur stdDeviation="3.5"/>
<feComposite in2="hardAlpha" operator="arithmetic" k2="-1" k3="1"/>
<feColorMatrix type="matrix" values="0 0 0 0 1 0 0 0 0 1 0 0 0 0 1 0 0 0 0.05 0"/>
<feBlend mode="normal" in2="shape" result="effect1_innerShadow_51_53"/>
</filter>
<filter id="filter4_i_51_53" x="0" y="0" width="45.0908" height="47.0286" filterUnits="userSpaceOnUse" color-interpolation-filters="sRGB">
<feFlood flood-opacity="0" result="BackgroundImageFix"/>
<feBlend mode="normal" in="SourceGraphic" in2="BackgroundImageFix" result="shape"/>
<feColorMatrix in="SourceAlpha" type="matrix" values="0 0 0 0 0 0 0 0 0 0 0 0 0 0 0 0 0 0 127 0" result="hardAlpha"/>
<feMorphology radius="5" operator="erode" in="SourceAlpha" result="effect1_innerShadow_51_53"/>
<feOffset dy="2"/>
<feGaussianBlur stdDeviation="3.5"/>
<feComposite in2="hardAlpha" operator="arithmetic" k2="-1" k3="1"/>
<feColorMatrix type="matrix" values="0 0 0 0 1 0 0 0 0 1 0 0 0 0 1 0 0 0 0.05 0"/>
<feBlend mode="normal" in2="shape" result="effect1_innerShadow_51_53"/>
</filter>
<filter id="filter5_i_51_53" x="101" y="51" width="45.0908" height="47.0286" filterUnits="userSpaceOnUse" color-interpolation-filters="sRGB">
<feFlood flood-opacity="0" result="BackgroundImageFix"/>
<feBlend mode="normal" in="SourceGraphic" in2="BackgroundImageFix" result="shape"/>
<feColorMatrix in="SourceAlpha" type="matrix" values="0 0 0 0 0 0 0 0 0 0 0 0 0 0 0 0 0 0 127 0" result="hardAlpha"/>
<feMorphology radius="5" operator="erode" in="SourceAlpha" result="effect1_innerShadow_51_53"/>
<feOffset dy="2"/>
<feGaussianBlur stdDeviation="3.5"/>
<feComposite in2="hardAlpha" operator="arithmetic" k2="-1" k3="1"/>
<feColorMatrix type="matrix" values="0 0 0 0 1 0 0 0 0 1 0 0 0 0 1 0 0 0 0.05 0"/>
<feBlend mode="normal" in2="shape" result="effect1_innerShadow_51_53"/>
</filter>
<filter id="filter6_i_51_53" x="152" y="51" width="45.0908" height="47.0286" filterUnits="userSpaceOnUse" color-interpolation-filters="sRGB">
<feFlood flood-opacity="0" result="BackgroundImageFix"/>
<feBlend mode="normal" in="SourceGraphic" in2="BackgroundImageFix" result="shape"/>
<feColorMatrix in="SourceAlpha" type="matrix" values="0 0 0 0 0 0 0 0 0 0 0 0 0 0 0 0 0 0 127 0" result="hardAlpha"/>
<feMorphology radius="5" operator="erode" in="SourceAlpha" result="effect1_innerShadow_51_53"/>
<feOffset dy="2"/>
<feGaussianBlur stdDeviation="3.5"/>
<feComposite in2="hardAlpha" operator="arithmetic" k2="-1" k3="1"/>
<feColorMatrix type="matrix" values="0 0 0 0 1 0 0 0 0 1 0 0 0 0 1 0 0 0 0.05 0"/>
<feBlend mode="normal" in2="shape" result="effect1_innerShadow_51_53"/>
</filter>
<filter id="filter7_i_51_53" x="203" y="51" width="45.0908" height="47.0286" filterUnits="userSpaceOnUse" color-interpolation-filters="sRGB">
<feFlood flood-opacity="0" result="BackgroundImageFix"/>
<feBlend mode="normal" in="SourceGraphic" in2="BackgroundImageFix" result="shape"/>
<feColorMatrix in="SourceAlpha" type="matrix" values="0 0 0 0 0 0 0 0 0 0 0 0 0 0 0 0 0 0 127 0" result="hardAlpha"/>
<feMorphology radius="5" operator="erode" in="SourceAlpha" result="effect1_innerShadow_51_53"/>
<feOffset dy="2"/>
<feGaussianBlur stdDeviation="3.5"/>
<feComposite in2="hardAlpha" operator="arithmetic" k2="-1" k3="1"/>
<feColorMatrix type="matrix" values="0 0 0 0 1 0 0 0 0 1 0 0 0 0 1 0 0 0 0.05 0"/>
<feBlend mode="normal" in2="shape" result="effect1_innerShadow_51_53"/>
</filter>
<filter id="filter8_i_51_53" x="51" y="51" width="45.0908" height="47.0286" filterUnits="userSpaceOnUse" color-interpolation-filters="sRGB">
<feFlood flood-opacity="0" result="BackgroundImageFix"/>
<feBlend mode="normal" in="SourceGraphic" in2="BackgroundImageFix" result="shape"/>
<feColorMatrix in="SourceAlpha" type="matrix" values="0 0 0 0 0 0 0 0 0 0 0 0 0 0 0 0 0 0 127 0" result="hardAlpha"/>
<feMorphology radius="5" operator="erode" in="SourceAlpha" result="effect1_innerShadow_51_53"/>
<feOffset dy="2"/>
<feGaussianBlur stdDeviation="3.5"/>
<feComposite in2="hardAlpha" operator="arithmetic" k2="-1" k3="1"/>
<feColorMatrix type="matrix" values="0 0 0 0 1 0 0 0 0 1 0 0 0 0 1 0 0 0 0.05 0"/>
<feBlend mode="normal" in2="shape" result="effect1_innerShadow_51_53"/>
</filter>
<filter id="filter9_i_51_53" x="0" y="51" width="45.0908" height="47.0286" filterUnits="userSpaceOnUse" color-interpolation-filters="sRGB">
<feFlood flood-opacity="0" result="BackgroundImageFix"/>
<feBlend mode="normal" in="SourceGraphic" in2="BackgroundImageFix" result="shape"/>
<feColorMatrix in="SourceAlpha" type="matrix" values="0 0 0 0 0 0 0 0 0 0 0 0 0 0 0 0 0 0 127 0" result="hardAlpha"/>
<feMorphology radius="5" operator="erode" in="SourceAlpha" result="effect1_innerShadow_51_53"/>
<feOffset dy="2"/>
<feGaussianBlur stdDeviation="3.5"/>
<feComposite in2="hardAlpha" operator="arithmetic" k2="-1" k3="1"/>
<feColorMatrix type="matrix" values="0 0 0 0 1 0 0 0 0 1 0 0 0 0 1 0 0 0 0.05 0"/>
<feBlend mode="normal" in2="shape" result="effect1_innerShadow_51_53"/>
</filter>
<filter id="filter10_i_51_53" x="101" y="101" width="45.0908" height="47.0286" filterUnits="userSpaceOnUse" color-interpolation-filters="sRGB">
<feFlood flood-opacity="0" result="BackgroundImageFix"/>
<feBlend mode="normal" in="SourceGraphic" in2="BackgroundImageFix" result="shape"/>
<feColorMatrix in="SourceAlpha" type="matrix" values="0 0 0 0 0 0 0 0 0 0 0 0 0 0 0 0 0 0 127 0" result="hardAlpha"/>
<feMorphology radius="5" operator="erode" in="SourceAlpha" result="effect1_innerShadow_51_53"/>
<feOffset dy="2"/>
<feGaussianBlur stdDeviation="3.5"/>
<feComposite in2="hardAlpha" operator="arithmetic" k2="-1" k3="1"/>
<feColorMatrix type="matrix" values="0 0 0 0 1 0 0 0 0 1 0 0 0 0 1 0 0 0 0.05 0"/>
<feBlend mode="normal" in2="shape" result="effect1_innerShadow_51_53"/>
</filter>
<filter id="filter11_i_51_53" x="152" y="101" width="45.0908" height="47.0286" filterUnits="userSpaceOnUse" color-interpolation-filters="sRGB">
<feFlood flood-opacity="0" result="BackgroundImageFix"/>
<feBlend mode="normal" in="SourceGraphic" in2="BackgroundImageFix" result="shape"/>
<feColorMatrix in="SourceAlpha" type="matrix" values="0 0 0 0 0 0 0 0 0 0 0 0 0 0 0 0 0 0 127 0" result="hardAlpha"/>
<feMorphology radius="5" operator="erode" in="SourceAlpha" result="effect1_innerShadow_51_53"/>
<feOffset dy="2"/>
<feGaussianBlur stdDeviation="3.5"/>
<feComposite in2="hardAlpha" operator="arithmetic" k2="-1" k3="1"/>
<feColorMatrix type="matrix" values="0 0 0 0 1 0 0 0 0 1 0 0 0 0 1 0 0 0 0.05 0"/>
<feBlend mode="normal" in2="shape" result="effect1_innerShadow_51_53"/>
</filter>
<filter id="filter12_i_51_53" x="203" y="101" width="45.0908" height="47.0286" filterUnits="userSpaceOnUse" color-interpolation-filters="sRGB">
<feFlood flood-opacity="0" result="BackgroundImageFix"/>
<feBlend mode="normal" in="SourceGraphic" in2="BackgroundImageFix" result="shape"/>
<feColorMatrix in="SourceAlpha" type="matrix" values="0 0 0 0 0 0 0 0 0 0 0 0 0 0 0 0 0 0 127 0" result="hardAlpha"/>
<feMorphology radius="5" operator="erode" in="SourceAlpha" result="effect1_innerShadow_51_53"/>
<feOffset dy="2"/>
<feGaussianBlur stdDeviation="3.5"/>
<feComposite in2="hardAlpha" operator="arithmetic" k2="-1" k3="1"/>
<feColorMatrix type="matrix" values="0 0 0 0 1 0 0 0 0 1 0 0 0 0 1 0 0 0 0.05 0"/>
<feBlend mode="normal" in2="shape" result="effect1_innerShadow_51_53"/>
</filter>
<filter id="filter13_i_51_53" x="51" y="101" width="45.0908" height="47.0286" filterUnits="userSpaceOnUse" color-interpolation-filters="sRGB">
<feFlood flood-opacity="0" result="BackgroundImageFix"/>
<feBlend mode="normal" in="SourceGraphic" in2="BackgroundImageFix" result="shape"/>
<feColorMatrix in="SourceAlpha" type="matrix" values="0 0 0 0 0 0 0 0 0 0 0 0 0 0 0 0 0 0 127 0" result="hardAlpha"/>
<feMorphology radius="5" operator="erode" in="SourceAlpha" result="effect1_innerShadow_51_53"/>
<feOffset dy="2"/>
<feGaussianBlur stdDeviation="3.5"/>
<feComposite in2="hardAlpha" operator="arithmetic" k2="-1" k3="1"/>
<feColorMatrix type="matrix" values="0 0 0 0 1 0 0 0 0 1 0 0 0 0 1 0 0 0 0.05 0"/>
<feBlend mode="normal" in2="shape" result="effect1_innerShadow_51_53"/>
</filter>
<filter id="filter14_i_51_53" x="0" y="101" width="45.0908" height="47.0286" filterUnits="userSpaceOnUse" color-interpolation-filters="sRGB">
<feFlood flood-opacity="0" result="BackgroundImageFix"/>
<feBlend mode="normal" in="SourceGraphic" in2="BackgroundImageFix" result="shape"/>
<feColorMatrix in="SourceAlpha" type="matrix" values="0 0 0 0 0 0 0 0 0 0 0 0 0 0 0 0 0 0 127 0" result="hardAlpha"/>
<feMorphology radius="5" operator="erode" in="SourceAlpha" result="effect1_innerShadow_51_53"/>
<feOffset dy="2"/>
<feGaussianBlur stdDeviation="3.5"/>
<feComposite in2="hardAlpha" operator="arithmetic" k2="-1" k3="1"/>
<feColorMatrix type="matrix" values="0 0 0 0 1 0 0 0 0 1 0 0 0 0 1 0 0 0 0.05 0"/>
<feBlend mode="normal" in2="shape" result="effect1_innerShadow_51_53"/>
</filter>
<filter id="filter15_i_51_53" x="101" y="152" width="45.0908" height="47.0286" filterUnits="userSpaceOnUse" color-interpolation-filters="sRGB">
<feFlood flood-opacity="0" result="BackgroundImageFix"/>
<feBlend mode="normal" in="SourceGraphic" in2="BackgroundImageFix" result="shape"/>
<feColorMatrix in="SourceAlpha" type="matrix" values="0 0 0 0 0 0 0 0 0 0 0 0 0 0 0 0 0 0 127 0" result="hardAlpha"/>
<feMorphology radius="5" operator="erode" in="SourceAlpha" result="effect1_innerShadow_51_53"/>
<feOffset dy="2"/>
<feGaussianBlur stdDeviation="3.5"/>
<feComposite in2="hardAlpha" operator="arithmetic" k2="-1" k3="1"/>
<feColorMatrix type="matrix" values="0 0 0 0 1 0 0 0 0 1 0 0 0 0 1 0 0 0 0.05 0"/>
<feBlend mode="normal" in2="shape" result="effect1_innerShadow_51_53"/>
</filter>
<filter id="filter16_i_51_53" x="152" y="152" width="45.0908" height="47.0286" filterUnits="userSpaceOnUse" color-interpolation-filters="sRGB">
<feFlood flood-opacity="0" result="BackgroundImageFix"/>
<feBlend mode="normal" in="SourceGraphic" in2="BackgroundImageFix" result="shape"/>
<feColorMatrix in="SourceAlpha" type="matrix" values="0 0 0 0 0 0 0 0 0 0 0 0 0 0 0 0 0 0 127 0" result="hardAlpha"/>
<feMorphology radius="5" operator="erode" in="SourceAlpha" result="effect1_innerShadow_51_53"/>
<feOffset dy="2"/>
<feGaussianBlur stdDeviation="3.5"/>
<feComposite in2="hardAlpha" operator="arithmetic" k2="-1" k3="1"/>
<feColorMatrix type="matrix" values="0 0 0 0 1 0 0 0 0 1 0 0 0 0 1 0 0 0 0.05 0"/>
<feBlend mode="normal" in2="shape" result="effect1_innerShadow_51_53"/>
</filter>
<filter id="filter17_i_51_53" x="203" y="152" width="45.0908" height="47.0286" filterUnits="userSpaceOnUse" color-interpolation-filters="sRGB">
<feFlood flood-opacity="0" result="BackgroundImageFix"/>
<feBlend mode="normal" in="SourceGraphic" in2="BackgroundImageFix" result="shape"/>
<feColorMatrix in="SourceAlpha" type="matrix" values="0 0 0 0 0 0 0 0 0 0 0 0 0 0 0 0 0 0 127 0" result="hardAlpha"/>
<feMorphology radius="5" operator="erode" in="SourceAlpha" result="effect1_innerShadow_51_53"/>
<feOffset dy="2"/>
<feGaussianBlur stdDeviation="3.5"/>
<feComposite in2="hardAlpha" operator="arithmetic" k2="-1" k3="1"/>
<feColorMatrix type="matrix" values="0 0 0 0 1 0 0 0 0 1 0 0 0 0 1 0 0 0 0.05 0"/>
<feBlend mode="normal" in2="shape" result="effect1_innerShadow_51_53"/>
</filter>
<filter id="filter18_i_51_53" x="51" y="152" width="45.0908" height="47.0286" filterUnits="userSpaceOnUse" color-interpolation-filters="sRGB">
<feFlood flood-opacity="0" result="BackgroundImageFix"/>
<feBlend mode="normal" in="SourceGraphic" in2="BackgroundImageFix" result="shape"/>
<feColorMatrix in="SourceAlpha" type="matrix" values="0 0 0 0 0 0 0 0 0 0 0 0 0 0 0 0 0 0 127 0" result="hardAlpha"/>
<feMorphology radius="5" operator="erode" in="SourceAlpha" result="effect1_innerShadow_51_53"/>
<feOffset dy="2"/>
<feGaussianBlur stdDeviation="3.5"/>
<feComposite in2="hardAlpha" operator="arithmetic" k2="-1" k3="1"/>
<feColorMatrix type="matrix" values="0 0 0 0 1 0 0 0 0 1 0 0 0 0 1 0 0 0 0.05 0"/>
<feBlend mode="normal" in2="shape" result="effect1_innerShadow_51_53"/>
</filter>
<filter id="filter19_i_51_53" x="0" y="152" width="45.0908" height="47.0286" filterUnits="userSpaceOnUse" color-interpolation-filters="sRGB">
<feFlood flood-opacity="0" result="BackgroundImageFix"/>
<feBlend mode="normal" in="SourceGraphic" in2="BackgroundImageFix" result="shape"/>
<feColorMatrix in="SourceAlpha" type="matrix" values="0 0 0 0 0 0 0 0 0 0 0 0 0 0 0 0 0 0 127 0" result="hardAlpha"/>
<feMorphology radius="5" operator="erode" in="SourceAlpha" result="effect1_innerShadow_51_53"/>
<feOffset dy="2"/>
<feGaussianBlur stdDeviation="3.5"/>
<feComposite in2="hardAlpha" operator="arithmetic" k2="-1" k3="1"/>
<feColorMatrix type="matrix" values="0 0 0 0 1 0 0 0 0 1 0 0 0 0 1 0 0 0 0.05 0"/>
<feBlend mode="normal" in2="shape" result="effect1_innerShadow_51_53"/>
</filter>
<linearGradient id="paint0_linear_51_53" x1="123.545" y1="0" x2="123.545" y2="45.0286" gradientUnits="userSpaceOnUse">
<stop stop-color="#1D1D1D"/>
<stop offset="1" stop-color="#1D1D1D"/>
</linearGradient>
<linearGradient id="paint1_linear_51_53" x1="174.728" y1="0" x2="174.728" y2="45.0286" gradientUnits="userSpaceOnUse">
<stop stop-color="#1D1D1D"/>
<stop offset="1" stop-color="#1D1D1D"/>
</linearGradient>
<linearGradient id="paint2_linear_51_53" x1="225.455" y1="0" x2="225.455" y2="45.0286" gradientUnits="userSpaceOnUse">
<stop stop-color="#1D1D1D"/>
<stop offset="1" stop-color="#1D1D1D"/>
</linearGradient>
<linearGradient id="paint3_linear_51_53" x1="73.5455" y1="0" x2="73.5455" y2="45.0286" gradientUnits="userSpaceOnUse">
<stop stop-color="#1D1D1D"/>
<stop offset="1" stop-color="#1D1D1D"/>
</linearGradient>
<linearGradient id="paint4_linear_51_53" x1="22.5455" y1="0" x2="22.5455" y2="45.0286" gradientUnits="userSpaceOnUse">
<stop stop-color="#1D1D1D"/>
<stop offset="1" stop-color="#1D1D1D"/>
</linearGradient>
<linearGradient id="paint5_linear_51_53" x1="123.545" y1="51" x2="123.545" y2="96.0286" gradientUnits="userSpaceOnUse">
<stop stop-color="#1D1D1D"/>
<stop offset="1" stop-color="#1D1D1D"/>
</linearGradient>
<linearGradient id="paint6_linear_51_53" x1="174.545" y1="51" x2="174.545" y2="96.0286" gradientUnits="userSpaceOnUse">
<stop stop-color="#1D1D1D"/>
<stop offset="1" stop-color="#1D1D1D"/>
</linearGradient>
<linearGradient id="paint7_linear_51_53" x1="225.545" y1="51" x2="225.545" y2="96.0286" gradientUnits="userSpaceOnUse">
<stop stop-color="#1D1D1D"/>
<stop offset="1" stop-color="#1D1D1D"/>
</linearGradient>
<linearGradient id="paint8_linear_51_53" x1="73.5455" y1="51" x2="73.5455" y2="96.0286" gradientUnits="userSpaceOnUse">
<stop stop-color="#1D1D1D"/>
<stop offset="1" stop-color="#1D1D1D"/>
</linearGradient>
<linearGradient id="paint9_linear_51_53" x1="22.5455" y1="51" x2="22.5455" y2="96.0286" gradientUnits="userSpaceOnUse">
<stop stop-color="#1D1D1D"/>
<stop offset="1" stop-color="#1D1D1D"/>
</linearGradient>
<linearGradient id="paint10_linear_51_53" x1="123.545" y1="101" x2="123.545" y2="146.029" gradientUnits="userSpaceOnUse">
<stop stop-color="#1D1D1D"/>
<stop offset="1" stop-color="#1D1D1D"/>
</linearGradient>
<linearGradient id="paint11_linear_51_53" x1="174.545" y1="101" x2="174.545" y2="146.029" gradientUnits="userSpaceOnUse">
<stop stop-color="#1D1D1D"/>
<stop offset="1" stop-color="#1D1D1D"/>
</linearGradient>
<linearGradient id="paint12_linear_51_53" x1="225.545" y1="101" x2="225.545" y2="146.029" gradientUnits="userSpaceOnUse">
<stop stop-color="#1D1D1D"/>
<stop offset="1" stop-color="#1D1D1D"/>
</linearGradient>
<linearGradient id="paint13_linear_51_53" x1="73.5455" y1="101" x2="73.5455" y2="146.029" gradientUnits="userSpaceOnUse">
<stop stop-color="#1D1D1D"/>
<stop offset="1" stop-color="#1D1D1D"/>
</linearGradient>
<linearGradient id="paint14_linear_51_53" x1="22.5455" y1="101" x2="22.5455" y2="146.029" gradientUnits="userSpaceOnUse">
<stop stop-color="#1D1D1D"/>
<stop offset="1" stop-color="#1D1D1D"/>
</linearGradient>
<linearGradient id="paint15_linear_51_53" x1="123.545" y1="152" x2="123.545" y2="197.029" gradientUnits="userSpaceOnUse">
<stop stop-color="#1D1D1D"/>
<stop offset="1" stop-color="#1D1D1D"/>
</linearGradient>
<linearGradient id="paint16_linear_51_53" x1="174.545" y1="152" x2="174.545" y2="197.029" gradientUnits="userSpaceOnUse">
<stop stop-color="#1D1D1D"/>
<stop offset="1" stop-color="#1D1D1D"/>
</linearGradient>
<linearGradient id="paint17_linear_51_53" x1="225.545" y1="152" x2="225.545" y2="197.029" gradientUnits="userSpaceOnUse">
<stop stop-color="#1D1D1D"/>
<stop offset="1" stop-color="#1D1D1D"/>
</linearGradient>
<linearGradient id="paint18_linear_51_53" x1="73.5455" y1="152" x2="73.5455" y2="197.029" gradientUnits="userSpaceOnUse">
<stop stop-color="#1D1D1D"/>
<stop offset="1" stop-color="#1D1D1D"/>
</linearGradient>
<linearGradient id="paint19_linear_51_53" x1="22.5455" y1="152" x2="22.5455" y2="197.029" gradientUnits="userSpaceOnUse">
<stop stop-color="#1D1D1D"/>
<stop offset="1" stop-color="#1D1D1D"/>
</linearGradient>
</defs>
</svg>
