<svg width="94" height="94" viewBox="0 0 94 94" fill="none" xmlns="http://www.w3.org/2000/svg">
<g filter="url(#filter0_d_45_223)">
<g filter="url(#filter1_d_45_223)">
<rect x="17" y="13" width="60" height="60" rx="5" fill="url(#paint0_radial_45_223)"/>
<rect x="17.075" y="13.075" width="59.85" height="59.85" rx="4.925" stroke="#292929" stroke-opacity="0.6" stroke-width="0.15"/>
</g>
<g filter="url(#filter2_d_45_223)">
<rect x="19.7256" y="15.1824" width="54.5455" height="54.5455" rx="5" fill="url(#paint1_radial_45_223)"/>
<rect x="19.8006" y="15.2574" width="54.3955" height="54.3955" rx="4.925" stroke="#292929" stroke-width="0.15"/>
</g>
<path d="M46.1563 20.8392C46.0581 20.8481 45.7458 20.8793 45.4646 20.9017C38.9805 21.4862 32.9069 24.9843 29.0602 30.3609C26.9181 33.3504 25.5481 36.7415 25.0305 40.3333C24.8475 41.5871 24.8252 41.9575 24.8252 43.6574C24.8252 45.3574 24.8475 45.7278 25.0305 46.9816C26.2711 55.5529 32.3714 62.7545 40.645 65.4227C42.1266 65.9001 43.6885 66.2258 45.4646 66.4222C46.1563 66.498 49.1462 66.498 49.8379 66.4222C52.9037 66.0831 55.5009 65.3245 58.0625 64.0172C58.4552 63.8164 58.531 63.7629 58.4775 63.7182C58.4418 63.6915 56.7683 61.4471 54.7602 58.7343L51.1098 53.8039L46.5356 47.0351C44.0187 43.3139 41.9481 40.2709 41.9302 40.2709C41.9124 40.2664 41.8945 43.2737 41.8856 46.9459C41.8722 53.3755 41.8678 53.6343 41.7874 53.786C41.6714 54.0046 41.5822 54.0939 41.3947 54.192C41.2519 54.2634 41.127 54.2768 40.4531 54.2768H39.6811L39.4758 54.1474C39.342 54.0626 39.2438 53.9511 39.1768 53.8217L39.0831 53.6209L39.0921 44.6748L39.1054 35.7242L39.2438 35.5501C39.3152 35.4564 39.4669 35.336 39.574 35.278C39.757 35.1887 39.8284 35.1798 40.6004 35.1798C41.5108 35.1798 41.6625 35.2155 41.899 35.4743C41.9659 35.5457 44.4427 39.2758 47.4058 43.769C50.369 48.2622 54.421 54.3973 56.4113 57.4091L60.026 62.8839L60.209 62.7634C61.8289 61.7104 63.5425 60.2112 64.8991 58.6495C67.7864 55.3343 69.6473 51.2918 70.2721 46.9816C70.455 45.7278 70.4773 45.3574 70.4773 43.6574C70.4773 41.9575 70.455 41.5871 70.2721 40.3333C69.0315 31.762 62.9311 24.5604 54.6575 21.8922C53.1983 21.4192 51.6453 21.0935 49.9049 20.8972C49.4765 20.8526 46.5267 20.8035 46.1563 20.8392ZM55.5009 34.6444C55.7151 34.7515 55.8892 34.9567 55.9517 35.1709C55.9874 35.2869 55.9963 37.7677 55.9874 43.3585L55.974 51.381L54.5593 49.2125L53.1402 47.044V41.2123C53.1402 37.442 53.1581 35.3226 53.1849 35.22C53.2563 34.9701 53.4125 34.7738 53.6267 34.6578C53.8096 34.5641 53.8766 34.5551 54.5772 34.5551C55.2376 34.5551 55.3537 34.5641 55.5009 34.6444Z" fill="black"/>
</g>
<defs>
<filter id="filter0_d_45_223" x="9" y="7" width="76" height="76" filterUnits="userSpaceOnUse" color-interpolation-filters="sRGB">
<feFlood flood-opacity="0" result="BackgroundImageFix"/>
<feColorMatrix in="SourceAlpha" type="matrix" values="0 0 0 0 0 0 0 0 0 0 0 0 0 0 0 0 0 0 127 0" result="hardAlpha"/>
<feOffset dy="2"/>
<feGaussianBlur stdDeviation="4"/>
<feComposite in2="hardAlpha" operator="out"/>
<feColorMatrix type="matrix" values="0 0 0 0 1 0 0 0 0 0.478431 0 0 0 0 0 0 0 0 1 0"/>
<feBlend mode="normal" in2="BackgroundImageFix" result="effect1_dropShadow_45_223"/>
<feBlend mode="normal" in="SourceGraphic" in2="effect1_dropShadow_45_223" result="shape"/>
</filter>
<filter id="filter1_d_45_223" x="0" y="0" width="94" height="94" filterUnits="userSpaceOnUse" color-interpolation-filters="sRGB">
<feFlood flood-opacity="0" result="BackgroundImageFix"/>
<feColorMatrix in="SourceAlpha" type="matrix" values="0 0 0 0 0 0 0 0 0 0 0 0 0 0 0 0 0 0 127 0" result="hardAlpha"/>
<feMorphology radius="2" operator="dilate" in="SourceAlpha" result="effect1_dropShadow_45_223"/>
<feOffset dy="4"/>
<feGaussianBlur stdDeviation="7.5"/>
<feComposite in2="hardAlpha" operator="out"/>
<feColorMatrix type="matrix" values="0 0 0 0 0.105882 0 0 0 0 0.105882 0 0 0 0 0.105882 0 0 0 1 0"/>
<feBlend mode="normal" in2="BackgroundImageFix" result="effect1_dropShadow_45_223"/>
<feBlend mode="normal" in="SourceGraphic" in2="effect1_dropShadow_45_223" result="shape"/>
</filter>
<filter id="filter2_d_45_223" x="7.72559" y="7.18237" width="78.5454" height="78.5454" filterUnits="userSpaceOnUse" color-interpolation-filters="sRGB">
<feFlood flood-opacity="0" result="BackgroundImageFix"/>
<feColorMatrix in="SourceAlpha" type="matrix" values="0 0 0 0 0 0 0 0 0 0 0 0 0 0 0 0 0 0 127 0" result="hardAlpha"/>
<feMorphology radius="2" operator="dilate" in="SourceAlpha" result="effect1_dropShadow_45_223"/>
<feOffset dy="4"/>
<feGaussianBlur stdDeviation="5"/>
<feComposite in2="hardAlpha" operator="out"/>
<feColorMatrix type="matrix" values="0 0 0 0 0.075 0 0 0 0 0.075 0 0 0 0 0.075 0 0 0 1 0"/>
<feBlend mode="normal" in2="BackgroundImageFix" result="effect1_dropShadow_45_223"/>
<feBlend mode="normal" in="SourceGraphic" in2="effect1_dropShadow_45_223" result="shape"/>
</filter>
<radialGradient id="paint0_radial_45_223" cx="0" cy="0" r="1" gradientUnits="userSpaceOnUse" gradientTransform="translate(47 43) rotate(90) scale(30)">
<stop stop-color="#1B1B1B"/>
<stop offset="1" stop-color="#1D1D1D"/>
</radialGradient>
<radialGradient id="paint1_radial_45_223" cx="0" cy="0" r="1" gradientUnits="userSpaceOnUse" gradientTransform="translate(46.9983 42.4551) rotate(90) scale(27.2727)">
<stop stop-color="#1B1B1B"/>
<stop offset="1" stop-color="#1D1D1D"/>
</radialGradient>
</defs>
</svg>
