<svg width="141" height="40" viewBox="0 0 141 40" fill="none" xmlns="http://www.w3.org/2000/svg">
<path d="M12.022 27.8571C18.6615 27.8571 24.0439 21.9942 24.0439 14.7619C24.0439 13.9422 23.9748 13.1401 23.8425 12.3622C23.1283 12.2181 22.392 12.1428 21.6395 12.1428C15 12.1428 9.61768 18.0058 9.61768 25.2381C9.61768 26.0577 9.68681 26.8598 9.81907 27.6377C10.5332 27.7818 11.2696 27.8571 12.022 27.8571Z" fill="#444444"/>
<path fill-rule="evenodd" clip-rule="evenodd" d="M9.81888 27.6377C4.2315 26.5106 0 21.1745 0 14.7619C0 7.52956 5.38237 1.66663 12.0219 1.66663C17.9089 1.66663 22.8076 6.27594 23.8423 12.3622C23.1281 12.2181 22.3918 12.1428 21.6393 12.1428C14.9999 12.1428 9.61749 18.0058 9.61749 25.2381C9.61749 26.0577 9.68662 26.8598 9.81888 27.6377Z" fill="#7E7F81"/>
<path fill-rule="evenodd" clip-rule="evenodd" d="M12.0218 27.857C18.6613 27.857 24.0437 21.994 24.0437 14.7617C24.0437 13.9421 23.9746 13.14 23.8423 12.3621C29.4297 13.4892 33.6612 18.8253 33.6612 25.2379C33.6612 32.4702 28.2788 38.3332 21.6393 38.3332C15.7523 38.3332 10.8536 33.7238 9.81885 27.6376C10.533 27.7817 11.2694 27.857 12.0218 27.857Z" fill="white"/>
<mask id="path-4-outside-1_37_86" maskUnits="userSpaceOnUse" x="42.9771" y="10.5566" width="98" height="19" fill="black">
<rect fill="white" x="42.9771" y="10.5566" width="98" height="19"/>
<path d="M56.7867 24.0866C56.3583 25.5955 55.6085 26.7233 54.5375 27.47C53.4664 28.2011 52.2169 28.5666 50.7889 28.5666C49.3894 28.5666 48.1755 28.2478 47.1473 27.61C46.1334 26.9722 45.348 26.0622 44.791 24.88C44.2484 23.6978 43.9771 22.2822 43.9771 20.6333C43.9771 18.9844 44.2555 17.5689 44.8125 16.3866C45.3694 15.2044 46.1548 14.2944 47.1687 13.6566C48.1827 13.0189 49.3751 12.7 50.746 12.7C52.1883 12.7 53.4236 13.0344 54.4518 13.7033C55.4943 14.3566 56.2083 15.3522 56.5939 16.69L53.9163 17.9266C53.6735 16.9933 53.3022 16.3322 52.8024 15.9433C52.3026 15.5389 51.66 15.3366 50.8745 15.3366C49.7035 15.3366 48.7682 15.7955 48.0684 16.7133C47.383 17.6155 47.0402 18.9222 47.0402 20.6333C47.0402 22.3289 47.3687 23.6355 48.0256 24.5533C48.6825 25.4711 49.6321 25.93 50.8745 25.93C51.6457 25.93 52.3097 25.7044 52.8667 25.2533C53.4379 24.8022 53.8377 24.1178 54.0662 23.2L56.7867 24.0866Z"/>
<path d="M60.4843 14.9866C59.2704 14.9866 58.6635 14.4189 58.6635 13.2833C58.6635 12.1322 59.2704 11.5566 60.4843 11.5566C61.6981 11.5566 62.305 12.1322 62.305 13.2833C62.305 14.4189 61.6981 14.9866 60.4843 14.9866ZM61.9409 16.6666V28.3333H59.0062V16.6666H61.9409Z"/>
<path d="M65.0517 28.3333V16.6666H67.6008L67.7936 18.9533C68.0649 18.16 68.4719 17.5455 69.0146 17.11C69.5715 16.6589 70.2713 16.4333 71.1138 16.4333C71.6136 16.4333 71.9992 16.5189 72.2705 16.69L71.9278 19.3733C71.785 19.3266 71.6065 19.2878 71.3923 19.2566C71.1923 19.21 70.9282 19.1866 70.5997 19.1866C70.157 19.1866 69.7357 19.3033 69.3359 19.5366C68.9503 19.7544 68.629 20.0966 68.3719 20.5633C68.1149 21.0144 67.9864 21.59 67.9864 22.29V28.3333H65.0517Z"/>
<path d="M78.7419 16.4333C80.17 16.4333 81.2767 16.7678 82.0622 17.4366C82.8619 18.1055 83.3902 18.9144 83.6473 19.8633L80.9054 20.9366C80.6198 19.5211 79.9129 18.8133 78.7848 18.8133C77.9708 18.8133 77.3353 19.1244 76.8783 19.7466C76.4356 20.3689 76.2143 21.2944 76.2143 22.5233C76.2143 23.7678 76.4428 24.6933 76.8998 25.3C77.371 25.8911 78.0065 26.1866 78.8062 26.1866C80.0486 26.1866 80.7912 25.4944 81.034 24.11L83.6901 25.0433C83.4474 26.0855 82.9047 26.9333 82.0622 27.5866C81.2339 28.24 80.1557 28.5666 78.8276 28.5666C77.7137 28.5666 76.7355 28.3255 75.893 27.8433C75.0647 27.3611 74.4221 26.6689 73.9651 25.7666C73.5081 24.8644 73.2796 23.7755 73.2796 22.5C73.2796 21.2244 73.5081 20.1355 73.9651 19.2333C74.4364 18.3311 75.079 17.6389 75.893 17.1566C76.7212 16.6744 77.6709 16.4333 78.7419 16.4333Z"/>
<path d="M90.8544 16.4333C91.9254 16.4333 92.8751 16.6744 93.7033 17.1566C94.5316 17.6389 95.1742 18.3311 95.6312 19.2333C96.1025 20.1355 96.3381 21.2244 96.3381 22.5C96.3381 23.7755 96.1025 24.8644 95.6312 25.7666C95.1742 26.6689 94.5316 27.3611 93.7033 27.8433C92.8751 28.3255 91.9254 28.5666 90.8544 28.5666C89.7691 28.5666 88.8123 28.3255 87.984 27.8433C87.17 27.3611 86.5274 26.6689 86.0561 25.7666C85.5991 24.8644 85.3707 23.7755 85.3707 22.5C85.3707 21.2244 85.5991 20.1355 86.0561 19.2333C86.5274 18.3311 87.17 17.6389 87.984 17.1566C88.8123 16.6744 89.7691 16.4333 90.8544 16.4333ZM90.8544 18.8133C90.0547 18.8133 89.4263 19.1244 88.9693 19.7466C88.5266 20.3533 88.3053 21.2711 88.3053 22.5C88.3053 23.7289 88.5266 24.6544 88.9693 25.2766C89.4263 25.8833 90.0547 26.1866 90.8544 26.1866C91.6398 26.1866 92.2539 25.8833 92.6966 25.2766C93.1535 24.6544 93.382 23.7289 93.382 22.5C93.382 21.2711 93.1535 20.3533 92.6966 19.7466C92.2539 19.1244 91.6398 18.8133 90.8544 18.8133Z"/>
<path d="M103.678 16.4333C104.749 16.4333 105.698 16.6744 106.527 17.1566C107.355 17.6389 107.997 18.3311 108.454 19.2333C108.926 20.1355 109.161 21.2244 109.161 22.5C109.161 23.7755 108.926 24.8644 108.454 25.7666C107.997 26.6689 107.355 27.3611 106.527 27.8433C105.698 28.3255 104.749 28.5666 103.678 28.5666C102.592 28.5666 101.635 28.3255 100.807 27.8433C99.9932 27.3611 99.3505 26.6689 98.8793 25.7666C98.4223 24.8644 98.1938 23.7755 98.1938 22.5C98.1938 21.2244 98.4223 20.1355 98.8793 19.2333C99.3505 18.3311 99.9932 17.6389 100.807 17.1566C101.635 16.6744 102.592 16.4333 103.678 16.4333ZM103.678 18.8133C102.878 18.8133 102.249 19.1244 101.793 19.7466C101.35 20.3533 101.128 21.2711 101.128 22.5C101.128 23.7289 101.35 24.6544 101.793 25.2766C102.249 25.8833 102.878 26.1866 103.678 26.1866C104.463 26.1866 105.077 25.8833 105.52 25.2766C105.977 24.6544 106.205 23.7289 106.205 22.5C106.205 21.2711 105.977 20.3533 105.52 19.7466C105.077 19.1244 104.463 18.8133 103.678 18.8133Z"/>
<path d="M114.509 11.5566V24.74C114.509 25.2844 114.594 25.6655 114.766 25.8833C114.937 26.1011 115.223 26.21 115.622 26.21C115.865 26.21 116.065 26.1944 116.222 26.1633C116.379 26.1322 116.579 26.07 116.822 25.9766L116.565 28.0766C116.322 28.2322 116.015 28.3489 115.644 28.4266C115.287 28.52 114.93 28.5666 114.573 28.5666C113.53 28.5666 112.766 28.2944 112.281 27.75C111.81 27.19 111.574 26.3033 111.574 25.09V11.5566H114.509Z"/>
<path d="M123.427 28.5666C121.742 28.5666 120.392 28.0378 119.378 26.98C118.364 25.9066 117.857 24.4133 117.857 22.5C117.857 21.2244 118.086 20.1355 118.543 19.2333C119 18.3311 119.635 17.6389 120.449 17.1566C121.278 16.6744 122.22 16.4333 123.277 16.4333C124.362 16.4333 125.283 16.6744 126.04 17.1566C126.797 17.6233 127.375 18.2689 127.775 19.0933C128.175 19.9022 128.375 20.8278 128.375 21.87C128.375 22.1811 128.368 22.4766 128.354 22.7566C128.339 23.0366 128.318 23.2855 128.289 23.5033H120.728C120.842 24.4055 121.128 25.0822 121.585 25.5333C122.056 25.9689 122.663 26.1866 123.405 26.1866C124.034 26.1866 124.541 26.0544 124.926 25.79C125.312 25.5255 125.612 25.16 125.826 24.6933L128.161 25.6733C127.818 26.5911 127.218 27.3066 126.361 27.82C125.505 28.3178 124.526 28.5666 123.427 28.5666ZM123.255 18.79C121.87 18.79 121.035 19.6222 120.749 21.2866H125.569C125.483 20.4778 125.24 19.8633 124.841 19.4433C124.455 19.0078 123.927 18.79 123.255 18.79Z"/>
<path d="M135.146 28.5666C134.061 28.5666 133.068 28.3566 132.169 27.9366C131.283 27.5166 130.562 26.9255 130.005 26.1633L131.697 24.2966C132.04 24.8566 132.497 25.3155 133.068 25.6733C133.64 26.0311 134.318 26.21 135.103 26.21C135.66 26.21 136.103 26.1244 136.431 25.9533C136.774 25.7666 136.945 25.4789 136.945 25.09C136.945 24.8411 136.867 24.6311 136.71 24.46C136.553 24.2733 136.239 24.1255 135.767 24.0166L133.882 23.5966C132.64 23.3166 131.755 22.8966 131.226 22.3366C130.712 21.7611 130.455 21.0222 130.455 20.12C130.455 19.4822 130.626 18.8833 130.969 18.3233C131.326 17.7633 131.854 17.3122 132.554 16.97C133.254 16.6122 134.125 16.4333 135.168 16.4333C137.338 16.4333 138.895 17.1566 139.837 18.6033L138.081 20.47C137.767 19.9255 137.352 19.5133 136.838 19.2333C136.339 18.9378 135.81 18.79 135.253 18.79C133.997 18.79 133.368 19.1711 133.368 19.9333C133.368 20.1822 133.468 20.4 133.668 20.5866C133.868 20.7578 134.232 20.9055 134.761 21.03L136.945 21.52C138.002 21.7533 138.759 22.15 139.216 22.71C139.673 23.2544 139.902 23.9155 139.902 24.6933C139.902 25.8133 139.487 26.7389 138.659 27.47C137.845 28.2011 136.674 28.5666 135.146 28.5666Z"/>
</mask>
<path d="M56.7867 24.0866C56.3583 25.5955 55.6085 26.7233 54.5375 27.47C53.4664 28.2011 52.2169 28.5666 50.7889 28.5666C49.3894 28.5666 48.1755 28.2478 47.1473 27.61C46.1334 26.9722 45.348 26.0622 44.791 24.88C44.2484 23.6978 43.9771 22.2822 43.9771 20.6333C43.9771 18.9844 44.2555 17.5689 44.8125 16.3866C45.3694 15.2044 46.1548 14.2944 47.1687 13.6566C48.1827 13.0189 49.3751 12.7 50.746 12.7C52.1883 12.7 53.4236 13.0344 54.4518 13.7033C55.4943 14.3566 56.2083 15.3522 56.5939 16.69L53.9163 17.9266C53.6735 16.9933 53.3022 16.3322 52.8024 15.9433C52.3026 15.5389 51.66 15.3366 50.8745 15.3366C49.7035 15.3366 48.7682 15.7955 48.0684 16.7133C47.383 17.6155 47.0402 18.9222 47.0402 20.6333C47.0402 22.3289 47.3687 23.6355 48.0256 24.5533C48.6825 25.4711 49.6321 25.93 50.8745 25.93C51.6457 25.93 52.3097 25.7044 52.8667 25.2533C53.4379 24.8022 53.8377 24.1178 54.0662 23.2L56.7867 24.0866Z" fill="url(#paint0_linear_37_86)"/>
<path d="M60.4843 14.9866C59.2704 14.9866 58.6635 14.4189 58.6635 13.2833C58.6635 12.1322 59.2704 11.5566 60.4843 11.5566C61.6981 11.5566 62.305 12.1322 62.305 13.2833C62.305 14.4189 61.6981 14.9866 60.4843 14.9866ZM61.9409 16.6666V28.3333H59.0062V16.6666H61.9409Z" fill="url(#paint1_linear_37_86)"/>
<path d="M65.0517 28.3333V16.6666H67.6008L67.7936 18.9533C68.0649 18.16 68.4719 17.5455 69.0146 17.11C69.5715 16.6589 70.2713 16.4333 71.1138 16.4333C71.6136 16.4333 71.9992 16.5189 72.2705 16.69L71.9278 19.3733C71.785 19.3266 71.6065 19.2878 71.3923 19.2566C71.1923 19.21 70.9282 19.1866 70.5997 19.1866C70.157 19.1866 69.7357 19.3033 69.3359 19.5366C68.9503 19.7544 68.629 20.0966 68.3719 20.5633C68.1149 21.0144 67.9864 21.59 67.9864 22.29V28.3333H65.0517Z" fill="url(#paint2_linear_37_86)"/>
<path d="M78.7419 16.4333C80.17 16.4333 81.2767 16.7678 82.0622 17.4366C82.8619 18.1055 83.3902 18.9144 83.6473 19.8633L80.9054 20.9366C80.6198 19.5211 79.9129 18.8133 78.7848 18.8133C77.9708 18.8133 77.3353 19.1244 76.8783 19.7466C76.4356 20.3689 76.2143 21.2944 76.2143 22.5233C76.2143 23.7678 76.4428 24.6933 76.8998 25.3C77.371 25.8911 78.0065 26.1866 78.8062 26.1866C80.0486 26.1866 80.7912 25.4944 81.034 24.11L83.6901 25.0433C83.4474 26.0855 82.9047 26.9333 82.0622 27.5866C81.2339 28.24 80.1557 28.5666 78.8276 28.5666C77.7137 28.5666 76.7355 28.3255 75.893 27.8433C75.0647 27.3611 74.4221 26.6689 73.9651 25.7666C73.5081 24.8644 73.2796 23.7755 73.2796 22.5C73.2796 21.2244 73.5081 20.1355 73.9651 19.2333C74.4364 18.3311 75.079 17.6389 75.893 17.1566C76.7212 16.6744 77.6709 16.4333 78.7419 16.4333Z" fill="url(#paint3_linear_37_86)"/>
<path d="M90.8544 16.4333C91.9254 16.4333 92.8751 16.6744 93.7033 17.1566C94.5316 17.6389 95.1742 18.3311 95.6312 19.2333C96.1025 20.1355 96.3381 21.2244 96.3381 22.5C96.3381 23.7755 96.1025 24.8644 95.6312 25.7666C95.1742 26.6689 94.5316 27.3611 93.7033 27.8433C92.8751 28.3255 91.9254 28.5666 90.8544 28.5666C89.7691 28.5666 88.8123 28.3255 87.984 27.8433C87.17 27.3611 86.5274 26.6689 86.0561 25.7666C85.5991 24.8644 85.3707 23.7755 85.3707 22.5C85.3707 21.2244 85.5991 20.1355 86.0561 19.2333C86.5274 18.3311 87.17 17.6389 87.984 17.1566C88.8123 16.6744 89.7691 16.4333 90.8544 16.4333ZM90.8544 18.8133C90.0547 18.8133 89.4263 19.1244 88.9693 19.7466C88.5266 20.3533 88.3053 21.2711 88.3053 22.5C88.3053 23.7289 88.5266 24.6544 88.9693 25.2766C89.4263 25.8833 90.0547 26.1866 90.8544 26.1866C91.6398 26.1866 92.2539 25.8833 92.6966 25.2766C93.1535 24.6544 93.382 23.7289 93.382 22.5C93.382 21.2711 93.1535 20.3533 92.6966 19.7466C92.2539 19.1244 91.6398 18.8133 90.8544 18.8133Z" fill="url(#paint4_linear_37_86)"/>
<path d="M103.678 16.4333C104.749 16.4333 105.698 16.6744 106.527 17.1566C107.355 17.6389 107.997 18.3311 108.454 19.2333C108.926 20.1355 109.161 21.2244 109.161 22.5C109.161 23.7755 108.926 24.8644 108.454 25.7666C107.997 26.6689 107.355 27.3611 106.527 27.8433C105.698 28.3255 104.749 28.5666 103.678 28.5666C102.592 28.5666 101.635 28.3255 100.807 27.8433C99.9932 27.3611 99.3505 26.6689 98.8793 25.7666C98.4223 24.8644 98.1938 23.7755 98.1938 22.5C98.1938 21.2244 98.4223 20.1355 98.8793 19.2333C99.3505 18.3311 99.9932 17.6389 100.807 17.1566C101.635 16.6744 102.592 16.4333 103.678 16.4333ZM103.678 18.8133C102.878 18.8133 102.249 19.1244 101.793 19.7466C101.35 20.3533 101.128 21.2711 101.128 22.5C101.128 23.7289 101.35 24.6544 101.793 25.2766C102.249 25.8833 102.878 26.1866 103.678 26.1866C104.463 26.1866 105.077 25.8833 105.52 25.2766C105.977 24.6544 106.205 23.7289 106.205 22.5C106.205 21.2711 105.977 20.3533 105.52 19.7466C105.077 19.1244 104.463 18.8133 103.678 18.8133Z" fill="url(#paint5_linear_37_86)"/>
<path d="M114.509 11.5566V24.74C114.509 25.2844 114.594 25.6655 114.766 25.8833C114.937 26.1011 115.223 26.21 115.622 26.21C115.865 26.21 116.065 26.1944 116.222 26.1633C116.379 26.1322 116.579 26.07 116.822 25.9766L116.565 28.0766C116.322 28.2322 116.015 28.3489 115.644 28.4266C115.287 28.52 114.93 28.5666 114.573 28.5666C113.53 28.5666 112.766 28.2944 112.281 27.75C111.81 27.19 111.574 26.3033 111.574 25.09V11.5566H114.509Z" fill="url(#paint6_linear_37_86)"/>
<path d="M123.427 28.5666C121.742 28.5666 120.392 28.0378 119.378 26.98C118.364 25.9066 117.857 24.4133 117.857 22.5C117.857 21.2244 118.086 20.1355 118.543 19.2333C119 18.3311 119.635 17.6389 120.449 17.1566C121.278 16.6744 122.22 16.4333 123.277 16.4333C124.362 16.4333 125.283 16.6744 126.04 17.1566C126.797 17.6233 127.375 18.2689 127.775 19.0933C128.175 19.9022 128.375 20.8278 128.375 21.87C128.375 22.1811 128.368 22.4766 128.354 22.7566C128.339 23.0366 128.318 23.2855 128.289 23.5033H120.728C120.842 24.4055 121.128 25.0822 121.585 25.5333C122.056 25.9689 122.663 26.1866 123.405 26.1866C124.034 26.1866 124.541 26.0544 124.926 25.79C125.312 25.5255 125.612 25.16 125.826 24.6933L128.161 25.6733C127.818 26.5911 127.218 27.3066 126.361 27.82C125.505 28.3178 124.526 28.5666 123.427 28.5666ZM123.255 18.79C121.87 18.79 121.035 19.6222 120.749 21.2866H125.569C125.483 20.4778 125.24 19.8633 124.841 19.4433C124.455 19.0078 123.927 18.79 123.255 18.79Z" fill="url(#paint7_linear_37_86)"/>
<path d="M135.146 28.5666C134.061 28.5666 133.068 28.3566 132.169 27.9366C131.283 27.5166 130.562 26.9255 130.005 26.1633L131.697 24.2966C132.04 24.8566 132.497 25.3155 133.068 25.6733C133.64 26.0311 134.318 26.21 135.103 26.21C135.66 26.21 136.103 26.1244 136.431 25.9533C136.774 25.7666 136.945 25.4789 136.945 25.09C136.945 24.8411 136.867 24.6311 136.71 24.46C136.553 24.2733 136.239 24.1255 135.767 24.0166L133.882 23.5966C132.64 23.3166 131.755 22.8966 131.226 22.3366C130.712 21.7611 130.455 21.0222 130.455 20.12C130.455 19.4822 130.626 18.8833 130.969 18.3233C131.326 17.7633 131.854 17.3122 132.554 16.97C133.254 16.6122 134.125 16.4333 135.168 16.4333C137.338 16.4333 138.895 17.1566 139.837 18.6033L138.081 20.47C137.767 19.9255 137.352 19.5133 136.838 19.2333C136.339 18.9378 135.81 18.79 135.253 18.79C133.997 18.79 133.368 19.1711 133.368 19.9333C133.368 20.1822 133.468 20.4 133.668 20.5866C133.868 20.7578 134.232 20.9055 134.761 21.03L136.945 21.52C138.002 21.7533 138.759 22.15 139.216 22.71C139.673 23.2544 139.902 23.9155 139.902 24.6933C139.902 25.8133 139.487 26.7389 138.659 27.47C137.845 28.2011 136.674 28.5666 135.146 28.5666Z" fill="url(#paint8_linear_37_86)"/>
<path d="M56.7867 24.0866C56.3583 25.5955 55.6085 26.7233 54.5375 27.47C53.4664 28.2011 52.2169 28.5666 50.7889 28.5666C49.3894 28.5666 48.1755 28.2478 47.1473 27.61C46.1334 26.9722 45.348 26.0622 44.791 24.88C44.2484 23.6978 43.9771 22.2822 43.9771 20.6333C43.9771 18.9844 44.2555 17.5689 44.8125 16.3866C45.3694 15.2044 46.1548 14.2944 47.1687 13.6566C48.1827 13.0189 49.3751 12.7 50.746 12.7C52.1883 12.7 53.4236 13.0344 54.4518 13.7033C55.4943 14.3566 56.2083 15.3522 56.5939 16.69L53.9163 17.9266C53.6735 16.9933 53.3022 16.3322 52.8024 15.9433C52.3026 15.5389 51.66 15.3366 50.8745 15.3366C49.7035 15.3366 48.7682 15.7955 48.0684 16.7133C47.383 17.6155 47.0402 18.9222 47.0402 20.6333C47.0402 22.3289 47.3687 23.6355 48.0256 24.5533C48.6825 25.4711 49.6321 25.93 50.8745 25.93C51.6457 25.93 52.3097 25.7044 52.8667 25.2533C53.4379 24.8022 53.8377 24.1178 54.0662 23.2L56.7867 24.0866Z" stroke="url(#paint9_linear_37_86)" stroke-width="0.5" mask="url(#path-4-outside-1_37_86)"/>
<path d="M60.4843 14.9866C59.2704 14.9866 58.6635 14.4189 58.6635 13.2833C58.6635 12.1322 59.2704 11.5566 60.4843 11.5566C61.6981 11.5566 62.305 12.1322 62.305 13.2833C62.305 14.4189 61.6981 14.9866 60.4843 14.9866ZM61.9409 16.6666V28.3333H59.0062V16.6666H61.9409Z" stroke="url(#paint10_linear_37_86)" stroke-width="0.5" mask="url(#path-4-outside-1_37_86)"/>
<path d="M65.0517 28.3333V16.6666H67.6008L67.7936 18.9533C68.0649 18.16 68.4719 17.5455 69.0146 17.11C69.5715 16.6589 70.2713 16.4333 71.1138 16.4333C71.6136 16.4333 71.9992 16.5189 72.2705 16.69L71.9278 19.3733C71.785 19.3266 71.6065 19.2878 71.3923 19.2566C71.1923 19.21 70.9282 19.1866 70.5997 19.1866C70.157 19.1866 69.7357 19.3033 69.3359 19.5366C68.9503 19.7544 68.629 20.0966 68.3719 20.5633C68.1149 21.0144 67.9864 21.59 67.9864 22.29V28.3333H65.0517Z" stroke="url(#paint11_linear_37_86)" stroke-width="0.5" mask="url(#path-4-outside-1_37_86)"/>
<path d="M78.7419 16.4333C80.17 16.4333 81.2767 16.7678 82.0622 17.4366C82.8619 18.1055 83.3902 18.9144 83.6473 19.8633L80.9054 20.9366C80.6198 19.5211 79.9129 18.8133 78.7848 18.8133C77.9708 18.8133 77.3353 19.1244 76.8783 19.7466C76.4356 20.3689 76.2143 21.2944 76.2143 22.5233C76.2143 23.7678 76.4428 24.6933 76.8998 25.3C77.371 25.8911 78.0065 26.1866 78.8062 26.1866C80.0486 26.1866 80.7912 25.4944 81.034 24.11L83.6901 25.0433C83.4474 26.0855 82.9047 26.9333 82.0622 27.5866C81.2339 28.24 80.1557 28.5666 78.8276 28.5666C77.7137 28.5666 76.7355 28.3255 75.893 27.8433C75.0647 27.3611 74.4221 26.6689 73.9651 25.7666C73.5081 24.8644 73.2796 23.7755 73.2796 22.5C73.2796 21.2244 73.5081 20.1355 73.9651 19.2333C74.4364 18.3311 75.079 17.6389 75.893 17.1566C76.7212 16.6744 77.6709 16.4333 78.7419 16.4333Z" stroke="url(#paint12_linear_37_86)" stroke-width="0.5" mask="url(#path-4-outside-1_37_86)"/>
<path d="M90.8544 16.4333C91.9254 16.4333 92.8751 16.6744 93.7033 17.1566C94.5316 17.6389 95.1742 18.3311 95.6312 19.2333C96.1025 20.1355 96.3381 21.2244 96.3381 22.5C96.3381 23.7755 96.1025 24.8644 95.6312 25.7666C95.1742 26.6689 94.5316 27.3611 93.7033 27.8433C92.8751 28.3255 91.9254 28.5666 90.8544 28.5666C89.7691 28.5666 88.8123 28.3255 87.984 27.8433C87.17 27.3611 86.5274 26.6689 86.0561 25.7666C85.5991 24.8644 85.3707 23.7755 85.3707 22.5C85.3707 21.2244 85.5991 20.1355 86.0561 19.2333C86.5274 18.3311 87.17 17.6389 87.984 17.1566C88.8123 16.6744 89.7691 16.4333 90.8544 16.4333ZM90.8544 18.8133C90.0547 18.8133 89.4263 19.1244 88.9693 19.7466C88.5266 20.3533 88.3053 21.2711 88.3053 22.5C88.3053 23.7289 88.5266 24.6544 88.9693 25.2766C89.4263 25.8833 90.0547 26.1866 90.8544 26.1866C91.6398 26.1866 92.2539 25.8833 92.6966 25.2766C93.1535 24.6544 93.382 23.7289 93.382 22.5C93.382 21.2711 93.1535 20.3533 92.6966 19.7466C92.2539 19.1244 91.6398 18.8133 90.8544 18.8133Z" stroke="url(#paint13_linear_37_86)" stroke-width="0.5" mask="url(#path-4-outside-1_37_86)"/>
<path d="M103.678 16.4333C104.749 16.4333 105.698 16.6744 106.527 17.1566C107.355 17.6389 107.997 18.3311 108.454 19.2333C108.926 20.1355 109.161 21.2244 109.161 22.5C109.161 23.7755 108.926 24.8644 108.454 25.7666C107.997 26.6689 107.355 27.3611 106.527 27.8433C105.698 28.3255 104.749 28.5666 103.678 28.5666C102.592 28.5666 101.635 28.3255 100.807 27.8433C99.9932 27.3611 99.3505 26.6689 98.8793 25.7666C98.4223 24.8644 98.1938 23.7755 98.1938 22.5C98.1938 21.2244 98.4223 20.1355 98.8793 19.2333C99.3505 18.3311 99.9932 17.6389 100.807 17.1566C101.635 16.6744 102.592 16.4333 103.678 16.4333ZM103.678 18.8133C102.878 18.8133 102.249 19.1244 101.793 19.7466C101.35 20.3533 101.128 21.2711 101.128 22.5C101.128 23.7289 101.35 24.6544 101.793 25.2766C102.249 25.8833 102.878 26.1866 103.678 26.1866C104.463 26.1866 105.077 25.8833 105.52 25.2766C105.977 24.6544 106.205 23.7289 106.205 22.5C106.205 21.2711 105.977 20.3533 105.52 19.7466C105.077 19.1244 104.463 18.8133 103.678 18.8133Z" stroke="url(#paint14_linear_37_86)" stroke-width="0.5" mask="url(#path-4-outside-1_37_86)"/>
<path d="M114.509 11.5566V24.74C114.509 25.2844 114.594 25.6655 114.766 25.8833C114.937 26.1011 115.223 26.21 115.622 26.21C115.865 26.21 116.065 26.1944 116.222 26.1633C116.379 26.1322 116.579 26.07 116.822 25.9766L116.565 28.0766C116.322 28.2322 116.015 28.3489 115.644 28.4266C115.287 28.52 114.93 28.5666 114.573 28.5666C113.53 28.5666 112.766 28.2944 112.281 27.75C111.81 27.19 111.574 26.3033 111.574 25.09V11.5566H114.509Z" stroke="url(#paint15_linear_37_86)" stroke-width="0.5" mask="url(#path-4-outside-1_37_86)"/>
<path d="M123.427 28.5666C121.742 28.5666 120.392 28.0378 119.378 26.98C118.364 25.9066 117.857 24.4133 117.857 22.5C117.857 21.2244 118.086 20.1355 118.543 19.2333C119 18.3311 119.635 17.6389 120.449 17.1566C121.278 16.6744 122.22 16.4333 123.277 16.4333C124.362 16.4333 125.283 16.6744 126.04 17.1566C126.797 17.6233 127.375 18.2689 127.775 19.0933C128.175 19.9022 128.375 20.8278 128.375 21.87C128.375 22.1811 128.368 22.4766 128.354 22.7566C128.339 23.0366 128.318 23.2855 128.289 23.5033H120.728C120.842 24.4055 121.128 25.0822 121.585 25.5333C122.056 25.9689 122.663 26.1866 123.405 26.1866C124.034 26.1866 124.541 26.0544 124.926 25.79C125.312 25.5255 125.612 25.16 125.826 24.6933L128.161 25.6733C127.818 26.5911 127.218 27.3066 126.361 27.82C125.505 28.3178 124.526 28.5666 123.427 28.5666ZM123.255 18.79C121.87 18.79 121.035 19.6222 120.749 21.2866H125.569C125.483 20.4778 125.24 19.8633 124.841 19.4433C124.455 19.0078 123.927 18.79 123.255 18.79Z" stroke="url(#paint16_linear_37_86)" stroke-width="0.5" mask="url(#path-4-outside-1_37_86)"/>
<path d="M135.146 28.5666C134.061 28.5666 133.068 28.3566 132.169 27.9366C131.283 27.5166 130.562 26.9255 130.005 26.1633L131.697 24.2966C132.04 24.8566 132.497 25.3155 133.068 25.6733C133.64 26.0311 134.318 26.21 135.103 26.21C135.66 26.21 136.103 26.1244 136.431 25.9533C136.774 25.7666 136.945 25.4789 136.945 25.09C136.945 24.8411 136.867 24.6311 136.71 24.46C136.553 24.2733 136.239 24.1255 135.767 24.0166L133.882 23.5966C132.64 23.3166 131.755 22.8966 131.226 22.3366C130.712 21.7611 130.455 21.0222 130.455 20.12C130.455 19.4822 130.626 18.8833 130.969 18.3233C131.326 17.7633 131.854 17.3122 132.554 16.97C133.254 16.6122 134.125 16.4333 135.168 16.4333C137.338 16.4333 138.895 17.1566 139.837 18.6033L138.081 20.47C137.767 19.9255 137.352 19.5133 136.838 19.2333C136.339 18.9378 135.81 18.79 135.253 18.79C133.997 18.79 133.368 19.1711 133.368 19.9333C133.368 20.1822 133.468 20.4 133.668 20.5866C133.868 20.7578 134.232 20.9055 134.761 21.03L136.945 21.52C138.002 21.7533 138.759 22.15 139.216 22.71C139.673 23.2544 139.902 23.9155 139.902 24.6933C139.902 25.8133 139.487 26.7389 138.659 27.47C137.845 28.2011 136.674 28.5666 135.146 28.5666Z" stroke="url(#paint17_linear_37_86)" stroke-width="0.5" mask="url(#path-4-outside-1_37_86)"/>
<defs>
<linearGradient id="paint0_linear_37_86" x1="91.8034" y1="11.6667" x2="51.1959" y2="72.7408" gradientUnits="userSpaceOnUse">
<stop stop-color="white"/>
<stop offset="1" stop-color="#7E7F81"/>
</linearGradient>
<linearGradient id="paint1_linear_37_86" x1="91.8034" y1="11.6667" x2="51.1959" y2="72.7408" gradientUnits="userSpaceOnUse">
<stop stop-color="white"/>
<stop offset="1" stop-color="#7E7F81"/>
</linearGradient>
<linearGradient id="paint2_linear_37_86" x1="91.8034" y1="11.6667" x2="51.1959" y2="72.7408" gradientUnits="userSpaceOnUse">
<stop stop-color="white"/>
<stop offset="1" stop-color="#7E7F81"/>
</linearGradient>
<linearGradient id="paint3_linear_37_86" x1="91.8034" y1="11.6667" x2="51.1959" y2="72.7408" gradientUnits="userSpaceOnUse">
<stop stop-color="white"/>
<stop offset="1" stop-color="#7E7F81"/>
</linearGradient>
<linearGradient id="paint4_linear_37_86" x1="91.8034" y1="11.6667" x2="51.1959" y2="72.7408" gradientUnits="userSpaceOnUse">
<stop stop-color="white"/>
<stop offset="1" stop-color="#7E7F81"/>
</linearGradient>
<linearGradient id="paint5_linear_37_86" x1="91.8034" y1="11.6667" x2="51.1959" y2="72.7408" gradientUnits="userSpaceOnUse">
<stop stop-color="white"/>
<stop offset="1" stop-color="#7E7F81"/>
</linearGradient>
<linearGradient id="paint6_linear_37_86" x1="91.8034" y1="11.6667" x2="51.1959" y2="72.7408" gradientUnits="userSpaceOnUse">
<stop stop-color="white"/>
<stop offset="1" stop-color="#7E7F81"/>
</linearGradient>
<linearGradient id="paint7_linear_37_86" x1="91.8034" y1="11.6667" x2="51.1959" y2="72.7408" gradientUnits="userSpaceOnUse">
<stop stop-color="white"/>
<stop offset="1" stop-color="#7E7F81"/>
</linearGradient>
<linearGradient id="paint8_linear_37_86" x1="91.8034" y1="11.6667" x2="51.1959" y2="72.7408" gradientUnits="userSpaceOnUse">
<stop stop-color="white"/>
<stop offset="1" stop-color="#7E7F81"/>
</linearGradient>
<linearGradient id="paint9_linear_37_86" x1="91.8034" y1="11.6667" x2="61.0649" y2="95.9146" gradientUnits="userSpaceOnUse">
<stop stop-color="white"/>
<stop offset="1" stop-color="#FF7A00"/>
</linearGradient>
<linearGradient id="paint10_linear_37_86" x1="91.8034" y1="11.6667" x2="61.0649" y2="95.9146" gradientUnits="userSpaceOnUse">
<stop stop-color="white"/>
<stop offset="1" stop-color="#FF7A00"/>
</linearGradient>
<linearGradient id="paint11_linear_37_86" x1="91.8034" y1="11.6667" x2="61.0649" y2="95.9146" gradientUnits="userSpaceOnUse">
<stop stop-color="white"/>
<stop offset="1" stop-color="#FF7A00"/>
</linearGradient>
<linearGradient id="paint12_linear_37_86" x1="91.8034" y1="11.6667" x2="61.0649" y2="95.9146" gradientUnits="userSpaceOnUse">
<stop stop-color="white"/>
<stop offset="1" stop-color="#FF7A00"/>
</linearGradient>
<linearGradient id="paint13_linear_37_86" x1="91.8034" y1="11.6667" x2="61.0649" y2="95.9146" gradientUnits="userSpaceOnUse">
<stop stop-color="white"/>
<stop offset="1" stop-color="#FF7A00"/>
</linearGradient>
<linearGradient id="paint14_linear_37_86" x1="91.8034" y1="11.6667" x2="61.0649" y2="95.9146" gradientUnits="userSpaceOnUse">
<stop stop-color="white"/>
<stop offset="1" stop-color="#FF7A00"/>
</linearGradient>
<linearGradient id="paint15_linear_37_86" x1="91.8034" y1="11.6667" x2="61.0649" y2="95.9146" gradientUnits="userSpaceOnUse">
<stop stop-color="white"/>
<stop offset="1" stop-color="#FF7A00"/>
</linearGradient>
<linearGradient id="paint16_linear_37_86" x1="91.8034" y1="11.6667" x2="61.0649" y2="95.9146" gradientUnits="userSpaceOnUse">
<stop stop-color="white"/>
<stop offset="1" stop-color="#FF7A00"/>
</linearGradient>
<linearGradient id="paint17_linear_37_86" x1="91.8034" y1="11.6667" x2="61.0649" y2="95.9146" gradientUnits="userSpaceOnUse">
<stop stop-color="white"/>
<stop offset="1" stop-color="#FF7A00"/>
</linearGradient>
</defs>
</svg>
