<svg width="140" height="40" viewBox="0 0 140 40" fill="none" xmlns="http://www.w3.org/2000/svg">
<rect y="16" width="7.95265" height="7.99999" fill="#7E7F81"/>
<rect x="23.8579" y="24" width="7.95266" height="7.99999" transform="rotate(180 23.8579 24)" fill="#7E7F81"/>
<path d="M7.95264 16L15.9053 8V16L7.95264 24V16Z" fill="white"/>
<path d="M15.9053 24L7.95262 32L7.95262 24L15.9053 16L15.9053 24Z" fill="white"/>
<path d="M0 16L15.9053 0V7.99999L7.95265 16H0Z" fill="white"/>
<path d="M23.8579 24L7.9526 40L7.9526 32L15.9053 24L23.8579 24Z" fill="#7E7F81"/>
<mask id="path-7-outside-1_37_87" maskUnits="userSpaceOnUse" x="33.7764" y="9.31995" width="106" height="24" fill="black">
<rect fill="white" x="33.7764" y="9.31995" width="106" height="24"/>
<path d="M41.1783 28.5666C39.9257 28.5666 38.7118 28.3877 37.5366 28.0299C36.3768 27.6722 35.4568 27.1977 34.7764 26.6066L35.8202 24.2499C36.4851 24.7788 37.2969 25.2144 38.2557 25.5566C39.2299 25.8833 40.2041 26.0466 41.1783 26.0466C42.3844 26.0466 43.2813 25.8522 43.8689 25.4633C44.472 25.0744 44.7735 24.5611 44.7735 23.9233C44.7735 23.4566 44.6034 23.0755 44.2632 22.7799C43.9385 22.4688 43.521 22.2277 43.0107 22.0566C42.5004 21.8855 41.8045 21.6911 40.9231 21.4733C39.686 21.1777 38.6809 20.8822 37.9077 20.5866C37.15 20.2911 36.4928 19.8322 35.9361 19.2099C35.3949 18.5722 35.1243 17.7166 35.1243 16.6433C35.1243 15.7411 35.364 14.9244 35.8433 14.1933C36.3382 13.4466 37.0727 12.8555 38.0469 12.4199C39.0366 11.9844 40.2427 11.7666 41.6654 11.7666C42.655 11.7666 43.6292 11.8911 44.588 12.1399C45.5467 12.3888 46.374 12.7466 47.0699 13.2133L46.1189 15.5699C45.4075 15.1499 44.6653 14.8311 43.8921 14.6133C43.1189 14.3955 42.369 14.2866 41.6422 14.2866C40.4515 14.2866 39.5623 14.4888 38.9747 14.8933C38.4026 15.2977 38.1165 15.8344 38.1165 16.5033C38.1165 16.9699 38.2789 17.3511 38.6036 17.6466C38.9438 17.9422 39.369 18.1755 39.8793 18.3466C40.3896 18.5177 41.0855 18.7122 41.9669 18.9299C43.1731 19.2099 44.1627 19.5055 44.9359 19.8166C45.7091 20.1122 46.3663 20.5711 46.9075 21.1933C47.4642 21.8155 47.7425 22.6555 47.7425 23.7133C47.7425 24.6155 47.4951 25.4322 47.0003 26.1633C46.5209 26.8944 45.7864 27.4777 44.7967 27.9133C43.8071 28.3488 42.6009 28.5666 41.1783 28.5666Z"/>
<path d="M50.4542 15.8733H53.3536V28.3333H50.4542V15.8733ZM51.9155 13.8199C51.3897 13.8199 50.949 13.6566 50.5934 13.3299C50.2377 12.9877 50.0599 12.5677 50.0599 12.0699C50.0599 11.5722 50.2377 11.1599 50.5934 10.8333C50.949 10.4911 51.3897 10.3199 51.9155 10.3199C52.4413 10.3199 52.882 10.4833 53.2376 10.8099C53.5933 11.1211 53.7711 11.5177 53.7711 11.9999C53.7711 12.5133 53.5933 12.9488 53.2376 13.3066C52.8974 13.6488 52.4567 13.8199 51.9155 13.8199Z"/>
<path d="M60.9863 28.4966C59.9812 28.4966 58.9992 28.3644 58.0405 28.0999C57.0818 27.8355 56.3163 27.5011 55.7442 27.0966L56.8575 24.8799C57.4142 25.2533 58.0792 25.5566 58.8523 25.7899C59.641 26.0077 60.4141 26.1166 61.1719 26.1166C62.9038 26.1166 63.7697 25.6577 63.7697 24.7399C63.7697 24.3044 63.5455 24.0011 63.0971 23.8299C62.6641 23.6588 61.9605 23.4955 60.9863 23.3399C59.9657 23.1844 59.1307 23.0055 58.4812 22.8033C57.8472 22.6011 57.2905 22.2511 56.8111 21.7533C56.3472 21.2399 56.1153 20.5322 56.1153 19.6299C56.1153 18.4477 56.6024 17.5066 57.5766 16.8066C58.5663 16.0911 59.8961 15.7333 61.5662 15.7333C62.4167 15.7333 63.2672 15.8344 64.1177 16.0366C64.9681 16.2233 65.664 16.4799 66.2052 16.8066L65.0919 19.0233C64.0403 18.4011 62.8574 18.0899 61.543 18.0899C60.6925 18.0899 60.043 18.2222 59.5946 18.4866C59.1616 18.7355 58.9451 19.0699 58.9451 19.4899C58.9451 19.9566 59.1771 20.2911 59.641 20.4933C60.1203 20.6799 60.8549 20.8588 61.8445 21.0299C62.8342 21.1855 63.646 21.3644 64.28 21.5666C64.914 21.7688 65.4552 22.1111 65.9037 22.5933C66.3676 23.0755 66.5995 23.7599 66.5995 24.6466C66.5995 25.8133 66.097 26.7466 65.0919 27.4466C64.0867 28.1466 62.7182 28.4966 60.9863 28.4966Z"/>
<path d="M80.4676 15.8733L74.6688 29.3366C74.1276 30.6899 73.4704 31.6388 72.6972 32.1833C71.924 32.7433 70.9885 33.0233 69.8906 33.0233C69.272 33.0233 68.6612 32.9222 68.0581 32.7199C67.4551 32.5177 66.9602 32.2377 66.5736 31.8799L67.7334 29.7333C68.0117 29.9977 68.3365 30.2077 68.7076 30.3633C69.0942 30.5188 69.4808 30.5966 69.8674 30.5966C70.3777 30.5966 70.7952 30.4644 71.1199 30.1999C71.4601 29.9355 71.7694 29.4922 72.0477 28.8699L72.2565 28.3799L66.852 15.8733H69.8674L73.7642 25.0899L77.6842 15.8733H80.4676Z"/>
<path d="M89.1455 15.7333C90.3517 15.7333 91.4264 15.9977 92.3697 16.5266C93.3284 17.0555 94.0784 17.8022 94.6196 18.7666C95.1608 19.7311 95.4314 20.8433 95.4314 22.1033C95.4314 23.3633 95.1608 24.4833 94.6196 25.4633C94.0784 26.4277 93.3284 27.1744 92.3697 27.7033C91.4264 28.2322 90.3517 28.4966 89.1455 28.4966C87.4755 28.4966 86.1533 27.9366 85.1791 26.8166V32.8599H82.2797V15.8733H85.04V17.5066C85.5193 16.9155 86.1069 16.4722 86.8028 16.1766C87.5141 15.8811 88.295 15.7333 89.1455 15.7333ZM88.8208 25.9999C89.8878 25.9999 90.7615 25.6422 91.4419 24.9266C92.1377 24.2111 92.4856 23.2699 92.4856 22.1033C92.4856 20.9366 92.1377 19.9955 91.4419 19.2799C90.7615 18.5644 89.8878 18.2066 88.8208 18.2066C88.1249 18.2066 87.4987 18.3699 86.942 18.6966C86.3853 19.0077 85.9446 19.4588 85.6198 20.0499C85.2951 20.6411 85.1327 21.3255 85.1327 22.1033C85.1327 22.8811 85.2951 23.5655 85.6198 24.1566C85.9446 24.7477 86.3853 25.2066 86.942 25.5333C87.4987 25.8444 88.1249 25.9999 88.8208 25.9999Z"/>
<path d="M105.209 15.7333C106.771 15.7333 108.024 16.1922 108.967 17.1099C109.91 18.0277 110.382 19.3888 110.382 21.1933V28.3333H107.482V21.5666C107.482 20.4777 107.227 19.6611 106.717 19.1166C106.207 18.5566 105.48 18.2766 104.537 18.2766C103.47 18.2766 102.627 18.6033 102.008 19.2566C101.39 19.8944 101.081 20.8199 101.081 22.0333V28.3333H98.1812V11.0199H101.081V17.3199C101.56 16.8066 102.148 16.4177 102.843 16.1533C103.555 15.8733 104.343 15.7333 105.209 15.7333Z"/>
<path d="M126.052 15.8733V28.3333H123.292V26.7466C122.828 27.3066 122.248 27.7422 121.552 28.0533C120.856 28.3488 120.106 28.4966 119.302 28.4966C117.647 28.4966 116.341 28.0377 115.382 27.1199C114.439 26.1866 113.967 24.8099 113.967 22.9899V15.8733H116.867V22.5933C116.867 23.7133 117.114 24.5533 117.609 25.1133C118.119 25.6577 118.838 25.9299 119.766 25.9299C120.802 25.9299 121.622 25.6111 122.225 24.9733C122.843 24.3199 123.152 23.3866 123.152 22.1733V15.8733H126.052Z"/>
<path d="M133.675 28.4966C132.67 28.4966 131.688 28.3644 130.73 28.0999C129.771 27.8355 129.005 27.5011 128.433 27.0966L129.547 24.8799C130.103 25.2533 130.768 25.5566 131.541 25.7899C132.33 26.0077 133.103 26.1166 133.861 26.1166C135.593 26.1166 136.459 25.6577 136.459 24.7399C136.459 24.3044 136.235 24.0011 135.786 23.8299C135.353 23.6588 134.65 23.4955 133.675 23.3399C132.655 23.1844 131.82 23.0055 131.17 22.8033C130.536 22.6011 129.98 22.2511 129.5 21.7533C129.036 21.2399 128.804 20.5322 128.804 19.6299C128.804 18.4477 129.291 17.5066 130.266 16.8066C131.255 16.0911 132.585 15.7333 134.255 15.7333C135.106 15.7333 135.956 15.8344 136.807 16.0366C137.657 16.2233 138.353 16.4799 138.894 16.8066L137.781 19.0233C136.729 18.4011 135.546 18.0899 134.232 18.0899C133.382 18.0899 132.732 18.2222 132.284 18.4866C131.851 18.7355 131.634 19.0699 131.634 19.4899C131.634 19.9566 131.866 20.2911 132.33 20.4933C132.809 20.6799 133.544 20.8588 134.534 21.0299C135.523 21.1855 136.335 21.3644 136.969 21.5666C137.603 21.7688 138.144 22.1111 138.593 22.5933C139.057 23.0755 139.289 23.7599 139.289 24.6466C139.289 25.8133 138.786 26.7466 137.781 27.4466C136.776 28.1466 135.407 28.4966 133.675 28.4966Z"/>
</mask>
<path d="M41.1783 28.5666C39.9257 28.5666 38.7118 28.3877 37.5366 28.0299C36.3768 27.6722 35.4568 27.1977 34.7764 26.6066L35.8202 24.2499C36.4851 24.7788 37.2969 25.2144 38.2557 25.5566C39.2299 25.8833 40.2041 26.0466 41.1783 26.0466C42.3844 26.0466 43.2813 25.8522 43.8689 25.4633C44.472 25.0744 44.7735 24.5611 44.7735 23.9233C44.7735 23.4566 44.6034 23.0755 44.2632 22.7799C43.9385 22.4688 43.521 22.2277 43.0107 22.0566C42.5004 21.8855 41.8045 21.6911 40.9231 21.4733C39.686 21.1777 38.6809 20.8822 37.9077 20.5866C37.15 20.2911 36.4928 19.8322 35.9361 19.2099C35.3949 18.5722 35.1243 17.7166 35.1243 16.6433C35.1243 15.7411 35.364 14.9244 35.8433 14.1933C36.3382 13.4466 37.0727 12.8555 38.0469 12.4199C39.0366 11.9844 40.2427 11.7666 41.6654 11.7666C42.655 11.7666 43.6292 11.8911 44.588 12.1399C45.5467 12.3888 46.374 12.7466 47.0699 13.2133L46.1189 15.5699C45.4075 15.1499 44.6653 14.8311 43.8921 14.6133C43.1189 14.3955 42.369 14.2866 41.6422 14.2866C40.4515 14.2866 39.5623 14.4888 38.9747 14.8933C38.4026 15.2977 38.1165 15.8344 38.1165 16.5033C38.1165 16.9699 38.2789 17.3511 38.6036 17.6466C38.9438 17.9422 39.369 18.1755 39.8793 18.3466C40.3896 18.5177 41.0855 18.7122 41.9669 18.9299C43.1731 19.2099 44.1627 19.5055 44.9359 19.8166C45.7091 20.1122 46.3663 20.5711 46.9075 21.1933C47.4642 21.8155 47.7425 22.6555 47.7425 23.7133C47.7425 24.6155 47.4951 25.4322 47.0003 26.1633C46.5209 26.8944 45.7864 27.4777 44.7967 27.9133C43.8071 28.3488 42.6009 28.5666 41.1783 28.5666Z" fill="url(#paint0_linear_37_87)"/>
<path d="M50.4542 15.8733H53.3536V28.3333H50.4542V15.8733ZM51.9155 13.8199C51.3897 13.8199 50.949 13.6566 50.5934 13.3299C50.2377 12.9877 50.0599 12.5677 50.0599 12.0699C50.0599 11.5722 50.2377 11.1599 50.5934 10.8333C50.949 10.4911 51.3897 10.3199 51.9155 10.3199C52.4413 10.3199 52.882 10.4833 53.2376 10.8099C53.5933 11.1211 53.7711 11.5177 53.7711 11.9999C53.7711 12.5133 53.5933 12.9488 53.2376 13.3066C52.8974 13.6488 52.4567 13.8199 51.9155 13.8199Z" fill="url(#paint1_linear_37_87)"/>
<path d="M60.9863 28.4966C59.9812 28.4966 58.9992 28.3644 58.0405 28.0999C57.0818 27.8355 56.3163 27.5011 55.7442 27.0966L56.8575 24.8799C57.4142 25.2533 58.0792 25.5566 58.8523 25.7899C59.641 26.0077 60.4141 26.1166 61.1719 26.1166C62.9038 26.1166 63.7697 25.6577 63.7697 24.7399C63.7697 24.3044 63.5455 24.0011 63.0971 23.8299C62.6641 23.6588 61.9605 23.4955 60.9863 23.3399C59.9657 23.1844 59.1307 23.0055 58.4812 22.8033C57.8472 22.6011 57.2905 22.2511 56.8111 21.7533C56.3472 21.2399 56.1153 20.5322 56.1153 19.6299C56.1153 18.4477 56.6024 17.5066 57.5766 16.8066C58.5663 16.0911 59.8961 15.7333 61.5662 15.7333C62.4167 15.7333 63.2672 15.8344 64.1177 16.0366C64.9681 16.2233 65.664 16.4799 66.2052 16.8066L65.0919 19.0233C64.0403 18.4011 62.8574 18.0899 61.543 18.0899C60.6925 18.0899 60.043 18.2222 59.5946 18.4866C59.1616 18.7355 58.9451 19.0699 58.9451 19.4899C58.9451 19.9566 59.1771 20.2911 59.641 20.4933C60.1203 20.6799 60.8549 20.8588 61.8445 21.0299C62.8342 21.1855 63.646 21.3644 64.28 21.5666C64.914 21.7688 65.4552 22.1111 65.9037 22.5933C66.3676 23.0755 66.5995 23.7599 66.5995 24.6466C66.5995 25.8133 66.097 26.7466 65.0919 27.4466C64.0867 28.1466 62.7182 28.4966 60.9863 28.4966Z" fill="url(#paint2_linear_37_87)"/>
<path d="M80.4676 15.8733L74.6688 29.3366C74.1276 30.6899 73.4704 31.6388 72.6972 32.1833C71.924 32.7433 70.9885 33.0233 69.8906 33.0233C69.272 33.0233 68.6612 32.9222 68.0581 32.7199C67.4551 32.5177 66.9602 32.2377 66.5736 31.8799L67.7334 29.7333C68.0117 29.9977 68.3365 30.2077 68.7076 30.3633C69.0942 30.5188 69.4808 30.5966 69.8674 30.5966C70.3777 30.5966 70.7952 30.4644 71.1199 30.1999C71.4601 29.9355 71.7694 29.4922 72.0477 28.8699L72.2565 28.3799L66.852 15.8733H69.8674L73.7642 25.0899L77.6842 15.8733H80.4676Z" fill="url(#paint3_linear_37_87)"/>
<path d="M89.1455 15.7333C90.3517 15.7333 91.4264 15.9977 92.3697 16.5266C93.3284 17.0555 94.0784 17.8022 94.6196 18.7666C95.1608 19.7311 95.4314 20.8433 95.4314 22.1033C95.4314 23.3633 95.1608 24.4833 94.6196 25.4633C94.0784 26.4277 93.3284 27.1744 92.3697 27.7033C91.4264 28.2322 90.3517 28.4966 89.1455 28.4966C87.4755 28.4966 86.1533 27.9366 85.1791 26.8166V32.8599H82.2797V15.8733H85.04V17.5066C85.5193 16.9155 86.1069 16.4722 86.8028 16.1766C87.5141 15.8811 88.295 15.7333 89.1455 15.7333ZM88.8208 25.9999C89.8878 25.9999 90.7615 25.6422 91.4419 24.9266C92.1377 24.2111 92.4856 23.2699 92.4856 22.1033C92.4856 20.9366 92.1377 19.9955 91.4419 19.2799C90.7615 18.5644 89.8878 18.2066 88.8208 18.2066C88.1249 18.2066 87.4987 18.3699 86.942 18.6966C86.3853 19.0077 85.9446 19.4588 85.6198 20.0499C85.2951 20.6411 85.1327 21.3255 85.1327 22.1033C85.1327 22.8811 85.2951 23.5655 85.6198 24.1566C85.9446 24.7477 86.3853 25.2066 86.942 25.5333C87.4987 25.8444 88.1249 25.9999 88.8208 25.9999Z" fill="url(#paint4_linear_37_87)"/>
<path d="M105.209 15.7333C106.771 15.7333 108.024 16.1922 108.967 17.1099C109.91 18.0277 110.382 19.3888 110.382 21.1933V28.3333H107.482V21.5666C107.482 20.4777 107.227 19.6611 106.717 19.1166C106.207 18.5566 105.48 18.2766 104.537 18.2766C103.47 18.2766 102.627 18.6033 102.008 19.2566C101.39 19.8944 101.081 20.8199 101.081 22.0333V28.3333H98.1812V11.0199H101.081V17.3199C101.56 16.8066 102.148 16.4177 102.843 16.1533C103.555 15.8733 104.343 15.7333 105.209 15.7333Z" fill="url(#paint5_linear_37_87)"/>
<path d="M126.052 15.8733V28.3333H123.292V26.7466C122.828 27.3066 122.248 27.7422 121.552 28.0533C120.856 28.3488 120.106 28.4966 119.302 28.4966C117.647 28.4966 116.341 28.0377 115.382 27.1199C114.439 26.1866 113.967 24.8099 113.967 22.9899V15.8733H116.867V22.5933C116.867 23.7133 117.114 24.5533 117.609 25.1133C118.119 25.6577 118.838 25.9299 119.766 25.9299C120.802 25.9299 121.622 25.6111 122.225 24.9733C122.843 24.3199 123.152 23.3866 123.152 22.1733V15.8733H126.052Z" fill="url(#paint6_linear_37_87)"/>
<path d="M133.675 28.4966C132.67 28.4966 131.688 28.3644 130.73 28.0999C129.771 27.8355 129.005 27.5011 128.433 27.0966L129.547 24.8799C130.103 25.2533 130.768 25.5566 131.541 25.7899C132.33 26.0077 133.103 26.1166 133.861 26.1166C135.593 26.1166 136.459 25.6577 136.459 24.7399C136.459 24.3044 136.235 24.0011 135.786 23.8299C135.353 23.6588 134.65 23.4955 133.675 23.3399C132.655 23.1844 131.82 23.0055 131.17 22.8033C130.536 22.6011 129.98 22.2511 129.5 21.7533C129.036 21.2399 128.804 20.5322 128.804 19.6299C128.804 18.4477 129.291 17.5066 130.266 16.8066C131.255 16.0911 132.585 15.7333 134.255 15.7333C135.106 15.7333 135.956 15.8344 136.807 16.0366C137.657 16.2233 138.353 16.4799 138.894 16.8066L137.781 19.0233C136.729 18.4011 135.546 18.0899 134.232 18.0899C133.382 18.0899 132.732 18.2222 132.284 18.4866C131.851 18.7355 131.634 19.0699 131.634 19.4899C131.634 19.9566 131.866 20.2911 132.33 20.4933C132.809 20.6799 133.544 20.8588 134.534 21.0299C135.523 21.1855 136.335 21.3644 136.969 21.5666C137.603 21.7688 138.144 22.1111 138.593 22.5933C139.057 23.0755 139.289 23.7599 139.289 24.6466C139.289 25.8133 138.786 26.7466 137.781 27.4466C136.776 28.1466 135.407 28.4966 133.675 28.4966Z" fill="url(#paint7_linear_37_87)"/>
<path d="M41.1783 28.5666C39.9257 28.5666 38.7118 28.3877 37.5366 28.0299C36.3768 27.6722 35.4568 27.1977 34.7764 26.6066L35.8202 24.2499C36.4851 24.7788 37.2969 25.2144 38.2557 25.5566C39.2299 25.8833 40.2041 26.0466 41.1783 26.0466C42.3844 26.0466 43.2813 25.8522 43.8689 25.4633C44.472 25.0744 44.7735 24.5611 44.7735 23.9233C44.7735 23.4566 44.6034 23.0755 44.2632 22.7799C43.9385 22.4688 43.521 22.2277 43.0107 22.0566C42.5004 21.8855 41.8045 21.6911 40.9231 21.4733C39.686 21.1777 38.6809 20.8822 37.9077 20.5866C37.15 20.2911 36.4928 19.8322 35.9361 19.2099C35.3949 18.5722 35.1243 17.7166 35.1243 16.6433C35.1243 15.7411 35.364 14.9244 35.8433 14.1933C36.3382 13.4466 37.0727 12.8555 38.0469 12.4199C39.0366 11.9844 40.2427 11.7666 41.6654 11.7666C42.655 11.7666 43.6292 11.8911 44.588 12.1399C45.5467 12.3888 46.374 12.7466 47.0699 13.2133L46.1189 15.5699C45.4075 15.1499 44.6653 14.8311 43.8921 14.6133C43.1189 14.3955 42.369 14.2866 41.6422 14.2866C40.4515 14.2866 39.5623 14.4888 38.9747 14.8933C38.4026 15.2977 38.1165 15.8344 38.1165 16.5033C38.1165 16.9699 38.2789 17.3511 38.6036 17.6466C38.9438 17.9422 39.369 18.1755 39.8793 18.3466C40.3896 18.5177 41.0855 18.7122 41.9669 18.9299C43.1731 19.2099 44.1627 19.5055 44.9359 19.8166C45.7091 20.1122 46.3663 20.5711 46.9075 21.1933C47.4642 21.8155 47.7425 22.6555 47.7425 23.7133C47.7425 24.6155 47.4951 25.4322 47.0003 26.1633C46.5209 26.8944 45.7864 27.4777 44.7967 27.9133C43.8071 28.3488 42.6009 28.5666 41.1783 28.5666Z" stroke="url(#paint8_linear_37_87)" stroke-width="0.5" mask="url(#path-7-outside-1_37_87)"/>
<path d="M50.4542 15.8733H53.3536V28.3333H50.4542V15.8733ZM51.9155 13.8199C51.3897 13.8199 50.949 13.6566 50.5934 13.3299C50.2377 12.9877 50.0599 12.5677 50.0599 12.0699C50.0599 11.5722 50.2377 11.1599 50.5934 10.8333C50.949 10.4911 51.3897 10.3199 51.9155 10.3199C52.4413 10.3199 52.882 10.4833 53.2376 10.8099C53.5933 11.1211 53.7711 11.5177 53.7711 11.9999C53.7711 12.5133 53.5933 12.9488 53.2376 13.3066C52.8974 13.6488 52.4567 13.8199 51.9155 13.8199Z" stroke="url(#paint9_linear_37_87)" stroke-width="0.5" mask="url(#path-7-outside-1_37_87)"/>
<path d="M60.9863 28.4966C59.9812 28.4966 58.9992 28.3644 58.0405 28.0999C57.0818 27.8355 56.3163 27.5011 55.7442 27.0966L56.8575 24.8799C57.4142 25.2533 58.0792 25.5566 58.8523 25.7899C59.641 26.0077 60.4141 26.1166 61.1719 26.1166C62.9038 26.1166 63.7697 25.6577 63.7697 24.7399C63.7697 24.3044 63.5455 24.0011 63.0971 23.8299C62.6641 23.6588 61.9605 23.4955 60.9863 23.3399C59.9657 23.1844 59.1307 23.0055 58.4812 22.8033C57.8472 22.6011 57.2905 22.2511 56.8111 21.7533C56.3472 21.2399 56.1153 20.5322 56.1153 19.6299C56.1153 18.4477 56.6024 17.5066 57.5766 16.8066C58.5663 16.0911 59.8961 15.7333 61.5662 15.7333C62.4167 15.7333 63.2672 15.8344 64.1177 16.0366C64.9681 16.2233 65.664 16.4799 66.2052 16.8066L65.0919 19.0233C64.0403 18.4011 62.8574 18.0899 61.543 18.0899C60.6925 18.0899 60.043 18.2222 59.5946 18.4866C59.1616 18.7355 58.9451 19.0699 58.9451 19.4899C58.9451 19.9566 59.1771 20.2911 59.641 20.4933C60.1203 20.6799 60.8549 20.8588 61.8445 21.0299C62.8342 21.1855 63.646 21.3644 64.28 21.5666C64.914 21.7688 65.4552 22.1111 65.9037 22.5933C66.3676 23.0755 66.5995 23.7599 66.5995 24.6466C66.5995 25.8133 66.097 26.7466 65.0919 27.4466C64.0867 28.1466 62.7182 28.4966 60.9863 28.4966Z" stroke="url(#paint10_linear_37_87)" stroke-width="0.5" mask="url(#path-7-outside-1_37_87)"/>
<path d="M80.4676 15.8733L74.6688 29.3366C74.1276 30.6899 73.4704 31.6388 72.6972 32.1833C71.924 32.7433 70.9885 33.0233 69.8906 33.0233C69.272 33.0233 68.6612 32.9222 68.0581 32.7199C67.4551 32.5177 66.9602 32.2377 66.5736 31.8799L67.7334 29.7333C68.0117 29.9977 68.3365 30.2077 68.7076 30.3633C69.0942 30.5188 69.4808 30.5966 69.8674 30.5966C70.3777 30.5966 70.7952 30.4644 71.1199 30.1999C71.4601 29.9355 71.7694 29.4922 72.0477 28.8699L72.2565 28.3799L66.852 15.8733H69.8674L73.7642 25.0899L77.6842 15.8733H80.4676Z" stroke="url(#paint11_linear_37_87)" stroke-width="0.5" mask="url(#path-7-outside-1_37_87)"/>
<path d="M89.1455 15.7333C90.3517 15.7333 91.4264 15.9977 92.3697 16.5266C93.3284 17.0555 94.0784 17.8022 94.6196 18.7666C95.1608 19.7311 95.4314 20.8433 95.4314 22.1033C95.4314 23.3633 95.1608 24.4833 94.6196 25.4633C94.0784 26.4277 93.3284 27.1744 92.3697 27.7033C91.4264 28.2322 90.3517 28.4966 89.1455 28.4966C87.4755 28.4966 86.1533 27.9366 85.1791 26.8166V32.8599H82.2797V15.8733H85.04V17.5066C85.5193 16.9155 86.1069 16.4722 86.8028 16.1766C87.5141 15.8811 88.295 15.7333 89.1455 15.7333ZM88.8208 25.9999C89.8878 25.9999 90.7615 25.6422 91.4419 24.9266C92.1377 24.2111 92.4856 23.2699 92.4856 22.1033C92.4856 20.9366 92.1377 19.9955 91.4419 19.2799C90.7615 18.5644 89.8878 18.2066 88.8208 18.2066C88.1249 18.2066 87.4987 18.3699 86.942 18.6966C86.3853 19.0077 85.9446 19.4588 85.6198 20.0499C85.2951 20.6411 85.1327 21.3255 85.1327 22.1033C85.1327 22.8811 85.2951 23.5655 85.6198 24.1566C85.9446 24.7477 86.3853 25.2066 86.942 25.5333C87.4987 25.8444 88.1249 25.9999 88.8208 25.9999Z" stroke="url(#paint12_linear_37_87)" stroke-width="0.5" mask="url(#path-7-outside-1_37_87)"/>
<path d="M105.209 15.7333C106.771 15.7333 108.024 16.1922 108.967 17.1099C109.91 18.0277 110.382 19.3888 110.382 21.1933V28.3333H107.482V21.5666C107.482 20.4777 107.227 19.6611 106.717 19.1166C106.207 18.5566 105.48 18.2766 104.537 18.2766C103.47 18.2766 102.627 18.6033 102.008 19.2566C101.39 19.8944 101.081 20.8199 101.081 22.0333V28.3333H98.1812V11.0199H101.081V17.3199C101.56 16.8066 102.148 16.4177 102.843 16.1533C103.555 15.8733 104.343 15.7333 105.209 15.7333Z" stroke="url(#paint13_linear_37_87)" stroke-width="0.5" mask="url(#path-7-outside-1_37_87)"/>
<path d="M126.052 15.8733V28.3333H123.292V26.7466C122.828 27.3066 122.248 27.7422 121.552 28.0533C120.856 28.3488 120.106 28.4966 119.302 28.4966C117.647 28.4966 116.341 28.0377 115.382 27.1199C114.439 26.1866 113.967 24.8099 113.967 22.9899V15.8733H116.867V22.5933C116.867 23.7133 117.114 24.5533 117.609 25.1133C118.119 25.6577 118.838 25.9299 119.766 25.9299C120.802 25.9299 121.622 25.6111 122.225 24.9733C122.843 24.3199 123.152 23.3866 123.152 22.1733V15.8733H126.052Z" stroke="url(#paint14_linear_37_87)" stroke-width="0.5" mask="url(#path-7-outside-1_37_87)"/>
<path d="M133.675 28.4966C132.67 28.4966 131.688 28.3644 130.73 28.0999C129.771 27.8355 129.005 27.5011 128.433 27.0966L129.547 24.8799C130.103 25.2533 130.768 25.5566 131.541 25.7899C132.33 26.0077 133.103 26.1166 133.861 26.1166C135.593 26.1166 136.459 25.6577 136.459 24.7399C136.459 24.3044 136.235 24.0011 135.786 23.8299C135.353 23.6588 134.65 23.4955 133.675 23.3399C132.655 23.1844 131.82 23.0055 131.17 22.8033C130.536 22.6011 129.98 22.2511 129.5 21.7533C129.036 21.2399 128.804 20.5322 128.804 19.6299C128.804 18.4477 129.291 17.5066 130.266 16.8066C131.255 16.0911 132.585 15.7333 134.255 15.7333C135.106 15.7333 135.956 15.8344 136.807 16.0366C137.657 16.2233 138.353 16.4799 138.894 16.8066L137.781 19.0233C136.729 18.4011 135.546 18.0899 134.232 18.0899C133.382 18.0899 132.732 18.2222 132.284 18.4866C131.851 18.7355 131.634 19.0699 131.634 19.4899C131.634 19.9566 131.866 20.2911 132.33 20.4933C132.809 20.6799 133.544 20.8588 134.534 21.0299C135.523 21.1855 136.335 21.3644 136.969 21.5666C137.603 21.7688 138.144 22.1111 138.593 22.5933C139.057 23.0755 139.289 23.7599 139.289 24.6466C139.289 25.8133 138.786 26.7466 137.781 27.4466C136.776 28.1466 135.407 28.4966 133.675 28.4966Z" stroke="url(#paint15_linear_37_87)" stroke-width="0.5" mask="url(#path-7-outside-1_37_87)"/>
<defs>
<linearGradient id="paint0_linear_37_87" x1="86.9823" y1="9.99997" x2="151.595" y2="79.6178" gradientUnits="userSpaceOnUse">
<stop stop-color="white"/>
<stop offset="1" stop-color="#7E7F81"/>
</linearGradient>
<linearGradient id="paint1_linear_37_87" x1="86.9823" y1="9.99997" x2="151.595" y2="79.6178" gradientUnits="userSpaceOnUse">
<stop stop-color="white"/>
<stop offset="1" stop-color="#7E7F81"/>
</linearGradient>
<linearGradient id="paint2_linear_37_87" x1="86.9823" y1="9.99997" x2="151.595" y2="79.6178" gradientUnits="userSpaceOnUse">
<stop stop-color="white"/>
<stop offset="1" stop-color="#7E7F81"/>
</linearGradient>
<linearGradient id="paint3_linear_37_87" x1="86.9823" y1="9.99997" x2="151.595" y2="79.6178" gradientUnits="userSpaceOnUse">
<stop stop-color="white"/>
<stop offset="1" stop-color="#7E7F81"/>
</linearGradient>
<linearGradient id="paint4_linear_37_87" x1="86.9823" y1="9.99997" x2="151.595" y2="79.6178" gradientUnits="userSpaceOnUse">
<stop stop-color="white"/>
<stop offset="1" stop-color="#7E7F81"/>
</linearGradient>
<linearGradient id="paint5_linear_37_87" x1="86.9823" y1="9.99997" x2="151.595" y2="79.6178" gradientUnits="userSpaceOnUse">
<stop stop-color="white"/>
<stop offset="1" stop-color="#7E7F81"/>
</linearGradient>
<linearGradient id="paint6_linear_37_87" x1="86.9823" y1="9.99997" x2="151.595" y2="79.6178" gradientUnits="userSpaceOnUse">
<stop stop-color="white"/>
<stop offset="1" stop-color="#7E7F81"/>
</linearGradient>
<linearGradient id="paint7_linear_37_87" x1="86.9823" y1="9.99997" x2="151.595" y2="79.6178" gradientUnits="userSpaceOnUse">
<stop stop-color="white"/>
<stop offset="1" stop-color="#7E7F81"/>
</linearGradient>
<linearGradient id="paint8_linear_37_87" x1="86.9823" y1="9.99997" x2="148.732" y2="87.56" gradientUnits="userSpaceOnUse">
<stop stop-color="white"/>
<stop offset="1" stop-color="#FF7A00"/>
</linearGradient>
<linearGradient id="paint9_linear_37_87" x1="86.9823" y1="9.99997" x2="148.732" y2="87.56" gradientUnits="userSpaceOnUse">
<stop stop-color="white"/>
<stop offset="1" stop-color="#FF7A00"/>
</linearGradient>
<linearGradient id="paint10_linear_37_87" x1="86.9823" y1="9.99997" x2="148.732" y2="87.56" gradientUnits="userSpaceOnUse">
<stop stop-color="white"/>
<stop offset="1" stop-color="#FF7A00"/>
</linearGradient>
<linearGradient id="paint11_linear_37_87" x1="86.9823" y1="9.99997" x2="148.732" y2="87.56" gradientUnits="userSpaceOnUse">
<stop stop-color="white"/>
<stop offset="1" stop-color="#FF7A00"/>
</linearGradient>
<linearGradient id="paint12_linear_37_87" x1="86.9823" y1="9.99997" x2="148.732" y2="87.56" gradientUnits="userSpaceOnUse">
<stop stop-color="white"/>
<stop offset="1" stop-color="#FF7A00"/>
</linearGradient>
<linearGradient id="paint13_linear_37_87" x1="86.9823" y1="9.99997" x2="148.732" y2="87.56" gradientUnits="userSpaceOnUse">
<stop stop-color="white"/>
<stop offset="1" stop-color="#FF7A00"/>
</linearGradient>
<linearGradient id="paint14_linear_37_87" x1="86.9823" y1="9.99997" x2="148.732" y2="87.56" gradientUnits="userSpaceOnUse">
<stop stop-color="white"/>
<stop offset="1" stop-color="#FF7A00"/>
</linearGradient>
<linearGradient id="paint15_linear_37_87" x1="86.9823" y1="9.99997" x2="148.732" y2="87.56" gradientUnits="userSpaceOnUse">
<stop stop-color="white"/>
<stop offset="1" stop-color="#FF7A00"/>
</linearGradient>
</defs>
</svg>
