<svg width="141" height="40" viewBox="0 0 141 40" fill="none" xmlns="http://www.w3.org/2000/svg">
<path d="M24.4501 19.9999C21.8851 23.3094 18.1575 25.3921 14.0086 25.3921C9.85978 25.3921 6.13219 23.3094 3.56714 19.9999C6.13219 16.6905 9.85978 14.6078 14.0086 14.6078C18.1575 14.6078 21.8851 16.6905 24.4501 19.9999Z" fill="#1E1E1E"/>
<path fill-rule="evenodd" clip-rule="evenodd" d="M0 30.7843C0 21.8502 6.27181 14.6078 14.0085 14.6078C9.85964 14.6078 6.13207 16.6905 3.56703 19.9999C6.13207 23.3094 9.85967 25.3921 14.0085 25.3921C18.1573 25.3921 21.8849 23.3094 24.45 20C26.6682 22.8619 28.017 26.6412 28.017 30.7843V36.8954C28.017 37.6895 27.4595 38.3333 26.7718 38.3333H1.2452C0.557494 38.3333 0 37.6895 0 36.8954V30.7843ZM24.45 20C24.45 20 24.45 20 24.45 20V20Z" fill="#7E7F81"/>
<path fill-rule="evenodd" clip-rule="evenodd" d="M8.75407 24.2157C6.75385 23.2804 4.98324 21.8272 3.56702 20C6.13207 16.6905 9.85967 14.6078 14.0085 14.6078C18.1573 14.6078 21.8849 16.6905 24.45 19.9999C24.45 19.9999 24.45 19.9999 24.45 19.9999C26.6682 17.138 28.017 13.3587 28.017 9.21565V3.10454C28.017 2.3104 27.4595 1.66663 26.7718 1.66663L1.2452 1.66663C0.557496 1.66663 5.22771e-07 2.3104 4.6265e-07 3.10453L0 9.21564C-9.30525e-07 16.0039 3.62091 21.8156 8.75407 24.2157Z" fill="white"/>
<mask id="path-4-outside-1_37_85" maskUnits="userSpaceOnUse" x="37.1985" y="10.0667" width="103" height="25" fill="black">
<rect fill="white" x="37.1985" y="10.0667" width="103" height="25"/>
<path d="M49.8979 12.0467V28.3333H47.069V21.4033H41.0274V28.3333H38.1985V12.0467H41.0274V18.7433H47.069V12.0467H49.8979Z"/>
<path d="M57.6529 28.5433C56.5753 28.5433 55.6054 28.2711 54.7432 27.7267C53.8811 27.1667 53.2008 26.3811 52.7024 25.37C52.2175 24.3589 51.975 23.1922 51.975 21.87C51.975 20.5478 52.2242 19.3811 52.7226 18.37C53.2345 17.3589 53.9283 16.5811 54.8039 16.0367C55.6795 15.4767 56.6561 15.1967 57.7338 15.1967C58.8114 15.1967 59.788 15.4767 60.6637 16.0367C61.5393 16.5811 62.2263 17.3589 62.7247 18.37C63.2366 19.3811 63.4925 20.5478 63.4925 21.87C63.4925 23.1922 63.2298 24.3589 62.7045 25.37C62.1926 26.3811 61.4921 27.1667 60.603 27.7267C59.7274 28.2711 58.7441 28.5433 57.6529 28.5433ZM57.6529 25.6967C58.1648 25.6967 58.643 25.5566 59.0876 25.2766C59.5456 24.9811 59.9093 24.5455 60.1787 23.97C60.4481 23.3944 60.5828 22.6944 60.5828 21.87C60.5828 20.6411 60.2999 19.7 59.7342 19.0466C59.1819 18.3778 58.5016 18.0433 57.6933 18.0433C56.8851 18.0433 56.2048 18.3778 55.6525 19.0466C55.1137 19.7 54.8443 20.6411 54.8443 21.87C54.8443 23.0989 55.107 24.0478 55.6323 24.7167C56.1711 25.37 56.8447 25.6967 57.6529 25.6967Z"/>
<path d="M76.1354 15.4067V28.3333H73.2864V26.7C72.9226 27.26 72.4444 27.7033 71.8517 28.03C71.2725 28.3411 70.6393 28.4967 69.9523 28.4967C69.0767 28.4967 68.3022 28.2867 67.6286 27.8667C66.9551 27.4311 66.423 26.8011 66.0323 25.9766C65.6552 25.1367 65.4666 24.1411 65.4666 22.99V15.4067H68.2954V22.5233C68.2954 23.55 68.5177 24.3433 68.9622 24.9033C69.4068 25.4478 70.013 25.72 70.7808 25.72C71.5621 25.72 72.175 25.4478 72.6195 24.9033C73.0641 24.3433 73.2864 23.55 73.2864 22.5233V15.4067H76.1354Z"/>
<path d="M81.7554 17.4133C82.1191 16.7289 82.5906 16.1922 83.1699 15.8033C83.7626 15.4144 84.4361 15.22 85.1905 15.22V18.65H84.4428C83.5538 18.65 82.8802 18.8911 82.4222 19.3733C81.9777 19.8555 81.7554 20.6955 81.7554 21.8933V28.3333H78.9266V15.4067H81.7554V17.4133Z"/>
<path d="M91.4806 15.1967C92.3158 15.1967 93.0499 15.3911 93.6831 15.78C94.3162 16.1533 94.8146 16.6433 95.1783 17.25V15.4067H98.0274V28.4267C98.0274 29.6244 97.8186 30.69 97.401 31.6233C96.9834 32.5722 96.357 33.3189 95.5218 33.8633C94.6866 34.4233 93.6763 34.7033 92.4909 34.7033C90.9013 34.7033 89.5947 34.2755 88.5709 33.42C87.5606 32.5644 86.9881 31.3978 86.8534 29.92H89.662C89.8102 30.5111 90.1268 30.9778 90.6117 31.32C91.1101 31.6778 91.7096 31.8567 92.4101 31.8567C93.2318 31.8567 93.8986 31.5689 94.4105 30.9933C94.9224 30.4333 95.1783 29.5778 95.1783 28.4267V26.42C94.8146 27.0267 94.3095 27.5322 93.6629 27.9367C93.0297 28.3411 92.3023 28.5433 91.4806 28.5433C90.5376 28.5433 89.6755 28.2633 88.8942 27.7033C88.1129 27.1433 87.4932 26.3578 87.0352 25.3467C86.5907 24.32 86.3684 23.1455 86.3684 21.8233C86.3684 20.5167 86.5907 19.3578 87.0352 18.3467C87.4932 17.3355 88.1062 16.5578 88.874 16.0133C89.6553 15.4689 90.5242 15.1967 91.4806 15.1967ZM95.1783 21.87C95.1783 21.0767 95.0436 20.4 94.7742 19.84C94.5048 19.2644 94.1411 18.8289 93.6831 18.5333C93.2251 18.2222 92.7334 18.0667 92.208 18.0667C91.6827 18.0667 91.1977 18.2144 90.7532 18.51C90.3086 18.8055 89.9449 19.2411 89.662 19.8167C89.3926 20.3767 89.2579 21.0455 89.2579 21.8233C89.2579 22.6011 89.3926 23.2855 89.662 23.8767C89.9449 24.4522 90.3086 24.8955 90.7532 25.2066C91.2112 25.5178 91.6961 25.6733 92.208 25.6733C92.7334 25.6733 93.2251 25.5255 93.6831 25.23C94.1411 24.9189 94.5048 24.4833 94.7742 23.9233C95.0436 23.3478 95.1783 22.6633 95.1783 21.87Z"/>
<path d="M103.619 11.0667V28.3333H100.79V11.0667H103.619Z"/>
<path d="M105.687 21.8233C105.687 20.5167 105.909 19.3578 106.353 18.3467C106.811 17.3355 107.424 16.5578 108.192 16.0133C108.974 15.4689 109.842 15.1967 110.799 15.1967C111.634 15.1967 112.361 15.3911 112.981 15.78C113.614 16.1689 114.119 16.6589 114.497 17.25V15.4067H117.346V28.3333H114.497V26.4433C114.133 27.05 113.628 27.5555 112.981 27.96C112.348 28.3489 111.614 28.5433 110.779 28.5433C109.836 28.5433 108.974 28.2633 108.192 27.7033C107.424 27.1433 106.811 26.3578 106.353 25.3467C105.909 24.32 105.687 23.1455 105.687 21.8233ZM114.497 21.87C114.497 21.0767 114.362 20.4 114.092 19.84C113.823 19.2644 113.459 18.8289 113.001 18.5333C112.543 18.2222 112.052 18.0667 111.526 18.0667C111.001 18.0667 110.516 18.2144 110.071 18.51C109.627 18.8055 109.263 19.2411 108.98 19.8167C108.711 20.3767 108.576 21.0455 108.576 21.8233C108.576 22.6011 108.711 23.2855 108.98 23.8767C109.263 24.4522 109.627 24.8955 110.071 25.2066C110.529 25.5178 111.014 25.6733 111.526 25.6733C112.052 25.6733 112.543 25.5255 113.001 25.23C113.459 24.9189 113.823 24.4833 114.092 23.9233C114.362 23.3478 114.497 22.6633 114.497 21.87Z"/>
<path d="M124.392 28.5433C123.476 28.5433 122.654 28.3567 121.927 27.9833C121.2 27.5944 120.62 27.0733 120.189 26.42C119.772 25.7667 119.543 25.0433 119.502 24.25H122.351C122.405 24.7478 122.614 25.16 122.978 25.4867C123.355 25.8133 123.82 25.9766 124.372 25.9766C124.911 25.9766 125.328 25.8522 125.625 25.6033C125.935 25.3544 126.09 25.0355 126.09 24.6467C126.09 24.2267 125.901 23.9155 125.524 23.7133C125.16 23.4955 124.574 23.2622 123.766 23.0133C122.931 22.78 122.244 22.5389 121.705 22.29C121.179 22.0411 120.721 21.66 120.331 21.1467C119.954 20.6333 119.765 19.9411 119.765 19.07C119.765 18.3544 119.94 17.7011 120.29 17.11C120.654 16.5189 121.166 16.0522 121.826 15.71C122.5 15.3678 123.288 15.1967 124.19 15.1967C125.524 15.1967 126.588 15.5855 127.383 16.3633C128.177 17.1255 128.615 18.16 128.696 19.4667H125.988C125.948 18.9533 125.759 18.5489 125.423 18.2533C125.099 17.9422 124.662 17.7867 124.109 17.7867C123.597 17.7867 123.2 17.8955 122.917 18.1133C122.648 18.3311 122.513 18.6344 122.513 19.0233C122.513 19.4589 122.702 19.7933 123.079 20.0267C123.456 20.2444 124.042 20.47 124.837 20.7033C125.645 20.9367 126.312 21.1778 126.837 21.4267C127.362 21.6755 127.814 22.0644 128.191 22.5933C128.582 23.1067 128.784 23.7911 128.797 24.6467C128.797 25.3933 128.615 26.0622 128.252 26.6533C127.901 27.2444 127.389 27.7111 126.716 28.0533C126.056 28.38 125.281 28.5433 124.392 28.5433Z"/>
<path d="M135.403 28.5433C134.487 28.5433 133.665 28.3567 132.938 27.9833C132.21 27.5944 131.631 27.0733 131.2 26.42C130.782 25.7667 130.553 25.0433 130.513 24.25H133.362C133.416 24.7478 133.625 25.16 133.989 25.4867C134.366 25.8133 134.83 25.9766 135.383 25.9766C135.922 25.9766 136.339 25.8522 136.636 25.6033C136.945 25.3544 137.1 25.0355 137.1 24.6467C137.1 24.2267 136.912 23.9155 136.535 23.7133C136.171 23.4955 135.585 23.2622 134.777 23.0133C133.941 22.78 133.254 22.5389 132.716 22.29C132.19 22.0411 131.732 21.66 131.342 21.1467C130.964 20.6333 130.776 19.9411 130.776 19.07C130.776 18.3544 130.951 17.7011 131.301 17.11C131.665 16.5189 132.177 16.0522 132.837 15.71C133.51 15.3678 134.298 15.1967 135.201 15.1967C136.535 15.1967 137.599 15.5855 138.393 16.3633C139.188 17.1255 139.626 18.16 139.707 19.4667H136.999C136.959 18.9533 136.77 18.5489 136.433 18.2533C136.11 17.9422 135.672 17.7867 135.12 17.7867C134.608 17.7867 134.211 17.8955 133.928 18.1133C133.659 18.3311 133.524 18.6344 133.524 19.0233C133.524 19.4589 133.712 19.7933 134.09 20.0267C134.467 20.2444 135.053 20.47 135.848 20.7033C136.656 20.9367 137.323 21.1778 137.848 21.4267C138.373 21.6755 138.825 22.0644 139.202 22.5933C139.592 23.1067 139.794 23.7911 139.808 24.6467C139.808 25.3933 139.626 26.0622 139.262 26.6533C138.912 27.2444 138.4 27.7111 137.727 28.0533C137.067 28.38 136.292 28.5433 135.403 28.5433Z"/>
</mask>
<path d="M49.8979 12.0467V28.3333H47.069V21.4033H41.0274V28.3333H38.1985V12.0467H41.0274V18.7433H47.069V12.0467H49.8979Z" fill="url(#paint0_linear_37_85)"/>
<path d="M57.6529 28.5433C56.5753 28.5433 55.6054 28.2711 54.7432 27.7267C53.8811 27.1667 53.2008 26.3811 52.7024 25.37C52.2175 24.3589 51.975 23.1922 51.975 21.87C51.975 20.5478 52.2242 19.3811 52.7226 18.37C53.2345 17.3589 53.9283 16.5811 54.8039 16.0367C55.6795 15.4767 56.6561 15.1967 57.7338 15.1967C58.8114 15.1967 59.788 15.4767 60.6637 16.0367C61.5393 16.5811 62.2263 17.3589 62.7247 18.37C63.2366 19.3811 63.4925 20.5478 63.4925 21.87C63.4925 23.1922 63.2298 24.3589 62.7045 25.37C62.1926 26.3811 61.4921 27.1667 60.603 27.7267C59.7274 28.2711 58.7441 28.5433 57.6529 28.5433ZM57.6529 25.6967C58.1648 25.6967 58.643 25.5566 59.0876 25.2766C59.5456 24.9811 59.9093 24.5455 60.1787 23.97C60.4481 23.3944 60.5828 22.6944 60.5828 21.87C60.5828 20.6411 60.2999 19.7 59.7342 19.0466C59.1819 18.3778 58.5016 18.0433 57.6933 18.0433C56.8851 18.0433 56.2048 18.3778 55.6525 19.0466C55.1137 19.7 54.8443 20.6411 54.8443 21.87C54.8443 23.0989 55.107 24.0478 55.6323 24.7167C56.1711 25.37 56.8447 25.6967 57.6529 25.6967Z" fill="url(#paint1_linear_37_85)"/>
<path d="M76.1354 15.4067V28.3333H73.2864V26.7C72.9226 27.26 72.4444 27.7033 71.8517 28.03C71.2725 28.3411 70.6393 28.4967 69.9523 28.4967C69.0767 28.4967 68.3022 28.2867 67.6286 27.8667C66.9551 27.4311 66.423 26.8011 66.0323 25.9766C65.6552 25.1367 65.4666 24.1411 65.4666 22.99V15.4067H68.2954V22.5233C68.2954 23.55 68.5177 24.3433 68.9622 24.9033C69.4068 25.4478 70.013 25.72 70.7808 25.72C71.5621 25.72 72.175 25.4478 72.6195 24.9033C73.0641 24.3433 73.2864 23.55 73.2864 22.5233V15.4067H76.1354Z" fill="url(#paint2_linear_37_85)"/>
<path d="M81.7554 17.4133C82.1191 16.7289 82.5906 16.1922 83.1699 15.8033C83.7626 15.4144 84.4361 15.22 85.1905 15.22V18.65H84.4428C83.5538 18.65 82.8802 18.8911 82.4222 19.3733C81.9777 19.8555 81.7554 20.6955 81.7554 21.8933V28.3333H78.9266V15.4067H81.7554V17.4133Z" fill="url(#paint3_linear_37_85)"/>
<path d="M91.4806 15.1967C92.3158 15.1967 93.0499 15.3911 93.6831 15.78C94.3162 16.1533 94.8146 16.6433 95.1783 17.25V15.4067H98.0274V28.4267C98.0274 29.6244 97.8186 30.69 97.401 31.6233C96.9834 32.5722 96.357 33.3189 95.5218 33.8633C94.6866 34.4233 93.6763 34.7033 92.4909 34.7033C90.9013 34.7033 89.5947 34.2755 88.5709 33.42C87.5606 32.5644 86.9881 31.3978 86.8534 29.92H89.662C89.8102 30.5111 90.1268 30.9778 90.6117 31.32C91.1101 31.6778 91.7096 31.8567 92.4101 31.8567C93.2318 31.8567 93.8986 31.5689 94.4105 30.9933C94.9224 30.4333 95.1783 29.5778 95.1783 28.4267V26.42C94.8146 27.0267 94.3095 27.5322 93.6629 27.9367C93.0297 28.3411 92.3023 28.5433 91.4806 28.5433C90.5376 28.5433 89.6755 28.2633 88.8942 27.7033C88.1129 27.1433 87.4932 26.3578 87.0352 25.3467C86.5907 24.32 86.3684 23.1455 86.3684 21.8233C86.3684 20.5167 86.5907 19.3578 87.0352 18.3467C87.4932 17.3355 88.1062 16.5578 88.874 16.0133C89.6553 15.4689 90.5242 15.1967 91.4806 15.1967ZM95.1783 21.87C95.1783 21.0767 95.0436 20.4 94.7742 19.84C94.5048 19.2644 94.1411 18.8289 93.6831 18.5333C93.2251 18.2222 92.7334 18.0667 92.208 18.0667C91.6827 18.0667 91.1977 18.2144 90.7532 18.51C90.3086 18.8055 89.9449 19.2411 89.662 19.8167C89.3926 20.3767 89.2579 21.0455 89.2579 21.8233C89.2579 22.6011 89.3926 23.2855 89.662 23.8767C89.9449 24.4522 90.3086 24.8955 90.7532 25.2066C91.2112 25.5178 91.6961 25.6733 92.208 25.6733C92.7334 25.6733 93.2251 25.5255 93.6831 25.23C94.1411 24.9189 94.5048 24.4833 94.7742 23.9233C95.0436 23.3478 95.1783 22.6633 95.1783 21.87Z" fill="url(#paint4_linear_37_85)"/>
<path d="M103.619 11.0667V28.3333H100.79V11.0667H103.619Z" fill="url(#paint5_linear_37_85)"/>
<path d="M105.687 21.8233C105.687 20.5167 105.909 19.3578 106.353 18.3467C106.811 17.3355 107.424 16.5578 108.192 16.0133C108.974 15.4689 109.842 15.1967 110.799 15.1967C111.634 15.1967 112.361 15.3911 112.981 15.78C113.614 16.1689 114.119 16.6589 114.497 17.25V15.4067H117.346V28.3333H114.497V26.4433C114.133 27.05 113.628 27.5555 112.981 27.96C112.348 28.3489 111.614 28.5433 110.779 28.5433C109.836 28.5433 108.974 28.2633 108.192 27.7033C107.424 27.1433 106.811 26.3578 106.353 25.3467C105.909 24.32 105.687 23.1455 105.687 21.8233ZM114.497 21.87C114.497 21.0767 114.362 20.4 114.092 19.84C113.823 19.2644 113.459 18.8289 113.001 18.5333C112.543 18.2222 112.052 18.0667 111.526 18.0667C111.001 18.0667 110.516 18.2144 110.071 18.51C109.627 18.8055 109.263 19.2411 108.98 19.8167C108.711 20.3767 108.576 21.0455 108.576 21.8233C108.576 22.6011 108.711 23.2855 108.98 23.8767C109.263 24.4522 109.627 24.8955 110.071 25.2066C110.529 25.5178 111.014 25.6733 111.526 25.6733C112.052 25.6733 112.543 25.5255 113.001 25.23C113.459 24.9189 113.823 24.4833 114.092 23.9233C114.362 23.3478 114.497 22.6633 114.497 21.87Z" fill="url(#paint6_linear_37_85)"/>
<path d="M124.392 28.5433C123.476 28.5433 122.654 28.3567 121.927 27.9833C121.2 27.5944 120.62 27.0733 120.189 26.42C119.772 25.7667 119.543 25.0433 119.502 24.25H122.351C122.405 24.7478 122.614 25.16 122.978 25.4867C123.355 25.8133 123.82 25.9766 124.372 25.9766C124.911 25.9766 125.328 25.8522 125.625 25.6033C125.935 25.3544 126.09 25.0355 126.09 24.6467C126.09 24.2267 125.901 23.9155 125.524 23.7133C125.16 23.4955 124.574 23.2622 123.766 23.0133C122.931 22.78 122.244 22.5389 121.705 22.29C121.179 22.0411 120.721 21.66 120.331 21.1467C119.954 20.6333 119.765 19.9411 119.765 19.07C119.765 18.3544 119.94 17.7011 120.29 17.11C120.654 16.5189 121.166 16.0522 121.826 15.71C122.5 15.3678 123.288 15.1967 124.19 15.1967C125.524 15.1967 126.588 15.5855 127.383 16.3633C128.177 17.1255 128.615 18.16 128.696 19.4667H125.988C125.948 18.9533 125.759 18.5489 125.423 18.2533C125.099 17.9422 124.662 17.7867 124.109 17.7867C123.597 17.7867 123.2 17.8955 122.917 18.1133C122.648 18.3311 122.513 18.6344 122.513 19.0233C122.513 19.4589 122.702 19.7933 123.079 20.0267C123.456 20.2444 124.042 20.47 124.837 20.7033C125.645 20.9367 126.312 21.1778 126.837 21.4267C127.362 21.6755 127.814 22.0644 128.191 22.5933C128.582 23.1067 128.784 23.7911 128.797 24.6467C128.797 25.3933 128.615 26.0622 128.252 26.6533C127.901 27.2444 127.389 27.7111 126.716 28.0533C126.056 28.38 125.281 28.5433 124.392 28.5433Z" fill="url(#paint7_linear_37_85)"/>
<path d="M135.403 28.5433C134.487 28.5433 133.665 28.3567 132.938 27.9833C132.21 27.5944 131.631 27.0733 131.2 26.42C130.782 25.7667 130.553 25.0433 130.513 24.25H133.362C133.416 24.7478 133.625 25.16 133.989 25.4867C134.366 25.8133 134.83 25.9766 135.383 25.9766C135.922 25.9766 136.339 25.8522 136.636 25.6033C136.945 25.3544 137.1 25.0355 137.1 24.6467C137.1 24.2267 136.912 23.9155 136.535 23.7133C136.171 23.4955 135.585 23.2622 134.777 23.0133C133.941 22.78 133.254 22.5389 132.716 22.29C132.19 22.0411 131.732 21.66 131.342 21.1467C130.964 20.6333 130.776 19.9411 130.776 19.07C130.776 18.3544 130.951 17.7011 131.301 17.11C131.665 16.5189 132.177 16.0522 132.837 15.71C133.51 15.3678 134.298 15.1967 135.201 15.1967C136.535 15.1967 137.599 15.5855 138.393 16.3633C139.188 17.1255 139.626 18.16 139.707 19.4667H136.999C136.959 18.9533 136.77 18.5489 136.433 18.2533C136.11 17.9422 135.672 17.7867 135.12 17.7867C134.608 17.7867 134.211 17.8955 133.928 18.1133C133.659 18.3311 133.524 18.6344 133.524 19.0233C133.524 19.4589 133.712 19.7933 134.09 20.0267C134.467 20.2444 135.053 20.47 135.848 20.7033C136.656 20.9367 137.323 21.1778 137.848 21.4267C138.373 21.6755 138.825 22.0644 139.202 22.5933C139.592 23.1067 139.794 23.7911 139.808 24.6467C139.808 25.3933 139.626 26.0622 139.262 26.6533C138.912 27.2444 138.4 27.7111 137.727 28.0533C137.067 28.38 136.292 28.5433 135.403 28.5433Z" fill="url(#paint8_linear_37_85)"/>
<path d="M49.8979 12.0467V28.3333H47.069V21.4033H41.0274V28.3333H38.1985V12.0467H41.0274V18.7433H47.069V12.0467H49.8979Z" stroke="url(#paint9_linear_37_85)" stroke-width="0.5" mask="url(#path-4-outside-1_37_85)"/>
<path d="M57.6529 28.5433C56.5753 28.5433 55.6054 28.2711 54.7432 27.7267C53.8811 27.1667 53.2008 26.3811 52.7024 25.37C52.2175 24.3589 51.975 23.1922 51.975 21.87C51.975 20.5478 52.2242 19.3811 52.7226 18.37C53.2345 17.3589 53.9283 16.5811 54.8039 16.0367C55.6795 15.4767 56.6561 15.1967 57.7338 15.1967C58.8114 15.1967 59.788 15.4767 60.6637 16.0367C61.5393 16.5811 62.2263 17.3589 62.7247 18.37C63.2366 19.3811 63.4925 20.5478 63.4925 21.87C63.4925 23.1922 63.2298 24.3589 62.7045 25.37C62.1926 26.3811 61.4921 27.1667 60.603 27.7267C59.7274 28.2711 58.7441 28.5433 57.6529 28.5433ZM57.6529 25.6967C58.1648 25.6967 58.643 25.5566 59.0876 25.2766C59.5456 24.9811 59.9093 24.5455 60.1787 23.97C60.4481 23.3944 60.5828 22.6944 60.5828 21.87C60.5828 20.6411 60.2999 19.7 59.7342 19.0466C59.1819 18.3778 58.5016 18.0433 57.6933 18.0433C56.8851 18.0433 56.2048 18.3778 55.6525 19.0466C55.1137 19.7 54.8443 20.6411 54.8443 21.87C54.8443 23.0989 55.107 24.0478 55.6323 24.7167C56.1711 25.37 56.8447 25.6967 57.6529 25.6967Z" stroke="url(#paint10_linear_37_85)" stroke-width="0.5" mask="url(#path-4-outside-1_37_85)"/>
<path d="M76.1354 15.4067V28.3333H73.2864V26.7C72.9226 27.26 72.4444 27.7033 71.8517 28.03C71.2725 28.3411 70.6393 28.4967 69.9523 28.4967C69.0767 28.4967 68.3022 28.2867 67.6286 27.8667C66.9551 27.4311 66.423 26.8011 66.0323 25.9766C65.6552 25.1367 65.4666 24.1411 65.4666 22.99V15.4067H68.2954V22.5233C68.2954 23.55 68.5177 24.3433 68.9622 24.9033C69.4068 25.4478 70.013 25.72 70.7808 25.72C71.5621 25.72 72.175 25.4478 72.6195 24.9033C73.0641 24.3433 73.2864 23.55 73.2864 22.5233V15.4067H76.1354Z" stroke="url(#paint11_linear_37_85)" stroke-width="0.5" mask="url(#path-4-outside-1_37_85)"/>
<path d="M81.7554 17.4133C82.1191 16.7289 82.5906 16.1922 83.1699 15.8033C83.7626 15.4144 84.4361 15.22 85.1905 15.22V18.65H84.4428C83.5538 18.65 82.8802 18.8911 82.4222 19.3733C81.9777 19.8555 81.7554 20.6955 81.7554 21.8933V28.3333H78.9266V15.4067H81.7554V17.4133Z" stroke="url(#paint12_linear_37_85)" stroke-width="0.5" mask="url(#path-4-outside-1_37_85)"/>
<path d="M91.4806 15.1967C92.3158 15.1967 93.0499 15.3911 93.6831 15.78C94.3162 16.1533 94.8146 16.6433 95.1783 17.25V15.4067H98.0274V28.4267C98.0274 29.6244 97.8186 30.69 97.401 31.6233C96.9834 32.5722 96.357 33.3189 95.5218 33.8633C94.6866 34.4233 93.6763 34.7033 92.4909 34.7033C90.9013 34.7033 89.5947 34.2755 88.5709 33.42C87.5606 32.5644 86.9881 31.3978 86.8534 29.92H89.662C89.8102 30.5111 90.1268 30.9778 90.6117 31.32C91.1101 31.6778 91.7096 31.8567 92.4101 31.8567C93.2318 31.8567 93.8986 31.5689 94.4105 30.9933C94.9224 30.4333 95.1783 29.5778 95.1783 28.4267V26.42C94.8146 27.0267 94.3095 27.5322 93.6629 27.9367C93.0297 28.3411 92.3023 28.5433 91.4806 28.5433C90.5376 28.5433 89.6755 28.2633 88.8942 27.7033C88.1129 27.1433 87.4932 26.3578 87.0352 25.3467C86.5907 24.32 86.3684 23.1455 86.3684 21.8233C86.3684 20.5167 86.5907 19.3578 87.0352 18.3467C87.4932 17.3355 88.1062 16.5578 88.874 16.0133C89.6553 15.4689 90.5242 15.1967 91.4806 15.1967ZM95.1783 21.87C95.1783 21.0767 95.0436 20.4 94.7742 19.84C94.5048 19.2644 94.1411 18.8289 93.6831 18.5333C93.2251 18.2222 92.7334 18.0667 92.208 18.0667C91.6827 18.0667 91.1977 18.2144 90.7532 18.51C90.3086 18.8055 89.9449 19.2411 89.662 19.8167C89.3926 20.3767 89.2579 21.0455 89.2579 21.8233C89.2579 22.6011 89.3926 23.2855 89.662 23.8767C89.9449 24.4522 90.3086 24.8955 90.7532 25.2066C91.2112 25.5178 91.6961 25.6733 92.208 25.6733C92.7334 25.6733 93.2251 25.5255 93.6831 25.23C94.1411 24.9189 94.5048 24.4833 94.7742 23.9233C95.0436 23.3478 95.1783 22.6633 95.1783 21.87Z" stroke="url(#paint13_linear_37_85)" stroke-width="0.5" mask="url(#path-4-outside-1_37_85)"/>
<path d="M103.619 11.0667V28.3333H100.79V11.0667H103.619Z" stroke="url(#paint14_linear_37_85)" stroke-width="0.5" mask="url(#path-4-outside-1_37_85)"/>
<path d="M105.687 21.8233C105.687 20.5167 105.909 19.3578 106.353 18.3467C106.811 17.3355 107.424 16.5578 108.192 16.0133C108.974 15.4689 109.842 15.1967 110.799 15.1967C111.634 15.1967 112.361 15.3911 112.981 15.78C113.614 16.1689 114.119 16.6589 114.497 17.25V15.4067H117.346V28.3333H114.497V26.4433C114.133 27.05 113.628 27.5555 112.981 27.96C112.348 28.3489 111.614 28.5433 110.779 28.5433C109.836 28.5433 108.974 28.2633 108.192 27.7033C107.424 27.1433 106.811 26.3578 106.353 25.3467C105.909 24.32 105.687 23.1455 105.687 21.8233ZM114.497 21.87C114.497 21.0767 114.362 20.4 114.092 19.84C113.823 19.2644 113.459 18.8289 113.001 18.5333C112.543 18.2222 112.052 18.0667 111.526 18.0667C111.001 18.0667 110.516 18.2144 110.071 18.51C109.627 18.8055 109.263 19.2411 108.98 19.8167C108.711 20.3767 108.576 21.0455 108.576 21.8233C108.576 22.6011 108.711 23.2855 108.98 23.8767C109.263 24.4522 109.627 24.8955 110.071 25.2066C110.529 25.5178 111.014 25.6733 111.526 25.6733C112.052 25.6733 112.543 25.5255 113.001 25.23C113.459 24.9189 113.823 24.4833 114.092 23.9233C114.362 23.3478 114.497 22.6633 114.497 21.87Z" stroke="url(#paint15_linear_37_85)" stroke-width="0.5" mask="url(#path-4-outside-1_37_85)"/>
<path d="M124.392 28.5433C123.476 28.5433 122.654 28.3567 121.927 27.9833C121.2 27.5944 120.62 27.0733 120.189 26.42C119.772 25.7667 119.543 25.0433 119.502 24.25H122.351C122.405 24.7478 122.614 25.16 122.978 25.4867C123.355 25.8133 123.82 25.9766 124.372 25.9766C124.911 25.9766 125.328 25.8522 125.625 25.6033C125.935 25.3544 126.09 25.0355 126.09 24.6467C126.09 24.2267 125.901 23.9155 125.524 23.7133C125.16 23.4955 124.574 23.2622 123.766 23.0133C122.931 22.78 122.244 22.5389 121.705 22.29C121.179 22.0411 120.721 21.66 120.331 21.1467C119.954 20.6333 119.765 19.9411 119.765 19.07C119.765 18.3544 119.94 17.7011 120.29 17.11C120.654 16.5189 121.166 16.0522 121.826 15.71C122.5 15.3678 123.288 15.1967 124.19 15.1967C125.524 15.1967 126.588 15.5855 127.383 16.3633C128.177 17.1255 128.615 18.16 128.696 19.4667H125.988C125.948 18.9533 125.759 18.5489 125.423 18.2533C125.099 17.9422 124.662 17.7867 124.109 17.7867C123.597 17.7867 123.2 17.8955 122.917 18.1133C122.648 18.3311 122.513 18.6344 122.513 19.0233C122.513 19.4589 122.702 19.7933 123.079 20.0267C123.456 20.2444 124.042 20.47 124.837 20.7033C125.645 20.9367 126.312 21.1778 126.837 21.4267C127.362 21.6755 127.814 22.0644 128.191 22.5933C128.582 23.1067 128.784 23.7911 128.797 24.6467C128.797 25.3933 128.615 26.0622 128.252 26.6533C127.901 27.2444 127.389 27.7111 126.716 28.0533C126.056 28.38 125.281 28.5433 124.392 28.5433Z" stroke="url(#paint16_linear_37_85)" stroke-width="0.5" mask="url(#path-4-outside-1_37_85)"/>
<path d="M135.403 28.5433C134.487 28.5433 133.665 28.3567 132.938 27.9833C132.21 27.5944 131.631 27.0733 131.2 26.42C130.782 25.7667 130.553 25.0433 130.513 24.25H133.362C133.416 24.7478 133.625 25.16 133.989 25.4867C134.366 25.8133 134.83 25.9766 135.383 25.9766C135.922 25.9766 136.339 25.8522 136.636 25.6033C136.945 25.3544 137.1 25.0355 137.1 24.6467C137.1 24.2267 136.912 23.9155 136.535 23.7133C136.171 23.4955 135.585 23.2622 134.777 23.0133C133.941 22.78 133.254 22.5389 132.716 22.29C132.19 22.0411 131.732 21.66 131.342 21.1467C130.964 20.6333 130.776 19.9411 130.776 19.07C130.776 18.3544 130.951 17.7011 131.301 17.11C131.665 16.5189 132.177 16.0522 132.837 15.71C133.51 15.3678 134.298 15.1967 135.201 15.1967C136.535 15.1967 137.599 15.5855 138.393 16.3633C139.188 17.1255 139.626 18.16 139.707 19.4667H136.999C136.959 18.9533 136.77 18.5489 136.433 18.2533C136.11 17.9422 135.672 17.7867 135.12 17.7867C134.608 17.7867 134.211 17.8955 133.928 18.1133C133.659 18.3311 133.524 18.6344 133.524 19.0233C133.524 19.4589 133.712 19.7933 134.09 20.0267C134.467 20.2444 135.053 20.47 135.848 20.7033C136.656 20.9367 137.323 21.1778 137.848 21.4267C138.373 21.6755 138.825 22.0644 139.202 22.5933C139.592 23.1067 139.794 23.7911 139.808 24.6467C139.808 25.3933 139.626 26.0622 139.262 26.6533C138.912 27.2444 138.4 27.7111 137.727 28.0533C137.067 28.38 136.292 28.5433 135.403 28.5433Z" stroke="url(#paint17_linear_37_85)" stroke-width="0.5" mask="url(#path-4-outside-1_37_85)"/>
<defs>
<linearGradient id="paint0_linear_37_85" x1="88.7629" y1="10.8333" x2="12.0513" y2="65.7865" gradientUnits="userSpaceOnUse">
<stop stop-color="white"/>
<stop offset="1" stop-color="#7E7F81"/>
</linearGradient>
<linearGradient id="paint1_linear_37_85" x1="88.7629" y1="10.8333" x2="12.0513" y2="65.7865" gradientUnits="userSpaceOnUse">
<stop stop-color="white"/>
<stop offset="1" stop-color="#7E7F81"/>
</linearGradient>
<linearGradient id="paint2_linear_37_85" x1="88.7629" y1="10.8333" x2="12.0513" y2="65.7865" gradientUnits="userSpaceOnUse">
<stop stop-color="white"/>
<stop offset="1" stop-color="#7E7F81"/>
</linearGradient>
<linearGradient id="paint3_linear_37_85" x1="88.7629" y1="10.8333" x2="12.0513" y2="65.7865" gradientUnits="userSpaceOnUse">
<stop stop-color="white"/>
<stop offset="1" stop-color="#7E7F81"/>
</linearGradient>
<linearGradient id="paint4_linear_37_85" x1="88.7629" y1="10.8333" x2="12.0513" y2="65.7865" gradientUnits="userSpaceOnUse">
<stop stop-color="white"/>
<stop offset="1" stop-color="#7E7F81"/>
</linearGradient>
<linearGradient id="paint5_linear_37_85" x1="88.7629" y1="10.8333" x2="12.0513" y2="65.7865" gradientUnits="userSpaceOnUse">
<stop stop-color="white"/>
<stop offset="1" stop-color="#7E7F81"/>
</linearGradient>
<linearGradient id="paint6_linear_37_85" x1="88.7629" y1="10.8333" x2="12.0513" y2="65.7865" gradientUnits="userSpaceOnUse">
<stop stop-color="white"/>
<stop offset="1" stop-color="#7E7F81"/>
</linearGradient>
<linearGradient id="paint7_linear_37_85" x1="88.7629" y1="10.8333" x2="12.0513" y2="65.7865" gradientUnits="userSpaceOnUse">
<stop stop-color="white"/>
<stop offset="1" stop-color="#7E7F81"/>
</linearGradient>
<linearGradient id="paint8_linear_37_85" x1="88.7629" y1="10.8333" x2="12.0513" y2="65.7865" gradientUnits="userSpaceOnUse">
<stop stop-color="white"/>
<stop offset="1" stop-color="#7E7F81"/>
</linearGradient>
<linearGradient id="paint9_linear_37_85" x1="88.7629" y1="10.8333" x2="48.4566" y2="75.9882" gradientUnits="userSpaceOnUse">
<stop stop-color="white"/>
<stop offset="1" stop-color="#FF7A00"/>
</linearGradient>
<linearGradient id="paint10_linear_37_85" x1="88.7629" y1="10.8333" x2="48.4566" y2="75.9882" gradientUnits="userSpaceOnUse">
<stop stop-color="white"/>
<stop offset="1" stop-color="#FF7A00"/>
</linearGradient>
<linearGradient id="paint11_linear_37_85" x1="88.7629" y1="10.8333" x2="48.4566" y2="75.9882" gradientUnits="userSpaceOnUse">
<stop stop-color="white"/>
<stop offset="1" stop-color="#FF7A00"/>
</linearGradient>
<linearGradient id="paint12_linear_37_85" x1="88.7629" y1="10.8333" x2="48.4566" y2="75.9882" gradientUnits="userSpaceOnUse">
<stop stop-color="white"/>
<stop offset="1" stop-color="#FF7A00"/>
</linearGradient>
<linearGradient id="paint13_linear_37_85" x1="88.7629" y1="10.8333" x2="48.4566" y2="75.9882" gradientUnits="userSpaceOnUse">
<stop stop-color="white"/>
<stop offset="1" stop-color="#FF7A00"/>
</linearGradient>
<linearGradient id="paint14_linear_37_85" x1="88.7629" y1="10.8333" x2="48.4566" y2="75.9882" gradientUnits="userSpaceOnUse">
<stop stop-color="white"/>
<stop offset="1" stop-color="#FF7A00"/>
</linearGradient>
<linearGradient id="paint15_linear_37_85" x1="88.7629" y1="10.8333" x2="48.4566" y2="75.9882" gradientUnits="userSpaceOnUse">
<stop stop-color="white"/>
<stop offset="1" stop-color="#FF7A00"/>
</linearGradient>
<linearGradient id="paint16_linear_37_85" x1="88.7629" y1="10.8333" x2="48.4566" y2="75.9882" gradientUnits="userSpaceOnUse">
<stop stop-color="white"/>
<stop offset="1" stop-color="#FF7A00"/>
</linearGradient>
<linearGradient id="paint17_linear_37_85" x1="88.7629" y1="10.8333" x2="48.4566" y2="75.9882" gradientUnits="userSpaceOnUse">
<stop stop-color="white"/>
<stop offset="1" stop-color="#FF7A00"/>
</linearGradient>
</defs>
</svg>
