<svg width="140" height="40" viewBox="0 0 140 40" fill="none" xmlns="http://www.w3.org/2000/svg">
<path d="M12.7318 18.5984C13.5202 16.0415 16.5445 13.4133 19.4867 12.728L37.8296 8.45608C40.7717 7.77086 42.5177 9.28815 41.7292 11.845L36.8135 27.7859C36.025 30.3427 33.0007 32.971 30.0586 33.6562L11.7157 37.9282C8.77352 38.6134 7.0276 37.0961 7.81607 34.5392L12.7318 18.5984Z" fill="white"/>
<path d="M5.37825 12.2078C6.16673 9.65089 9.19101 7.02264 12.1332 6.33742L30.4761 2.06545C33.4182 1.38023 35.1642 2.89752 34.3757 5.45441L29.46 21.3952C28.6715 23.9521 25.6472 26.5804 22.7051 27.2656L4.36219 31.5376C1.42001 32.2228 -0.325914 30.7055 0.462559 28.1486L5.37825 12.2078Z" fill="#7E7F81"/>
<mask id="path-3-outside-1_37_84" maskUnits="userSpaceOnUse" x="54.7124" y="11.1167" width="85" height="24" fill="black">
<rect fill="white" x="54.7124" y="11.1167" width="85" height="24"/>
<path d="M58.7732 26.1867H65.0828V28.3334H55.7124V12.1167H58.7732V26.1867Z"/>
<path d="M66.6222 21.8467C66.6222 20.5556 66.9265 19.4123 67.5351 18.4167C68.1616 17.4211 69.0029 16.6511 70.059 16.1067C71.1329 15.5467 72.3143 15.2667 73.6031 15.2667C74.7665 15.2667 75.7779 15.4689 76.637 15.8734C77.5141 16.2623 78.2122 16.7523 78.7313 17.3434V15.4767H81.8189V28.3334H78.7313V26.42C78.2122 27.0267 77.5052 27.5323 76.6102 27.9367C75.7152 28.3411 74.6949 28.5434 73.5494 28.5434C72.2785 28.5434 71.115 28.2634 70.059 27.7034C69.0029 27.1278 68.1616 26.3345 67.5351 25.3234C66.9265 24.2967 66.6222 23.1378 66.6222 21.8467ZM78.7313 21.8934C78.7313 21.0067 78.5165 20.2367 78.0869 19.5834C77.6752 18.93 77.1293 18.4323 76.4491 18.09C75.7689 17.7478 75.035 17.5767 74.2474 17.5767C73.4599 17.5767 72.726 17.7478 72.0458 18.09C71.3656 18.4167 70.8107 18.9067 70.3811 19.56C69.9695 20.1978 69.7636 20.96 69.7636 21.8467C69.7636 22.7334 69.9695 23.5111 70.3811 24.18C70.8107 24.8489 71.3656 25.3623 72.0458 25.72C72.7439 26.0623 73.4778 26.2334 74.2474 26.2334C75.035 26.2334 75.7689 26.0623 76.4491 25.72C77.1293 25.3778 77.6752 24.88 78.0869 24.2267C78.5165 23.5578 78.7313 22.78 78.7313 21.8934Z"/>
<path d="M99.1565 15.4767L90.0814 34.3767H86.9132L89.9203 28.1234L84.094 15.4767H87.5039L91.6655 25.2767L95.9883 15.4767H99.1565Z"/>
<path d="M115.025 21.59C115.025 22.0723 114.989 22.5078 114.918 22.8967H103.614C103.704 23.9234 104.142 24.7478 104.93 25.37C105.717 25.9923 106.684 26.3034 107.83 26.3034C109.476 26.3034 110.64 25.7045 111.32 24.5067H114.623C114.175 25.6889 113.361 26.6611 112.179 27.4234C111.016 28.17 109.566 28.5434 107.83 28.5434C106.416 28.5434 105.145 28.2711 104.017 27.7267C102.907 27.1667 102.03 26.3889 101.386 25.3934C100.759 24.3823 100.446 23.2156 100.446 21.8934C100.446 20.5711 100.75 19.4123 101.359 18.4167C101.985 17.4056 102.854 16.6278 103.963 16.0834C105.091 15.5389 106.38 15.2667 107.83 15.2667C109.226 15.2667 110.47 15.5311 111.562 16.06C112.654 16.5889 113.504 17.3356 114.112 18.3C114.721 19.2489 115.025 20.3456 115.025 21.59ZM111.83 20.75C111.812 19.77 111.41 18.9845 110.622 18.3934C109.834 17.8023 108.859 17.5067 107.695 17.5067C106.639 17.5067 105.735 17.8023 104.984 18.3934C104.232 18.9689 103.784 19.7545 103.641 20.75H111.83Z"/>
<path d="M121.098 17.3434C121.546 16.69 122.136 16.1845 122.87 15.8267C123.622 15.4534 124.508 15.2667 125.528 15.2667V18.02H124.75C123.55 18.02 122.638 18.2845 122.011 18.8134C121.403 19.3423 121.098 20.26 121.098 21.5667V28.3334H118.037V15.4767H121.098V17.3434Z"/>
<path d="M133.712 28.5434C132.548 28.5434 131.501 28.3645 130.57 28.0067C129.657 27.6334 128.933 27.1356 128.396 26.5134C127.859 25.8756 127.572 25.1678 127.536 24.39H130.705C130.758 24.9345 131.054 25.3934 131.591 25.7667C132.146 26.1245 132.835 26.3034 133.658 26.3034C134.517 26.3034 135.179 26.1634 135.645 25.8834C136.128 25.5878 136.37 25.2145 136.37 24.7634C136.37 24.2811 136.101 23.9234 135.564 23.69C135.045 23.4567 134.213 23.2 133.067 22.92C131.958 22.6556 131.054 22.3989 130.356 22.15C129.657 21.9011 129.049 21.52 128.53 21.0067C128.029 20.4934 127.778 19.8167 127.778 18.9767C127.778 18.2923 128.011 17.67 128.476 17.11C128.942 16.5345 129.604 16.0834 130.463 15.7567C131.34 15.43 132.342 15.2667 133.47 15.2667C135.153 15.2667 136.504 15.64 137.524 16.3867C138.563 17.1178 139.117 18.1211 139.189 19.3967H136.128C136.074 18.8211 135.806 18.3623 135.323 18.02C134.839 17.6778 134.186 17.5067 133.363 17.5067C132.557 17.5067 131.94 17.6389 131.51 17.9034C131.08 18.1678 130.866 18.5178 130.866 18.9534C130.866 19.2956 131.009 19.5834 131.295 19.8167C131.582 20.05 131.931 20.2367 132.342 20.3767C132.754 20.5011 133.363 20.6645 134.168 20.8667C135.242 21.1156 136.119 21.3723 136.799 21.6367C137.497 21.8856 138.097 22.2589 138.598 22.7567C139.099 23.2545 139.359 23.9156 139.377 24.74C139.377 25.4711 139.144 26.1245 138.679 26.7C138.213 27.2756 137.551 27.7267 136.692 28.0534C135.851 28.38 134.857 28.5434 133.712 28.5434Z"/>
</mask>
<path d="M58.7732 26.1867H65.0828V28.3334H55.7124V12.1167H58.7732V26.1867Z" fill="url(#paint0_linear_37_84)"/>
<path d="M66.6222 21.8467C66.6222 20.5556 66.9265 19.4123 67.5351 18.4167C68.1616 17.4211 69.0029 16.6511 70.059 16.1067C71.1329 15.5467 72.3143 15.2667 73.6031 15.2667C74.7665 15.2667 75.7779 15.4689 76.637 15.8734C77.5141 16.2623 78.2122 16.7523 78.7313 17.3434V15.4767H81.8189V28.3334H78.7313V26.42C78.2122 27.0267 77.5052 27.5323 76.6102 27.9367C75.7152 28.3411 74.6949 28.5434 73.5494 28.5434C72.2785 28.5434 71.115 28.2634 70.059 27.7034C69.0029 27.1278 68.1616 26.3345 67.5351 25.3234C66.9265 24.2967 66.6222 23.1378 66.6222 21.8467ZM78.7313 21.8934C78.7313 21.0067 78.5165 20.2367 78.0869 19.5834C77.6752 18.93 77.1293 18.4323 76.4491 18.09C75.7689 17.7478 75.035 17.5767 74.2474 17.5767C73.4599 17.5767 72.726 17.7478 72.0458 18.09C71.3656 18.4167 70.8107 18.9067 70.3811 19.56C69.9695 20.1978 69.7636 20.96 69.7636 21.8467C69.7636 22.7334 69.9695 23.5111 70.3811 24.18C70.8107 24.8489 71.3656 25.3623 72.0458 25.72C72.7439 26.0623 73.4778 26.2334 74.2474 26.2334C75.035 26.2334 75.7689 26.0623 76.4491 25.72C77.1293 25.3778 77.6752 24.88 78.0869 24.2267C78.5165 23.5578 78.7313 22.78 78.7313 21.8934Z" fill="url(#paint1_linear_37_84)"/>
<path d="M99.1565 15.4767L90.0814 34.3767H86.9132L89.9203 28.1234L84.094 15.4767H87.5039L91.6655 25.2767L95.9883 15.4767H99.1565Z" fill="url(#paint2_linear_37_84)"/>
<path d="M115.025 21.59C115.025 22.0723 114.989 22.5078 114.918 22.8967H103.614C103.704 23.9234 104.142 24.7478 104.93 25.37C105.717 25.9923 106.684 26.3034 107.83 26.3034C109.476 26.3034 110.64 25.7045 111.32 24.5067H114.623C114.175 25.6889 113.361 26.6611 112.179 27.4234C111.016 28.17 109.566 28.5434 107.83 28.5434C106.416 28.5434 105.145 28.2711 104.017 27.7267C102.907 27.1667 102.03 26.3889 101.386 25.3934C100.759 24.3823 100.446 23.2156 100.446 21.8934C100.446 20.5711 100.75 19.4123 101.359 18.4167C101.985 17.4056 102.854 16.6278 103.963 16.0834C105.091 15.5389 106.38 15.2667 107.83 15.2667C109.226 15.2667 110.47 15.5311 111.562 16.06C112.654 16.5889 113.504 17.3356 114.112 18.3C114.721 19.2489 115.025 20.3456 115.025 21.59ZM111.83 20.75C111.812 19.77 111.41 18.9845 110.622 18.3934C109.834 17.8023 108.859 17.5067 107.695 17.5067C106.639 17.5067 105.735 17.8023 104.984 18.3934C104.232 18.9689 103.784 19.7545 103.641 20.75H111.83Z" fill="url(#paint3_linear_37_84)"/>
<path d="M121.098 17.3434C121.546 16.69 122.136 16.1845 122.87 15.8267C123.622 15.4534 124.508 15.2667 125.528 15.2667V18.02H124.75C123.55 18.02 122.638 18.2845 122.011 18.8134C121.403 19.3423 121.098 20.26 121.098 21.5667V28.3334H118.037V15.4767H121.098V17.3434Z" fill="url(#paint4_linear_37_84)"/>
<path d="M133.712 28.5434C132.548 28.5434 131.501 28.3645 130.57 28.0067C129.657 27.6334 128.933 27.1356 128.396 26.5134C127.859 25.8756 127.572 25.1678 127.536 24.39H130.705C130.758 24.9345 131.054 25.3934 131.591 25.7667C132.146 26.1245 132.835 26.3034 133.658 26.3034C134.517 26.3034 135.179 26.1634 135.645 25.8834C136.128 25.5878 136.37 25.2145 136.37 24.7634C136.37 24.2811 136.101 23.9234 135.564 23.69C135.045 23.4567 134.213 23.2 133.067 22.92C131.958 22.6556 131.054 22.3989 130.356 22.15C129.657 21.9011 129.049 21.52 128.53 21.0067C128.029 20.4934 127.778 19.8167 127.778 18.9767C127.778 18.2923 128.011 17.67 128.476 17.11C128.942 16.5345 129.604 16.0834 130.463 15.7567C131.34 15.43 132.342 15.2667 133.47 15.2667C135.153 15.2667 136.504 15.64 137.524 16.3867C138.563 17.1178 139.117 18.1211 139.189 19.3967H136.128C136.074 18.8211 135.806 18.3623 135.323 18.02C134.839 17.6778 134.186 17.5067 133.363 17.5067C132.557 17.5067 131.94 17.6389 131.51 17.9034C131.08 18.1678 130.866 18.5178 130.866 18.9534C130.866 19.2956 131.009 19.5834 131.295 19.8167C131.582 20.05 131.931 20.2367 132.342 20.3767C132.754 20.5011 133.363 20.6645 134.168 20.8667C135.242 21.1156 136.119 21.3723 136.799 21.6367C137.497 21.8856 138.097 22.2589 138.598 22.7567C139.099 23.2545 139.359 23.9156 139.377 24.74C139.377 25.4711 139.144 26.1245 138.679 26.7C138.213 27.2756 137.551 27.7267 136.692 28.0534C135.851 28.38 134.857 28.5434 133.712 28.5434Z" fill="url(#paint5_linear_37_84)"/>
<path d="M58.7732 26.1867H65.0828V28.3334H55.7124V12.1167H58.7732V26.1867Z" stroke="url(#paint6_linear_37_84)" stroke-width="0.5" mask="url(#path-3-outside-1_37_84)"/>
<path d="M66.6222 21.8467C66.6222 20.5556 66.9265 19.4123 67.5351 18.4167C68.1616 17.4211 69.0029 16.6511 70.059 16.1067C71.1329 15.5467 72.3143 15.2667 73.6031 15.2667C74.7665 15.2667 75.7779 15.4689 76.637 15.8734C77.5141 16.2623 78.2122 16.7523 78.7313 17.3434V15.4767H81.8189V28.3334H78.7313V26.42C78.2122 27.0267 77.5052 27.5323 76.6102 27.9367C75.7152 28.3411 74.6949 28.5434 73.5494 28.5434C72.2785 28.5434 71.115 28.2634 70.059 27.7034C69.0029 27.1278 68.1616 26.3345 67.5351 25.3234C66.9265 24.2967 66.6222 23.1378 66.6222 21.8467ZM78.7313 21.8934C78.7313 21.0067 78.5165 20.2367 78.0869 19.5834C77.6752 18.93 77.1293 18.4323 76.4491 18.09C75.7689 17.7478 75.035 17.5767 74.2474 17.5767C73.4599 17.5767 72.726 17.7478 72.0458 18.09C71.3656 18.4167 70.8107 18.9067 70.3811 19.56C69.9695 20.1978 69.7636 20.96 69.7636 21.8467C69.7636 22.7334 69.9695 23.5111 70.3811 24.18C70.8107 24.8489 71.3656 25.3623 72.0458 25.72C72.7439 26.0623 73.4778 26.2334 74.2474 26.2334C75.035 26.2334 75.7689 26.0623 76.4491 25.72C77.1293 25.3778 77.6752 24.88 78.0869 24.2267C78.5165 23.5578 78.7313 22.78 78.7313 21.8934Z" stroke="url(#paint7_linear_37_84)" stroke-width="0.5" mask="url(#path-3-outside-1_37_84)"/>
<path d="M99.1565 15.4767L90.0814 34.3767H86.9132L89.9203 28.1234L84.094 15.4767H87.5039L91.6655 25.2767L95.9883 15.4767H99.1565Z" stroke="url(#paint8_linear_37_84)" stroke-width="0.5" mask="url(#path-3-outside-1_37_84)"/>
<path d="M115.025 21.59C115.025 22.0723 114.989 22.5078 114.918 22.8967H103.614C103.704 23.9234 104.142 24.7478 104.93 25.37C105.717 25.9923 106.684 26.3034 107.83 26.3034C109.476 26.3034 110.64 25.7045 111.32 24.5067H114.623C114.175 25.6889 113.361 26.6611 112.179 27.4234C111.016 28.17 109.566 28.5434 107.83 28.5434C106.416 28.5434 105.145 28.2711 104.017 27.7267C102.907 27.1667 102.03 26.3889 101.386 25.3934C100.759 24.3823 100.446 23.2156 100.446 21.8934C100.446 20.5711 100.75 19.4123 101.359 18.4167C101.985 17.4056 102.854 16.6278 103.963 16.0834C105.091 15.5389 106.38 15.2667 107.83 15.2667C109.226 15.2667 110.47 15.5311 111.562 16.06C112.654 16.5889 113.504 17.3356 114.112 18.3C114.721 19.2489 115.025 20.3456 115.025 21.59ZM111.83 20.75C111.812 19.77 111.41 18.9845 110.622 18.3934C109.834 17.8023 108.859 17.5067 107.695 17.5067C106.639 17.5067 105.735 17.8023 104.984 18.3934C104.232 18.9689 103.784 19.7545 103.641 20.75H111.83Z" stroke="url(#paint9_linear_37_84)" stroke-width="0.5" mask="url(#path-3-outside-1_37_84)"/>
<path d="M121.098 17.3434C121.546 16.69 122.136 16.1845 122.87 15.8267C123.622 15.4534 124.508 15.2667 125.528 15.2667V18.02H124.75C123.55 18.02 122.638 18.2845 122.011 18.8134C121.403 19.3423 121.098 20.26 121.098 21.5667V28.3334H118.037V15.4767H121.098V17.3434Z" stroke="url(#paint10_linear_37_84)" stroke-width="0.5" mask="url(#path-3-outside-1_37_84)"/>
<path d="M133.712 28.5434C132.548 28.5434 131.501 28.3645 130.57 28.0067C129.657 27.6334 128.933 27.1356 128.396 26.5134C127.859 25.8756 127.572 25.1678 127.536 24.39H130.705C130.758 24.9345 131.054 25.3934 131.591 25.7667C132.146 26.1245 132.835 26.3034 133.658 26.3034C134.517 26.3034 135.179 26.1634 135.645 25.8834C136.128 25.5878 136.37 25.2145 136.37 24.7634C136.37 24.2811 136.101 23.9234 135.564 23.69C135.045 23.4567 134.213 23.2 133.067 22.92C131.958 22.6556 131.054 22.3989 130.356 22.15C129.657 21.9011 129.049 21.52 128.53 21.0067C128.029 20.4934 127.778 19.8167 127.778 18.9767C127.778 18.2923 128.011 17.67 128.476 17.11C128.942 16.5345 129.604 16.0834 130.463 15.7567C131.34 15.43 132.342 15.2667 133.47 15.2667C135.153 15.2667 136.504 15.64 137.524 16.3867C138.563 17.1178 139.117 18.1211 139.189 19.3967H136.128C136.074 18.8211 135.806 18.3623 135.323 18.02C134.839 17.6778 134.186 17.5067 133.363 17.5067C132.557 17.5067 131.94 17.6389 131.51 17.9034C131.08 18.1678 130.866 18.5178 130.866 18.9534C130.866 19.2956 131.009 19.5834 131.295 19.8167C131.582 20.05 131.931 20.2367 132.342 20.3767C132.754 20.5011 133.363 20.6645 134.168 20.8667C135.242 21.1156 136.119 21.3723 136.799 21.6367C137.497 21.8856 138.097 22.2589 138.598 22.7567C139.099 23.2545 139.359 23.9156 139.377 24.74C139.377 25.4711 139.144 26.1245 138.679 26.7C138.213 27.2756 137.551 27.7267 136.692 28.0534C135.851 28.38 134.857 28.5434 133.712 28.5434Z" stroke="url(#paint11_linear_37_84)" stroke-width="0.5" mask="url(#path-3-outside-1_37_84)"/>
<defs>
<linearGradient id="paint0_linear_37_84" x1="97.8082" y1="12.5001" x2="-39.9693" y2="69.425" gradientUnits="userSpaceOnUse">
<stop stop-color="white"/>
<stop offset="1" stop-color="#7E7F81"/>
</linearGradient>
<linearGradient id="paint1_linear_37_84" x1="97.8082" y1="12.5001" x2="-39.9693" y2="69.425" gradientUnits="userSpaceOnUse">
<stop stop-color="white"/>
<stop offset="1" stop-color="#7E7F81"/>
</linearGradient>
<linearGradient id="paint2_linear_37_84" x1="97.8082" y1="12.5001" x2="-39.9693" y2="69.425" gradientUnits="userSpaceOnUse">
<stop stop-color="white"/>
<stop offset="1" stop-color="#7E7F81"/>
</linearGradient>
<linearGradient id="paint3_linear_37_84" x1="97.8082" y1="12.5001" x2="-39.9693" y2="69.425" gradientUnits="userSpaceOnUse">
<stop stop-color="white"/>
<stop offset="1" stop-color="#7E7F81"/>
</linearGradient>
<linearGradient id="paint4_linear_37_84" x1="97.8082" y1="12.5001" x2="-39.9693" y2="69.425" gradientUnits="userSpaceOnUse">
<stop stop-color="white"/>
<stop offset="1" stop-color="#7E7F81"/>
</linearGradient>
<linearGradient id="paint5_linear_37_84" x1="97.8082" y1="12.5001" x2="-39.9693" y2="69.425" gradientUnits="userSpaceOnUse">
<stop stop-color="white"/>
<stop offset="1" stop-color="#7E7F81"/>
</linearGradient>
<linearGradient id="paint6_linear_37_84" x1="97.8082" y1="12.5001" x2="67.2282" y2="71.2951" gradientUnits="userSpaceOnUse">
<stop stop-color="white"/>
<stop offset="1" stop-color="#FF7A00"/>
</linearGradient>
<linearGradient id="paint7_linear_37_84" x1="97.8082" y1="12.5001" x2="67.2282" y2="71.2951" gradientUnits="userSpaceOnUse">
<stop stop-color="white"/>
<stop offset="1" stop-color="#FF7A00"/>
</linearGradient>
<linearGradient id="paint8_linear_37_84" x1="97.8082" y1="12.5001" x2="67.2282" y2="71.2951" gradientUnits="userSpaceOnUse">
<stop stop-color="white"/>
<stop offset="1" stop-color="#FF7A00"/>
</linearGradient>
<linearGradient id="paint9_linear_37_84" x1="97.8082" y1="12.5001" x2="67.2282" y2="71.2951" gradientUnits="userSpaceOnUse">
<stop stop-color="white"/>
<stop offset="1" stop-color="#FF7A00"/>
</linearGradient>
<linearGradient id="paint10_linear_37_84" x1="97.8082" y1="12.5001" x2="67.2282" y2="71.2951" gradientUnits="userSpaceOnUse">
<stop stop-color="white"/>
<stop offset="1" stop-color="#FF7A00"/>
</linearGradient>
<linearGradient id="paint11_linear_37_84" x1="97.8082" y1="12.5001" x2="67.2282" y2="71.2951" gradientUnits="userSpaceOnUse">
<stop stop-color="white"/>
<stop offset="1" stop-color="#FF7A00"/>
</linearGradient>
</defs>
</svg>
