<svg width="60" height="60" viewBox="0 0 60 60" fill="none" xmlns="http://www.w3.org/2000/svg">
<g filter="url(#filter0_i_37_286)">
<path d="M54.1 9.09999L50.9 5.89999C50.6187 5.61578 50.2838 5.39017 49.9148 5.23619C49.5458 5.08221 49.1499 5.00293 48.75 5.00293C48.3501 5.00293 47.9542 5.08221 47.5852 5.23619C47.2161 5.39017 46.8813 5.61578 46.6 5.89999L5.89999 46.6C5.61578 46.8813 5.39017 47.2161 5.23619 47.5852C5.08221 47.9542 5.00293 48.3501 5.00293 48.75C5.00293 49.1499 5.08221 49.5458 5.23619 49.9148C5.39017 50.2838 5.61578 50.6187 5.89999 50.9L9.09999 54.1C9.37954 54.3873 9.71383 54.6156 10.0831 54.7715C10.4524 54.9274 10.8492 55.0077 11.25 55.0077C11.6508 55.0077 12.0476 54.9274 12.4169 54.7715C12.7862 54.6156 13.1204 54.3873 13.4 54.1L54.1 13.4C54.3873 13.1204 54.6156 12.7862 54.7715 12.4169C54.9274 12.0476 55.0077 11.6508 55.0077 11.25C55.0077 10.8492 54.9274 10.4524 54.7715 10.0831C54.6156 9.71383 54.3873 9.37954 54.1 9.09999Z" stroke="url(#paint0_linear_37_286)" stroke-width="3" stroke-linecap="round" stroke-linejoin="round"/>
<path d="M35 17.5L42.5 25" stroke="url(#paint1_linear_37_286)" stroke-width="3" stroke-linecap="round" stroke-linejoin="round"/>
<path d="M12.5 15V25" stroke="url(#paint2_linear_37_286)" stroke-width="3" stroke-linecap="round" stroke-linejoin="round"/>
<path d="M47.5 35V45" stroke="url(#paint3_linear_37_286)" stroke-width="3" stroke-linecap="round" stroke-linejoin="round"/>
<path d="M25 5V10" stroke="url(#paint4_linear_37_286)" stroke-width="3" stroke-linecap="round" stroke-linejoin="round"/>
<path d="M17.5 20H7.5" stroke="url(#paint5_linear_37_286)" stroke-width="3" stroke-linecap="round" stroke-linejoin="round"/>
<path d="M52.5 40H42.5" stroke="url(#paint6_linear_37_286)" stroke-width="3" stroke-linecap="round" stroke-linejoin="round"/>
<path d="M27.5 7.5H22.5" stroke="url(#paint7_linear_37_286)" stroke-width="3" stroke-linecap="round" stroke-linejoin="round"/>
</g>
<defs>
<filter id="filter0_i_37_286" x="0" y="0" width="60" height="60" filterUnits="userSpaceOnUse" color-interpolation-filters="sRGB">
<feFlood flood-opacity="0" result="BackgroundImageFix"/>
<feBlend mode="normal" in="SourceGraphic" in2="BackgroundImageFix" result="shape"/>
<feColorMatrix in="SourceAlpha" type="matrix" values="0 0 0 0 0 0 0 0 0 0 0 0 0 0 0 0 0 0 127 0" result="hardAlpha"/>
<feOffset/>
<feGaussianBlur stdDeviation="1"/>
<feComposite in2="hardAlpha" operator="arithmetic" k2="-1" k3="1"/>
<feColorMatrix type="matrix" values="0 0 0 0 0.113725 0 0 0 0 0.113725 0 0 0 0 0.113725 0 0 0 1 0"/>
<feBlend mode="normal" in2="shape" result="effect1_innerShadow_37_286"/>
</filter>
<linearGradient id="paint0_linear_37_286" x1="30.0053" y1="5.00293" x2="30.0053" y2="55.0077" gradientUnits="userSpaceOnUse">
<stop stop-color="white"/>
<stop offset="1" stop-color="#7E7F81"/>
</linearGradient>
<linearGradient id="paint1_linear_37_286" x1="38.75" y1="17.5" x2="38.75" y2="25" gradientUnits="userSpaceOnUse">
<stop stop-color="white"/>
<stop offset="1" stop-color="#7E7F81"/>
</linearGradient>
<linearGradient id="paint2_linear_37_286" x1="13" y1="15" x2="13" y2="25" gradientUnits="userSpaceOnUse">
<stop stop-color="white"/>
<stop offset="1" stop-color="#7E7F81"/>
</linearGradient>
<linearGradient id="paint3_linear_37_286" x1="48" y1="35" x2="48" y2="45" gradientUnits="userSpaceOnUse">
<stop stop-color="white"/>
<stop offset="1" stop-color="#7E7F81"/>
</linearGradient>
<linearGradient id="paint4_linear_37_286" x1="25.5" y1="5" x2="25.5" y2="10" gradientUnits="userSpaceOnUse">
<stop stop-color="white"/>
<stop offset="1" stop-color="#7E7F81"/>
</linearGradient>
<linearGradient id="paint5_linear_37_286" x1="12.5" y1="20" x2="12.5" y2="21" gradientUnits="userSpaceOnUse">
<stop stop-color="white"/>
<stop offset="1" stop-color="#7E7F81"/>
</linearGradient>
<linearGradient id="paint6_linear_37_286" x1="47.5" y1="40" x2="47.5" y2="41" gradientUnits="userSpaceOnUse">
<stop stop-color="white"/>
<stop offset="1" stop-color="#7E7F81"/>
</linearGradient>
<linearGradient id="paint7_linear_37_286" x1="25" y1="7.5" x2="25" y2="8.5" gradientUnits="userSpaceOnUse">
<stop stop-color="white"/>
<stop offset="1" stop-color="#7E7F81"/>
</linearGradient>
</defs>
</svg>
