<svg width="14" height="16" viewBox="0 0 14 16" fill="none" xmlns="http://www.w3.org/2000/svg">
<path d="M7.75 6.44444H7.25V6.94444H7.75V6.44444ZM7.75 1H8.25C8.25 0.787034 8.1151 0.597441 7.91391 0.527629C7.71271 0.457816 7.48937 0.523107 7.35746 0.690302L7.75 1ZM1 9.55556L0.607461 9.24586C0.488789 9.39627 0.466505 9.60127 0.550084 9.77367C0.633663 9.94607 0.808408 10.0556 1 10.0556L1 9.55556ZM6.25 9.55556H6.75V9.05556H6.25V9.55556ZM6.25 15H5.75C5.75 15.213 5.8849 15.4026 6.08609 15.4724C6.28729 15.5422 6.51063 15.4769 6.64254 15.3097L6.25 15ZM13 6.44444L13.3925 6.75414C13.5112 6.60373 13.5335 6.39873 13.4499 6.22633C13.3663 6.05393 13.1916 5.94444 13 5.94444V6.44444ZM8.25 6.44444V1H7.25V6.44444H8.25ZM7.35746 0.690302L0.607461 9.24586L1.39254 9.86525L8.14254 1.3097L7.35746 0.690302ZM1 10.0556H6.25V9.05556H1V10.0556ZM5.75 9.55556V15H6.75V9.55556H5.75ZM6.64254 15.3097L13.3925 6.75414L12.6075 6.13475L5.85746 14.6903L6.64254 15.3097ZM13 5.94444H7.75V6.94444H13V5.94444Z" fill="white"/>
</svg>
