<svg width="15" height="16" viewBox="0 0 15 16" fill="none" xmlns="http://www.w3.org/2000/svg">
<path d="M2 1V4M0.5 2.5L3.5 2.5M2 12V13.5M2 13.5V15M2 13.5H0.5M2 13.5H3.5M8 2L8.62285 3.55713C9.31982 5.29955 10.7005 6.68018 12.4429 7.37715L14 8L11.9147 9.04266C10.4921 9.75393 9.36108 10.9376 8.71514 12.3909L8 14L7.28486 12.3909C6.63892 10.9376 5.50786 9.75393 4.08533 9.04266L2 8L3.55713 7.37715C5.29955 6.68018 6.68018 5.29955 7.37715 3.55713L8 2Z" stroke="#7E7F81" stroke-linecap="round" stroke-linejoin="round"/>
</svg>
