<svg width="50" height="50" viewBox="0 0 50 50" fill="none" xmlns="http://www.w3.org/2000/svg">
<path fill-rule="evenodd" clip-rule="evenodd" d="M7.11953 0.00463867C4.93047 0.00463867 3.15625 1.78042 3.15625 3.9687V46.032C3.15625 48.2218 4.93047 49.996 7.11953 49.996H42.8805C45.0688 49.996 46.8445 48.2218 46.8445 46.032V15.8718L32.0773 0.00463867H7.11953Z" fill="#45B058"/>
<path d="M18.3031 42.139C18.1344 42.139 17.9789 42.0687 17.8813 41.9281L14.9688 38.0453L12.043 41.9281C11.9445 42.0687 11.7898 42.139 11.6211 42.139C11.3117 42.139 11.0586 41.9 11.0586 41.5765C11.0586 41.464 11.0859 41.3375 11.1711 41.239L14.2102 37.2304L11.3828 33.4601C11.3125 33.3617 11.2695 33.2492 11.2695 33.1367C11.2695 32.8695 11.4945 32.5742 11.8328 32.5742C12.0016 32.5742 12.1703 32.6585 12.2828 32.7992L14.9688 36.4148L17.6547 32.7851C17.7539 32.6445 17.9078 32.5742 18.0773 32.5742C18.3727 32.5742 18.6539 32.8132 18.6539 33.1367C18.6539 33.2492 18.6258 33.3617 18.5547 33.4601L15.7273 37.2164L18.7672 41.239C18.8375 41.3375 18.8648 41.45 18.8648 41.5625C18.8648 41.8718 18.6117 42.139 18.3031 42.139ZM26.107 42.0406H21.8453C21.3805 42.0406 21.0008 41.6609 21.0008 41.1968V33.1367C21.0008 32.8273 21.2539 32.5742 21.6055 32.5742C21.9148 32.5742 22.1688 32.8273 22.1688 33.1367V41H26.107C26.3875 41 26.6133 41.225 26.6133 41.5062C26.6133 41.8156 26.3875 42.0406 26.107 42.0406ZM31.5617 42.2093C30.1695 42.2093 29.0711 41.7453 28.2703 41.0414C28.1438 40.9289 28.0875 40.7742 28.0875 40.6195C28.0875 40.3382 28.2984 40.0289 28.6359 40.0289C28.7484 40.0289 28.875 40.057 28.9742 40.1414C29.6211 40.7179 30.5211 41.1679 31.6047 41.1679C33.2789 41.1679 33.8125 40.2679 33.8125 39.55C33.8125 37.1304 28.257 38.4671 28.257 35.1187C28.257 33.5718 29.6352 32.5164 31.4781 32.5164C32.6875 32.5164 33.7289 32.882 34.4883 33.5148C34.6149 33.6273 34.6859 33.782 34.6859 33.9367C34.6859 34.2179 34.4461 34.4992 34.1367 34.4992C34.0234 34.4992 33.8969 34.457 33.7992 34.3726C33.1094 33.8101 32.2524 33.557 31.3938 33.557C30.2688 33.557 29.4664 34.1617 29.4664 35.0484C29.4664 37.1585 35.0227 35.9484 35.0227 39.4515C35.0227 40.8171 34.0945 42.2093 31.5617 42.2093Z" fill="white"/>
<path fill-rule="evenodd" clip-rule="evenodd" d="M46.8375 15.9V16.6812H36.8367C36.8367 16.6812 31.9055 15.6969 32.05 11.4414C32.05 11.4414 32.2117 15.9 36.7391 15.9H46.8375Z" fill="#349C42"/>
<path opacity="0.5" fill-rule="evenodd" clip-rule="evenodd" d="M32.0703 0V11.3758C32.0703 12.6695 32.9328 15.9 36.8391 15.9H46.8398L32.0703 0Z" fill="white"/>
</svg>
