<svg width="50" height="50" viewBox="0 0 50 50" fill="none" xmlns="http://www.w3.org/2000/svg">
<path d="M30.4688 5.46875V14.8438H19.5312V35.1562H10.1562V8.59375C10.1587 7.7657 10.4887 6.97225 11.0742 6.38673C11.6598 5.8012 12.4532 5.47118 13.2812 5.46875H30.4688Z" fill="#FFBA00"/>
<path d="M30.4688 5.46875V14.8438H39.8438L30.4688 5.46875Z" fill="#EA4335"/>
<path d="M39.8438 14.8438H30.4688V36.7188H39.8438V14.8438Z" fill="#4285F4"/>
<path d="M30.4688 44.5312V35.1562H19.5312V44.5312H30.4688Z" fill="#00AC47"/>
<path d="M36.7188 44.5312H30.4688V35.1562H39.8438V41.4062C39.8438 42.2351 39.5145 43.0299 38.9285 43.616C38.3424 44.202 37.5476 44.5312 36.7188 44.5312Z" fill="#0066DA"/>
<path d="M10.1562 35.1562H19.5312V44.5312H13.2812C12.4524 44.5312 11.6576 44.202 11.0715 43.616C10.4855 43.0299 10.1563 42.2351 10.1562 41.4062V35.1562Z" fill="#188038"/>
</svg>
