<svg width="50" height="50" viewBox="0 0 50 50" fill="none" xmlns="http://www.w3.org/2000/svg">
<path d="M46.0938 32.8125L41.1394 41.4827C40.6988 42.1932 40.0801 42.7762 39.3447 43.1739C38.6092 43.5717 37.7826 43.7702 36.9468 43.75H13.0534C12.2175 43.7702 11.3909 43.5717 10.6555 43.1739C9.92005 42.7762 9.30135 42.1932 8.8607 41.4827L6.82617 37.9219L15.2466 32.8125H46.0938Z" fill="#4285F4"/>
<path d="M19.3471 6.45312C18.2218 6.85691 17.2766 7.6475 16.6804 8.68375L4.62349 29.3125C4.18425 30.0239 3.93858 30.8378 3.91084 31.6734C3.88311 32.5091 4.07427 33.3374 4.46537 34.0764L6.85599 37.9292L15.2466 32.8125L24.9999 16.125L19.3471 6.45312Z" fill="#00AC47"/>
<path d="M15.2458 32.8125H4.01172C4.09311 33.2556 4.24616 33.6825 4.46484 34.0764L6.84297 37.9113L6.825 37.9222L8.86 41.4828C9.34737 42.2883 10.0794 42.917 10.9492 43.2772L15.2458 32.8125Z" fill="#0066DA"/>
<path d="M30.6354 6.45312C31.7607 6.85687 32.7058 7.64748 33.302 8.68375L45.3591 29.3125C45.7984 30.0239 46.0441 30.8378 46.0719 31.6734C46.0996 32.509 45.9085 33.3374 45.5174 34.0764L43.1276 37.9292L34.7359 32.8125L24.9824 16.125L30.6354 6.45312Z" fill="#FFBA00"/>
<path d="M34.7363 32.8125H45.9707C45.8893 33.2556 45.7363 33.6825 45.5176 34.0764L43.1388 37.9114L43.157 37.9223L41.1223 41.4828C40.6349 42.2883 39.9029 42.917 39.033 43.2772L34.7363 32.8125Z" fill="#EA4435"/>
<path d="M30.6489 6.45969L30.6525 6.45344C30.4682 6.3896 30.2798 6.33829 30.0886 6.29984L24.9997 6.25L19.9108 6.29984C19.7196 6.33829 19.5312 6.3896 19.3469 6.45344C19.1502 6.52735 18.9586 6.61432 18.7734 6.71375L24.9823 16.125L31.2138 6.71766C31.0313 6.6194 30.8426 6.53322 30.6489 6.45969Z" fill="#188038"/>
</svg>
