<svg width="50" height="50" viewBox="0 0 50 50" fill="none" xmlns="http://www.w3.org/2000/svg">
<path d="M46.4281 11.5064V50H4.66602V0.000244141H34.9221L40.2812 5.35952L46.4281 11.5064Z" fill="#B12A27"/>
<path d="M23.5993 3.34912H3.57031V12.3108H23.5993V3.34912Z" fill="#F2F2F2"/>
<path d="M10.754 6.28721C10.6656 6.07373 10.5479 5.88232 10.3859 5.72041C10.224 5.5585 10.0252 5.42598 9.79697 5.3376C9.56143 5.24189 9.29639 5.19775 9.00195 5.19775H6.80078V10.8809H7.9124V8.73857H9.00195C9.29639 8.73857 9.56143 8.69443 9.79697 8.59873C10.0252 8.51035 10.2239 8.37793 10.3859 8.21592C10.548 8.054 10.6657 7.86992 10.754 7.64912C10.835 7.43564 10.8792 7.20742 10.8792 6.97187C10.8791 6.72891 10.835 6.50068 10.754 6.28721ZM9.554 7.53125C9.40674 7.67109 9.20068 7.74473 8.95039 7.74473H7.9124V6.18408H8.95039C9.20068 6.18408 9.40684 6.25771 9.554 6.40488C9.69385 6.54473 9.76748 6.73613 9.76748 6.97168C9.76758 7.2 9.69395 7.39141 9.554 7.53125Z" fill="#B12A27"/>
<path d="M16.0683 7.39858C16.0609 7.19985 16.0535 7.02319 16.0314 6.86118C16.0094 6.69917 15.9726 6.552 15.921 6.41216C15.8694 6.27964 15.8032 6.14712 15.7148 6.02935C15.5161 5.74224 15.2731 5.52876 15.0008 5.39624C14.721 5.26372 14.3897 5.19751 13.9996 5.19751H11.9531V10.8806H13.9996C14.3897 10.8806 14.721 10.8144 15.0008 10.6819C15.2731 10.5494 15.5161 10.3359 15.7148 10.0488C15.8032 9.93101 15.8694 9.79848 15.921 9.66597C15.9726 9.52612 16.0094 9.37886 16.0314 9.21694C16.0535 9.05503 16.0608 8.87827 16.0683 8.67954C16.0756 8.48813 16.0756 8.27466 16.0756 8.03911C16.0756 7.80356 16.0756 7.58999 16.0683 7.39858ZM14.9566 8.61333C14.9566 8.78266 14.9419 8.91518 14.9271 9.03296C14.9124 9.14341 14.8903 9.24643 14.8609 9.32007C14.8315 9.40102 14.7873 9.47466 14.7358 9.54087C14.5518 9.77641 14.2721 9.88686 13.904 9.88686H13.0574V6.18394H13.904C14.2721 6.18394 14.5519 6.30171 14.7358 6.53726C14.7874 6.60347 14.8315 6.66977 14.8609 6.75073C14.8903 6.83169 14.9125 6.92739 14.9271 7.04517C14.9419 7.15561 14.9566 7.29546 14.9566 7.45737C14.964 7.61938 14.964 7.81811 14.964 8.03892C14.9641 8.25991 14.9641 8.45132 14.9566 8.61333Z" fill="#B12A27"/>
<path d="M20.8174 6.18394V5.19751H17.0703V10.8806H18.1819V8.57651H20.4272V7.58267H18.1819V6.18394H20.8174Z" fill="#B12A27"/>
<path d="M10.754 6.28721C10.6656 6.07373 10.5479 5.88232 10.3859 5.72041C10.224 5.5585 10.0252 5.42598 9.79697 5.3376C9.56143 5.24189 9.29639 5.19775 9.00195 5.19775H6.80078V10.8809H7.9124V8.73857H9.00195C9.29639 8.73857 9.56143 8.69443 9.79697 8.59873C10.0252 8.51035 10.2239 8.37793 10.3859 8.21592C10.548 8.054 10.6657 7.86992 10.754 7.64912C10.835 7.43564 10.8792 7.20742 10.8792 6.97187C10.8791 6.72891 10.835 6.50068 10.754 6.28721ZM9.554 7.53125C9.40674 7.67109 9.20068 7.74473 8.95039 7.74473H7.9124V6.18408H8.95039C9.20068 6.18408 9.40684 6.25771 9.554 6.40488C9.69385 6.54473 9.76748 6.73613 9.76748 6.97168C9.76758 7.2 9.69395 7.39141 9.554 7.53125Z" fill="#B12A27"/>
<path opacity="0.08" d="M46.4281 11.5064V50H4.66602V40.9747L24.1889 21.4519L25.3446 20.2961L25.9851 19.6556L27.0525 18.5882L28.3187 17.322L40.2812 5.3595L46.4281 11.5064Z" fill="#040000"/>
<path d="M46.4293 11.5074H34.9219V0L46.4293 11.5074Z" fill="#771B1B"/>
<path d="M40.4658 36.197C40.2228 35.7701 39.8915 35.3652 39.4793 34.9971C39.1408 34.688 38.7432 34.4009 38.2941 34.1358C36.4831 33.0684 33.8993 32.5531 30.3877 32.5531H30.0344C29.843 32.3764 29.6443 32.1998 29.4381 32.0157C28.1057 30.8158 27.0456 29.5128 26.2211 28.0626C27.8407 24.4922 28.6136 21.312 28.5179 18.6029C28.5032 18.1465 28.437 17.7195 28.3192 17.3219C28.1425 16.6815 27.8481 16.1146 27.4358 15.6509C27.4285 15.6435 27.4285 15.6435 27.421 15.6361C26.7659 14.9 25.8531 14.4803 24.9254 14.4803C23.9905 14.4803 23.1292 14.8852 22.5035 15.6288C21.8851 16.3649 21.5538 17.3735 21.5391 18.5587C21.517 20.3696 21.6642 22.0848 21.9735 23.6676C22.0029 23.7928 22.025 23.9178 22.0544 24.0429C22.3636 25.4785 22.8201 26.8403 23.4089 28.1065C22.7169 29.5126 22.0176 30.7272 21.5317 31.5517C21.1636 32.1775 20.7587 32.8327 20.3391 33.4879C18.4472 33.8265 16.8423 34.2387 15.4437 34.7541C13.5518 35.4387 12.0353 36.322 10.9457 37.3748C10.239 38.052 9.76049 38.7735 9.52494 39.5244C9.27465 40.2973 9.2894 41.0703 9.56908 41.7623C9.8267 42.4027 10.2905 42.9401 10.9089 43.3082C11.0562 43.3966 11.2108 43.4701 11.3727 43.5364C11.8439 43.7278 12.3591 43.8308 12.8965 43.8308C14.1407 43.8308 15.4215 43.2934 16.5037 42.3291C18.5207 40.5255 20.604 37.6251 21.8334 35.792C22.8419 35.6374 23.9388 35.5049 25.1756 35.3723C26.6332 35.2251 27.9215 35.1368 29.092 35.0926C29.4528 35.4165 29.7988 35.7257 30.13 36.0201C31.9704 37.6617 33.3691 38.847 34.6353 39.6788C34.6353 39.6861 34.6426 39.6861 34.65 39.6861C35.1506 40.0174 35.6291 40.2897 36.1077 40.5106C36.6451 40.7609 37.1898 40.8934 37.7493 40.8934C38.456 40.8934 39.1185 40.68 39.6706 40.2898C40.2301 39.8849 40.635 39.3034 40.8191 38.6482C41.0326 37.8607 40.9075 36.9847 40.4658 36.197ZM24.1893 21.4518C24.0863 20.5389 24.042 19.5893 24.0568 18.5882C24.0715 17.6385 24.4175 16.998 24.9254 16.998C25.3082 16.998 25.7131 17.344 25.8971 18.0065C25.9487 18.2052 25.9855 18.4335 25.9928 18.6911C26.0076 19.0003 26.0001 19.3242 25.9855 19.6554C25.9413 20.5904 25.7793 21.5842 25.4996 22.6516C25.3303 23.3363 25.1095 24.0504 24.8371 24.7938C24.528 23.7486 24.3071 22.637 24.1893 21.4518ZM11.9102 40.8274C11.785 40.5182 11.9249 39.922 12.6906 39.1858C13.8611 38.0669 15.6941 37.1835 18.2486 36.5136C17.7627 37.1761 17.2842 37.7798 16.8204 38.3318C16.1137 39.1857 15.4365 39.9072 14.8254 40.4519C14.3028 40.923 13.7286 41.2176 13.1838 41.2912C13.0881 41.3059 12.9924 41.3133 12.8967 41.3133C12.4181 41.3134 12.028 41.122 11.9102 40.8274ZM23.674 33.0021L23.7255 32.9212L23.6446 32.9359C23.6593 32.8991 23.6814 32.8623 23.7035 32.8329C24.0126 32.3102 24.4028 31.6403 24.8224 30.8674L24.8592 30.9483L24.9549 30.7496C25.2641 31.1913 25.6028 31.6257 25.9561 32.0452C26.1254 32.2439 26.3021 32.4353 26.4787 32.6267L26.361 32.6341L26.464 32.7298C26.1621 32.7518 25.8456 32.7813 25.529 32.8107C25.3303 32.8328 25.1242 32.8475 24.918 32.8696C24.4912 32.9137 24.0715 32.958 23.674 33.0021ZM36.0635 37.5957C35.1874 37.0362 34.2084 36.2485 33.0011 35.1958C34.7163 35.3724 36.0635 35.7479 37.0205 36.3074C37.4402 36.5504 37.7567 36.8007 37.9702 37.0435C38.3235 37.4189 38.4487 37.7576 38.3824 37.9858C38.3235 38.214 38.0659 38.3686 37.7493 38.3686C37.5652 38.3686 37.3739 38.3245 37.175 38.2288C36.8364 38.0669 36.483 37.868 36.1077 37.6252C36.0929 37.6252 36.0783 37.6104 36.0635 37.5957Z" fill="#F2F2F2"/>
</svg>
