<svg width="100" height="100" viewBox="0 0 100 100" fill="none" xmlns="http://www.w3.org/2000/svg">
<g filter="url(#filter0_d_65_10674)">
<path d="M57 45.5C65.5604 45.5 72.5 38.5604 72.5 30C72.5 21.4396 65.5604 14.5 57 14.5C48.4396 14.5 41.5 21.4396 41.5 30C41.5 38.5604 48.4396 45.5 57 45.5Z" fill="#EA4C89"/>
<path fill-rule="evenodd" clip-rule="evenodd" d="M57 14C48.167 14 41 21.167 41 30C41 38.833 48.167 46 57 46C65.8156 46 73 38.833 73 30C73 21.167 65.8156 14 57 14ZM67.5683 21.3753C69.4772 23.7006 70.6226 26.6681 70.6573 29.8785C70.2061 29.7918 65.6941 28.872 61.1475 29.4447C61.0434 29.2191 60.9566 28.9761 60.8525 28.7332C60.5748 28.0738 60.2625 27.397 59.9501 26.7549C64.9826 24.7072 67.2733 21.757 67.5683 21.3753ZM57 16.3601C60.4707 16.3601 63.6464 17.6616 66.0586 19.7961C65.8156 20.1432 63.7505 22.9024 58.8915 24.7245C56.6529 20.6117 54.1714 17.2451 53.7896 16.7245C54.8134 16.4816 55.8894 16.3601 57 16.3601ZM51.1866 17.6442C51.551 18.1301 53.9805 21.5141 56.2538 25.5401C49.8677 27.2408 44.2278 27.2061 43.6204 27.2061C44.5054 22.9718 47.3688 19.449 51.1866 17.6442ZM43.3254 30.0174C43.3254 29.8785 43.3254 29.7397 43.3254 29.6009C43.9154 29.6182 50.5445 29.705 57.3644 27.6573C57.7636 28.4208 58.128 29.2017 58.4751 29.9826C58.3015 30.0347 58.1106 30.0868 57.9371 30.1388C50.8915 32.4121 47.1432 38.6247 46.8308 39.1453C44.6616 36.7332 43.3254 33.5228 43.3254 30.0174ZM57 43.6746C53.8416 43.6746 50.9262 42.5987 48.6182 40.7939C48.8612 40.2907 51.6377 34.9458 59.3427 32.256C59.3774 32.2386 59.3948 32.2386 59.4295 32.2213C61.3557 37.2017 62.1367 41.3839 62.3449 42.5813C60.6963 43.2928 58.8915 43.6746 57 43.6746ZM64.6182 41.3319C64.4794 40.4989 63.7505 36.5076 61.9631 31.5965C66.2495 30.9197 69.9978 32.0304 70.4664 32.1866C69.8764 35.987 67.6898 39.2668 64.6182 41.3319Z" fill="#C32361"/>
</g>
<defs>
<filter id="filter0_d_65_10674" x="0" y="0" width="100" height="100" filterUnits="userSpaceOnUse" color-interpolation-filters="sRGB">
<feFlood flood-opacity="0" result="BackgroundImageFix"/>
<feColorMatrix in="SourceAlpha" type="matrix" values="0 0 0 0 0 0 0 0 0 0 0 0 0 0 0 0 0 0 127 0" result="hardAlpha"/>
<feOffset dx="-7" dy="20"/>
<feGaussianBlur stdDeviation="17"/>
<feColorMatrix type="matrix" values="0 0 0 0 0 0 0 0 0 0 0 0 0 0 0 0 0 0 0.55 0"/>
<feBlend mode="normal" in2="BackgroundImageFix" result="effect1_dropShadow_65_10674"/>
<feBlend mode="normal" in="SourceGraphic" in2="effect1_dropShadow_65_10674" result="shape"/>
</filter>
</defs>
</svg>
