<svg width="109" height="109" viewBox="0 0 109 109" fill="none" xmlns="http://www.w3.org/2000/svg">
<g filter="url(#filter0_i_65_10626)">
<g clip-path="url(#clip0_65_10626)">
<rect width="109" height="109" rx="28" fill="#4553EB"/>
<path d="M305.711 74.4053C305.711 153.475 241.612 217.574 162.542 217.574C83.472 217.574 19.373 153.475 19.373 74.4053C19.373 -4.66475 83.472 -68.7637 162.542 -68.7637C241.612 -68.7637 305.711 -4.66475 305.711 74.4053Z" fill="#FF8D8D"/>
<path fill-rule="evenodd" clip-rule="evenodd" d="M162.542 211.816C238.432 211.816 299.953 150.295 299.953 74.4053C299.953 -1.48461 238.432 -63.0055 162.542 -63.0055C86.6521 -63.0055 25.1312 -1.48461 25.1312 74.4053C25.1312 150.295 86.6521 211.816 162.542 211.816ZM162.542 217.574C241.612 217.574 305.711 153.475 305.711 74.4053C305.711 -4.66475 241.612 -68.7637 162.542 -68.7637C83.472 -68.7637 19.373 -4.66475 19.373 74.4053C19.373 153.475 83.472 217.574 162.542 217.574Z" fill="black"/>
<path d="M42.6556 49.2825C42.6556 50.4686 41.6067 51.4302 40.3127 51.4302C39.0187 51.4302 37.9697 50.4686 37.9697 49.2825C37.9697 48.0963 39.0187 47.1348 40.3127 47.1348C41.6067 47.1348 42.6556 48.0963 42.6556 49.2825Z" fill="black"/>
<path d="M77.8002 53.5774C77.8002 54.7635 76.7512 55.7251 75.4572 55.7251C74.1632 55.7251 73.1143 54.7635 73.1143 53.5774C73.1143 52.3913 74.1632 51.4297 75.4572 51.4297C76.7512 51.4297 77.8002 52.3913 77.8002 53.5774Z" fill="black"/>
<path fill-rule="evenodd" clip-rule="evenodd" d="M43.1665 55.9227C43.3104 54.4837 44.5937 53.4337 46.0327 53.5776C47.0628 53.6807 47.9252 54.1607 48.3507 54.3998C48.568 54.5219 48.7233 54.6114 48.8398 54.6785C49.0572 54.8038 49.1392 54.8511 49.236 54.8869C50.6518 55.4107 52.1478 55.8347 53.6237 56.1266C55.2165 56.4417 57.0019 56.6566 58.5265 56.6566C59.1425 56.6566 59.7594 56.5831 60.5449 56.484C60.5713 56.4806 60.598 56.4773 60.6249 56.4739C61.3463 56.3827 62.237 56.2701 63.1645 56.2701C64.6107 56.2701 65.7831 57.4425 65.7831 58.8887C65.7831 60.335 64.6107 61.5074 63.1645 61.5074C62.5886 61.5074 61.9972 61.5795 61.2004 61.68L61.1663 61.6843C60.4257 61.7778 59.5059 61.8939 58.5265 61.8939C56.5739 61.8939 54.4374 61.6263 52.6074 61.2643C50.8538 60.9175 49.0901 60.4171 47.4186 59.7987C47.0335 59.6562 46.6927 59.4783 46.4418 59.3399C46.3121 59.2684 46.1866 59.1961 46.0798 59.1346C46.0661 59.1266 46.0526 59.1188 46.0395 59.1112C45.9445 59.0564 45.8647 59.0104 45.7848 58.9654C45.5999 58.8615 45.4915 58.8081 45.4215 58.7793C45.4203 58.7788 45.4192 58.7783 45.4181 58.7779C44.0274 58.589 43.0257 57.3304 43.1665 55.9227ZM45.3875 58.7664C45.3875 58.7664 45.3885 58.7667 45.3906 58.7674C45.3885 58.7668 45.3875 58.7664 45.3875 58.7664Z" fill="black"/>
</g>
<rect x="0.5" y="0.5" width="108" height="108" rx="27.5" stroke="white" stroke-opacity="0.2"/>
</g>
<defs>
<filter id="filter0_i_65_10626" x="0" y="0" width="113" height="113" filterUnits="userSpaceOnUse" color-interpolation-filters="sRGB">
<feFlood flood-opacity="0" result="BackgroundImageFix"/>
<feBlend mode="normal" in="SourceGraphic" in2="BackgroundImageFix" result="shape"/>
<feColorMatrix in="SourceAlpha" type="matrix" values="0 0 0 0 0 0 0 0 0 0 0 0 0 0 0 0 0 0 127 0" result="hardAlpha"/>
<feOffset dx="4" dy="4"/>
<feGaussianBlur stdDeviation="2"/>
<feComposite in2="hardAlpha" operator="arithmetic" k2="-1" k3="1"/>
<feColorMatrix type="matrix" values="0 0 0 0 1 0 0 0 0 1 0 0 0 0 1 0 0 0 0.1 0"/>
<feBlend mode="normal" in2="shape" result="effect1_innerShadow_65_10626"/>
</filter>
<clipPath id="clip0_65_10626">
<rect width="109" height="109" rx="28" fill="white"/>
</clipPath>
</defs>
</svg>
