<svg width="173" height="173" viewBox="0 0 173 173" fill="none" xmlns="http://www.w3.org/2000/svg">
<g filter="url(#filter0_i_65_10697)">
<g clip-path="url(#clip0_65_10697)">
<rect x="0.705078" y="22.9404" width="151" height="151" rx="43" transform="rotate(-8.4676 0.705078 22.9404)" fill="#4553EB"/>
<path d="M434.774 62.5304C450.904 170.874 376.15 271.779 267.806 287.908C159.463 304.038 58.5579 229.283 42.4285 120.94C26.2991 12.5967 101.053 -88.3084 209.397 -104.438C317.74 -120.567 418.645 -45.8129 434.774 62.5304Z" fill="#FF8D8D"/>
<path fill-rule="evenodd" clip-rule="evenodd" d="M266.632 280.018C370.618 264.538 442.365 167.691 426.884 63.705C411.404 -40.2808 314.557 -112.028 210.571 -96.5478C106.585 -81.0671 34.8378 15.7796 50.3184 119.765C65.7991 223.751 162.646 295.499 266.632 280.018ZM267.806 287.908C376.15 271.779 450.904 170.874 434.774 62.5304C418.645 -45.8129 317.74 -120.567 209.397 -104.438C101.053 -88.3084 26.2991 12.5967 42.4285 120.94C58.5579 229.283 159.463 304.038 267.806 287.908Z" fill="black"/>
<path d="M69.2055 81.7667C69.4475 83.392 68.2063 84.9236 66.4333 85.1875C64.6602 85.4515 63.0267 84.3479 62.7848 82.7226C62.5428 81.0973 63.784 79.5658 65.557 79.3018C67.3301 79.0379 68.9636 80.1415 69.2055 81.7667Z" fill="black"/>
<path d="M118.238 80.4826C118.48 82.1079 117.239 83.6394 115.465 83.9033C113.692 84.1673 112.059 83.0637 111.817 81.4384C111.575 79.8132 112.816 78.2816 114.589 78.0177C116.362 77.7537 117.996 78.8573 118.238 80.4826Z" fill="black"/>
<path fill-rule="evenodd" clip-rule="evenodd" d="M71.2599 90.7613C71.1635 88.7602 72.7076 87.0598 74.7088 86.9634C76.1413 86.8944 77.4208 87.3762 78.0527 87.6172C78.3753 87.7402 78.6064 87.8311 78.7797 87.8993C79.1032 88.0266 79.2252 88.0746 79.3651 88.1039C81.412 88.5329 83.5483 88.8087 85.6301 88.9076C87.8769 89.0144 90.3671 88.9447 92.4562 88.6337C93.3003 88.508 94.1305 88.2814 95.1866 87.9854C95.2221 87.9754 95.258 87.9654 95.2941 87.9552C96.2641 87.6831 97.4615 87.3472 98.7324 87.158C100.714 86.863 102.56 88.2303 102.855 90.2119C103.15 92.1936 101.782 94.0392 99.8007 94.3342C99.0116 94.4517 98.216 94.6711 97.1447 94.9714L97.0989 94.9843C96.1031 95.2634 94.8664 95.6101 93.5245 95.8099C90.849 96.2082 87.867 96.2774 85.2857 96.1547C82.812 96.0372 80.2933 95.7113 77.8769 95.2049C77.3201 95.0882 76.8169 94.914 76.4448 94.7756C76.2525 94.704 76.0657 94.6306 75.907 94.568C75.8865 94.5599 75.8664 94.552 75.8469 94.5443C75.7056 94.4886 75.5869 94.4417 75.4681 94.3964C75.1937 94.2918 75.0343 94.2408 74.9324 94.2155C74.9307 94.2151 74.9291 94.2147 74.9275 94.2143C72.9833 94.2392 71.3541 92.7189 71.2599 90.7613ZM74.8832 94.2047C74.8832 94.2047 74.8846 94.2049 74.8876 94.2055C74.8847 94.2051 74.8832 94.2048 74.8832 94.2047Z" fill="black"/>
</g>
<rect x="1.27325" y="23.3614" width="150" height="150" rx="42.5" transform="rotate(-8.4676 1.27325 23.3614)" stroke="white" stroke-opacity="0.2"/>
</g>
<defs>
<filter id="filter0_i_65_10697" x="0.705078" y="0.705566" width="175.589" height="175.589" filterUnits="userSpaceOnUse" color-interpolation-filters="sRGB">
<feFlood flood-opacity="0" result="BackgroundImageFix"/>
<feBlend mode="normal" in="SourceGraphic" in2="BackgroundImageFix" result="shape"/>
<feColorMatrix in="SourceAlpha" type="matrix" values="0 0 0 0 0 0 0 0 0 0 0 0 0 0 0 0 0 0 127 0" result="hardAlpha"/>
<feOffset dx="4" dy="4"/>
<feGaussianBlur stdDeviation="2"/>
<feComposite in2="hardAlpha" operator="arithmetic" k2="-1" k3="1"/>
<feColorMatrix type="matrix" values="0 0 0 0 1 0 0 0 0 1 0 0 0 0 1 0 0 0 0.1 0"/>
<feBlend mode="normal" in2="shape" result="effect1_innerShadow_65_10697"/>
</filter>
<clipPath id="clip0_65_10697">
<rect x="0.705078" y="22.9404" width="151" height="151" rx="43" transform="rotate(-8.4676 0.705078 22.9404)" fill="white"/>
</clipPath>
</defs>
</svg>
